<svg width="343" height="70" viewBox="0 0 343 70" fill="none" xmlns="http://www.w3.org/2000/svg">
<path d="M93.4271 55.3408C91.6942 55.3104 89.9655 55.159 88.2541 54.8879C86.9047 54.717 85.624 54.1992 84.5392 53.3859C84.0749 53.0008 83.7076 52.5137 83.4665 51.9634C83.2254 51.413 83.1172 50.8146 83.1505 50.2155V41.5014L88.7112 40.8593V47.9739C88.6879 48.384 88.7604 48.7939 88.9229 49.1717C89.0855 49.5496 89.3338 49.8852 89.6486 50.1525C90.2735 50.6608 91.4308 50.9169 93.1204 50.9207C93.9976 50.9577 94.8737 50.8273 95.7012 50.5366C95.977 50.4318 96.2285 50.2725 96.4403 50.0685C96.6522 49.8645 96.82 49.62 96.9337 49.3498C97.1676 48.703 97.2775 48.0186 97.2577 47.3318V42.4244C97.2987 41.245 96.9713 40.0817 96.3203 39.0935C95.5536 38.1054 94.4698 37.4057 93.2477 37.1099L88.5318 35.734C86.6339 35.1377 85.2664 34.3733 84.4293 33.4408C83.5844 32.5235 83.1678 31.0558 83.1678 29.0493V21.2581C83.1678 19.4236 83.6192 18.0534 84.5218 17.159C85.53 16.2088 86.8049 15.5832 88.1788 15.3646C89.8961 15.0495 91.6402 14.8998 93.3866 14.9174C95.0142 14.9 96.6392 15.0499 98.2356 15.3646C99.4788 15.578 100.64 16.1208 101.597 16.9354C102.015 17.34 102.339 17.8292 102.548 18.3695C102.757 18.9097 102.845 19.4884 102.807 20.0656V28.7512L97.2461 29.5882V22.6684C97.2461 21.304 96.9626 20.3752 96.4013 19.9109C95.84 19.4465 94.7464 19.2057 93.1088 19.2057C91.4713 19.2057 90.3777 19.4923 89.6891 20.0656C89.0005 20.6389 88.688 21.7454 88.688 23.3679V27.7249C88.6644 28.7482 88.9705 29.7522 89.5618 30.5914C90.1888 31.4371 91.0895 32.0441 92.1136 32.3113L97.1535 33.8478C99.1846 34.4211 100.625 35.2466 101.488 36.2499C102.35 37.2532 102.784 38.7381 102.784 40.7045V48.8052C102.784 50.6398 102.384 52.0176 101.586 52.9387C100.719 53.8956 99.5612 54.5475 98.2877 54.7962C96.6893 55.1347 95.0614 55.3171 93.4271 55.3408Z" fill="white"/>
<path d="M108.107 14.6592H113.535V27.9196C114.154 26.8792 115.048 26.0267 116.121 25.4544C117.439 24.8213 118.894 24.5238 120.357 24.5887C122.469 24.5887 124.049 24.9327 125.108 25.615C126.081 26.2017 126.831 27.0905 127.243 28.1432C127.605 29.0752 127.801 30.0627 127.821 31.0613V54.9565H122.388V32.9188C122.388 31.4684 122.023 30.4077 121.289 29.7485C120.554 29.0892 119.454 28.7509 117.99 28.7509C116.967 28.6822 115.949 28.9525 115.097 29.5191C114.412 30.0548 113.886 30.764 113.575 31.5715V54.9565H108.148L108.107 14.6592Z" fill="white"/>
<path d="M138.492 54.9565C136.852 54.9565 135.677 54.71 134.968 54.2169C134.585 53.9081 134.272 53.5239 134.048 53.0886C133.824 52.6533 133.694 52.1766 133.666 51.6887C133.468 50.0298 133.383 48.3597 133.411 46.6895V31.5716C133.361 30.2235 133.557 28.8775 133.99 27.5986C134.18 27.1147 134.472 26.6763 134.846 26.3125C135.22 25.9488 135.668 25.668 136.16 25.4889C137.59 25.0041 139.099 24.7864 140.609 24.8468H153.027V54.9565H147.611V29.2038H141.662C140.974 29.1519 140.284 29.2722 139.655 29.5536C139.453 29.6849 139.285 29.8601 139.163 30.0658C139.04 30.2715 138.967 30.5022 138.949 30.7403C138.848 31.5005 138.804 32.2669 138.816 33.0335V46.678C138.789 47.5368 138.855 48.3958 139.012 49.2407C139.042 49.4668 139.124 49.6829 139.253 49.872C139.381 50.0611 139.553 50.2179 139.753 50.33C140.278 50.5298 140.84 50.6177 141.402 50.588H145.996L145.476 54.945L138.492 54.9565Z" fill="white"/>
<path d="M159.247 54.9563V24.8466H163.645L164.16 27.9826C164.806 26.8767 165.747 25.9684 166.88 25.3568C167.943 24.7758 169.137 24.4683 170.351 24.4625C171.184 24.4441 172.016 24.4979 172.84 24.623C173.367 24.7097 173.879 24.8699 174.361 25.0989L174.101 29.777C173.52 29.5886 172.926 29.4393 172.325 29.3298C171.524 29.1907 170.713 29.1255 169.9 29.1349C168.718 29.1146 167.56 29.4746 166.602 30.1611C165.615 30.9039 164.927 31.9711 164.663 33.1709V54.9563H159.247Z" fill="white"/>
<path d="M187.115 55.2084C184.441 55.2084 182.416 54.8664 181.039 54.1822C179.811 53.6526 178.821 52.6963 178.256 51.4935C177.78 50.3801 177.538 49.1824 177.544 47.9734V31.7662C177.532 30.5401 177.786 29.3258 178.29 28.206C178.885 27.0182 179.886 26.0777 181.114 25.5516C182.514 24.8713 184.596 24.5292 187.358 24.5254C189.896 24.5254 191.879 24.856 193.306 25.5172C194.568 26.0283 195.628 26.9317 196.327 28.0913C196.918 29.1935 197.219 30.4262 197.2 31.6744V38.2101L191.773 38.5311V32.6777C191.794 32.1442 191.708 31.6118 191.519 31.1118C191.33 30.6117 191.043 30.1539 190.673 29.7654C189.94 29.001 188.841 28.6188 187.375 28.6188C186.78 28.5817 186.184 28.6641 185.622 28.8612C185.06 29.0582 184.544 29.3658 184.106 29.7654C183.728 30.1493 183.433 30.6056 183.239 31.1063C183.045 31.6071 182.956 32.1418 182.977 32.6777V46.9472C182.949 47.4745 183.031 48.002 183.221 48.4957C183.41 48.9894 183.702 49.4384 184.077 49.8137C184.477 50.1766 184.946 50.4568 185.457 50.6379C185.967 50.8191 186.509 50.8975 187.051 50.8686C188.69 50.8686 189.886 50.5055 190.638 49.7793C191.039 49.3634 191.348 48.8703 191.547 48.3308C191.746 47.7912 191.831 47.2168 191.796 46.6433V44.1437L197.223 43.6966V47.5377C197.241 48.8794 196.942 50.2066 196.35 51.4132C195.686 52.667 194.601 53.6523 193.283 54.1994C191.798 54.8759 189.742 55.2123 187.115 55.2084ZM178.256 40.7326V37.8374H197.2V40.7039L178.256 40.7326Z" fill="white"/>
<path d="M218.083 54.9569C216.444 54.9569 215.269 54.7104 214.559 54.2173C214.173 53.9106 213.855 53.5273 213.627 53.0919C213.399 52.6565 213.265 52.1787 213.234 51.6891C213.035 50.0303 212.948 48.3602 212.974 46.6899V31.5719C212.923 30.2239 213.119 28.8778 213.553 27.599C213.742 27.1158 214.033 26.6779 214.406 26.3143C214.779 25.9506 215.226 25.6694 215.717 25.4892C217.162 25 218.687 24.7822 220.213 24.8471H232.613V54.9569H227.185V29.2042H221.254C220.566 29.1518 219.875 29.2721 219.246 29.5539C219.045 29.6856 218.876 29.8608 218.753 30.0663C218.63 30.2719 218.555 30.5024 218.535 30.7407C218.437 31.501 218.394 32.2674 218.407 33.0339V46.6784C218.381 47.5371 218.447 48.3962 218.604 49.2411C218.634 49.4671 218.716 49.6833 218.845 49.8724C218.973 50.0614 219.144 50.2182 219.345 50.3303C219.87 50.5302 220.432 50.6181 220.994 50.5883H225.583L225.068 54.9454L218.083 54.9569Z" fill="white"/>
<path d="M258.496 55.3408C256.763 55.3106 255.034 55.1593 253.322 54.8879C251.971 54.7172 250.689 54.1994 249.602 53.3859C249.137 53.0008 248.77 52.5137 248.529 51.9633C248.288 51.413 248.18 50.8145 248.213 50.2155V41.5013L253.774 40.8592V47.9739C253.751 48.384 253.823 48.7939 253.986 49.1717C254.148 49.5495 254.396 49.8851 254.711 50.1524C255.336 50.6608 256.493 50.9168 258.183 50.9207C259.062 50.9575 259.94 50.8271 260.77 50.5366C261.045 50.4317 261.295 50.2723 261.506 50.0683C261.717 49.8643 261.884 49.6198 261.996 49.3498C262.23 48.703 262.34 48.0186 262.32 47.3318V42.4243C262.361 41.2449 262.034 40.0817 261.383 39.0935C260.616 38.1054 259.532 37.4057 258.31 37.1099L253.594 35.7626C251.697 35.1664 250.327 34.402 249.486 33.4694C248.647 32.5521 248.225 31.0845 248.225 29.0779V21.2581C248.225 19.4235 248.676 18.0533 249.584 17.159C250.59 16.2089 251.864 15.5833 253.236 15.3646C254.953 15.0496 256.697 14.8999 258.443 14.9174C260.071 14.9003 261.696 15.0502 263.292 15.3646C264.535 15.5804 265.696 16.1229 266.654 16.9354C267.073 17.3395 267.398 17.8284 267.608 18.3687C267.818 18.909 267.907 19.4879 267.869 20.0656V28.7511L262.309 29.5881V22.6684C262.309 21.304 262.025 20.3752 261.47 19.9108C260.914 19.4465 259.809 19.2057 258.171 19.2057C256.534 19.2057 255.446 19.4923 254.775 20.0656C254.104 20.6389 253.774 21.7454 253.774 23.3678V27.7249C253.75 28.7481 254.056 29.7522 254.648 30.5914C255.275 31.4371 256.175 32.0441 257.199 32.3113L262.245 33.8478C264.27 34.4211 265.717 35.2466 266.579 36.2499C267.441 37.2532 267.869 38.738 267.869 40.7044V48.8052C267.869 50.6397 267.47 52.0176 266.672 52.9387C265.804 53.8956 264.647 54.5475 263.373 54.7962C261.769 55.1358 260.136 55.3183 258.496 55.3408Z" fill="white"/>
<path d="M282.22 55.2084C279.552 55.2084 277.521 54.8702 276.144 54.1822C274.918 53.6524 273.93 52.6959 273.367 51.4935C272.891 50.3801 272.649 49.1824 272.655 47.9734V31.7662C272.641 30.5405 272.893 29.3262 273.396 28.206C273.999 27.016 275.007 26.0758 276.242 25.5516C277.643 24.8713 279.722 24.5292 282.48 24.5254C285.026 24.5254 287.009 24.856 288.429 25.5172C289.688 26.0388 290.743 26.9498 291.437 28.1143C292.027 29.2173 292.327 30.4494 292.311 31.6974V36.3125L286.878 36.8227V32.6777C286.899 32.1442 286.813 31.6118 286.624 31.1118C286.436 30.6117 286.148 30.1539 285.778 29.7654C285.045 29.001 283.946 28.6188 282.48 28.6188C281.886 28.5811 281.291 28.6633 280.73 28.8604C280.169 29.0575 279.654 29.3654 279.217 29.7654C278.833 30.1463 278.532 30.6014 278.332 31.1024C278.133 31.6034 278.04 32.1396 278.059 32.6777V46.9472C278.032 47.4744 278.116 48.0015 278.305 48.495C278.494 48.9884 278.785 49.4375 279.159 49.8137C279.559 50.1761 280.028 50.4559 280.539 50.637C281.05 50.8181 281.591 50.8968 282.133 50.8686C283.772 50.8686 284.968 50.5055 285.721 49.7793C286.122 49.3642 286.432 48.8713 286.631 48.3315C286.83 47.7917 286.914 47.2169 286.878 46.6433V43.0373L292.311 42.5901V47.5205C292.325 48.8618 292.026 50.1881 291.437 51.396C290.77 52.649 289.684 53.6337 288.365 54.1822C286.899 54.8702 284.851 55.2123 282.22 55.2084Z" fill="white"/>
<path d="M302.588 54.9569C300.952 54.9569 299.778 54.7104 299.064 54.2173C298.677 53.9106 298.36 53.5273 298.132 53.0919C297.903 52.6565 297.77 52.1787 297.739 51.6891C297.539 50.0303 297.452 48.3602 297.478 46.6899V31.5719C297.428 30.2239 297.624 28.8778 298.057 27.599C298.247 27.1158 298.538 26.6779 298.911 26.3143C299.284 25.9506 299.731 25.6694 300.221 25.4892C301.667 25 303.191 24.7822 304.717 24.8471H317.129V54.9569H311.701V29.2042H305.759C305.07 29.1518 304.38 29.2721 303.751 29.5539C303.549 29.6856 303.381 29.8608 303.258 30.0663C303.134 30.2719 303.06 30.5024 303.039 30.7407C302.941 31.501 302.899 32.2674 302.912 33.0339V46.6784C302.886 47.5371 302.952 48.3962 303.109 49.2411C303.138 49.4671 303.221 49.6833 303.349 49.8724C303.478 50.0614 303.649 50.2182 303.849 50.3303C304.375 50.5302 304.936 50.6181 305.498 50.5883H310.087L309.572 54.9454L302.588 54.9569Z" fill="white"/>
<path d="M323.344 24.7835H327.741L328.256 27.9194C328.92 26.7948 329.896 25.8832 331.068 25.2937C332.465 24.6142 334.009 24.2835 335.564 24.3306C337.979 24.3306 339.821 24.8752 341.09 25.9645C342.36 27.0537 342.996 28.7087 343 30.9293V54.9563H337.567V32.7237C337.567 31.3134 337.181 30.2986 336.409 29.6795C335.471 29.0099 334.329 28.6818 333.175 28.7507C332.169 28.6935 331.171 28.9633 330.334 29.5189C329.634 30.0464 329.097 30.7573 328.783 31.5714V54.9563H323.344V24.7835Z" fill="white"/>
<path d="M18.0535 63.9113H13.355C11.4408 63.9098 9.60545 63.1553 8.25242 61.8137C6.89939 60.4721 6.13936 58.6531 6.13936 56.7565V53.0645H0V56.7565C0.00152993 60.2664 1.40869 63.6322 3.91258 66.1152C6.41646 68.5981 9.81244 69.9952 13.355 69.9998H18.0535V63.9113Z" fill="#6970FF"/>
<path d="M25.4601 32.8729H13.3087C11.4045 32.8593 9.5828 32.101 8.2401 30.7632C6.89739 29.4254 6.14237 27.6162 6.13936 25.7296V25.1562H1.25862e-06V25.7296C-0.00153551 29.2414 1.40427 32.6102 3.90849 35.0956C6.4127 37.581 9.81043 38.9797 13.355 38.9843H25.4601C27.3708 38.9812 29.2048 39.7291 30.5596 41.064C31.9145 42.3988 32.6797 44.2116 32.6873 46.1047V56.7566C32.6834 58.6208 31.9452 60.4098 30.63 61.7429C29.3147 63.076 27.5263 63.8479 25.6453 63.8942V69.9769C29.1551 69.9317 32.5058 68.5193 34.9726 66.0452C37.4394 63.5711 38.8239 60.2343 38.8267 56.7566V46.1047C38.8221 42.5948 37.412 39.2301 34.9059 36.7494C32.3999 34.2686 29.0027 32.8744 25.4601 32.8729Z" fill="#6970FF"/>
<path d="M25.4601 0H13.3087C9.77571 0.0151521 6.39246 1.41553 3.89858 3.895C1.40469 6.37448 0.0030258 9.73135 0 13.2318L0 17.6634H6.13936V13.2318C6.14242 11.3367 6.90362 9.52003 8.25615 8.17998C9.60868 6.83993 11.4422 6.08575 13.355 6.08272H25.4601C26.4085 6.08197 27.3477 6.26628 28.2241 6.62515C29.1005 6.98402 29.897 7.5104 30.5681 8.17425C31.2392 8.83811 31.7718 9.62642 32.1354 10.4942C32.499 11.362 32.6866 12.2922 32.6873 13.2318V21.4988H38.8267V13.2318C38.8236 9.72144 37.414 6.35591 34.9076 3.8748C32.4012 1.39369 29.0032 -1.31569e-06 25.4601 0Z" fill="#6970FF"/>
<path d="M46.0423 38.9844H58.1937C60.0826 38.9902 61.8938 39.7295 63.2386 41.0436C64.5834 42.3578 65.3544 44.142 65.3862 46.0131H71.5314C71.5039 42.5217 70.0859 39.1822 67.5859 36.7214C65.0859 34.2606 61.7062 32.8775 58.1822 32.8731H46.0307C44.1205 32.8685 42.2899 32.1143 40.9397 30.7755C39.5895 29.4366 38.8297 27.6223 38.8267 25.7297V13.2318C38.8297 11.3367 39.5909 9.52003 40.9435 8.17998C42.296 6.83993 44.1295 6.08575 46.0423 6.08272H50.3416V0H46.0423C42.5013 0.00303622 39.1062 1.39807 36.6023 3.87885C34.0984 6.35963 32.6904 9.72342 32.6873 13.2318V25.7297C32.6858 29.2416 34.0916 32.6104 36.5958 35.0958C39.1 37.5812 42.4977 38.9799 46.0423 38.9844Z" fill="#6970FF"/>
<path d="M65.3862 53.5288V56.7565C65.3847 58.6506 64.6246 60.4666 63.2728 61.8059C61.921 63.1452 60.0881 63.8983 58.1764 63.8998H46.025C44.1157 63.8938 42.2866 63.1389 40.9377 61.8002C39.5887 60.4616 38.8297 58.6481 38.8267 56.7565V53.0645H32.6873V56.7565C32.6888 60.2664 34.096 63.6322 36.5999 66.1152C39.1038 68.5981 42.4998 69.9952 46.0423 69.9998H58.1937C61.7303 69.9861 65.1173 68.585 67.6137 66.1031C70.1101 63.6211 71.5125 60.2604 71.514 56.7565V53.5288H65.3862Z" fill="#6970FF"/>
<path d="M58.1648 0H57.9391V6.08272H58.1648C60.0791 6.08272 61.915 6.83574 63.2691 8.17628C64.6232 9.51683 65.3847 11.3352 65.3862 13.2318V21.4988H71.5256V13.2318C71.5225 9.72243 70.1137 6.35777 67.6086 3.87683C65.1034 1.39588 61.7068 0.00151788 58.1648 0Z" fill="#6970FF"/>
<path d="M25.2113 42.3838H13.6385C12.7821 42.3853 11.9612 42.7226 11.355 43.3221C10.7489 43.9215 10.407 44.7343 10.4039 45.5828V57.0488C10.407 57.8973 10.7489 58.7101 11.355 59.3095C11.9612 59.909 12.7821 60.2463 13.6385 60.2478H25.2113C26.0677 60.2463 26.8887 59.909 27.4948 59.3095C28.1009 58.7101 28.4428 57.8973 28.4459 57.0488V45.5828C28.4428 44.7343 28.1009 43.9215 27.4948 43.3221C26.8887 42.7226 26.0677 42.3853 25.2113 42.3838ZM21.9883 54.9448H16.8442C16.5607 54.9448 16.2887 54.834 16.0872 54.6365C15.8857 54.439 15.771 54.1708 15.7679 53.8899V48.7876C15.7679 48.5042 15.8811 48.2324 16.0828 48.0315C16.2845 47.8306 16.5582 47.717 16.8442 47.7155H21.9883C22.2743 47.717 22.548 47.8306 22.7497 48.0315C22.9514 48.2324 23.0646 48.5042 23.0646 48.7876V53.8899C23.0615 54.1708 22.9468 54.439 22.7453 54.6365C22.5438 54.834 22.2717 54.9448 21.9883 54.9448Z" fill="#FF8A90"/>
<path d="M57.9044 42.3838H46.2911C45.4347 42.3853 44.6138 42.7226 44.0076 43.3221C43.4015 43.9215 43.0596 44.7343 43.0565 45.5828V57.0488C43.0542 57.4714 43.1362 57.8902 43.2976 58.2814C43.4591 58.6725 43.6969 59.0282 43.9974 59.3281C44.2979 59.6279 44.6552 59.8661 45.0488 60.0288C45.4425 60.1916 45.8646 60.2757 46.2911 60.2765H57.8639C58.7193 60.2735 59.5388 59.9355 60.1437 59.3362C60.7485 58.7369 61.0897 57.925 61.0927 57.0775V45.6115C61.0974 44.7659 60.7652 43.9526 60.1682 43.3483C59.5713 42.744 58.7578 42.3974 57.9044 42.3838ZM54.6698 54.9448H49.5315C49.2481 54.9448 48.976 54.834 48.7745 54.6365C48.573 54.439 48.4583 54.1707 48.4552 53.8899V48.7876C48.4552 48.5042 48.5684 48.2324 48.7701 48.0315C48.9718 47.8306 49.2455 47.717 49.5315 47.7155H54.6698C54.9558 47.717 55.2295 47.8306 55.4312 48.0315C55.6329 48.2324 55.7461 48.5042 55.7461 48.7876V53.8899C55.743 54.1707 55.6283 54.439 55.4268 54.6365C55.2253 54.834 54.9533 54.9448 54.6698 54.9448Z" fill="#FF8A90"/>
<path d="M25.2113 10.7891H13.6385C12.7821 10.7906 11.9612 11.1279 11.355 11.7274C10.7489 12.3268 10.407 13.1396 10.4039 13.9881V25.4828C10.4115 26.3243 10.7523 27.1293 11.3529 27.7244C11.9535 28.3195 12.766 28.6571 13.6154 28.6646H25.1882C26.0446 28.6631 26.8655 28.3257 27.4716 27.7263C28.0777 27.1268 28.4197 26.314 28.4228 25.4656V13.9881C28.4197 13.1435 28.081 12.3342 27.4799 11.7354C26.8787 11.1366 26.0637 10.7966 25.2113 10.7891ZM21.9883 23.3501H16.8442C16.5587 23.3501 16.285 23.2377 16.0831 23.0378C15.8813 22.8378 15.7679 22.5666 15.7679 22.2837V17.1986C15.7679 16.9152 15.8811 16.6434 16.0828 16.4425C16.2845 16.2416 16.5582 16.128 16.8442 16.1265H21.9883C22.2733 16.1295 22.5455 16.2438 22.7459 16.4445C22.9464 16.6452 23.0588 16.9162 23.0588 17.1986V22.2895C23.0573 22.5703 22.944 22.8392 22.7436 23.0378C22.5431 23.2363 22.2717 23.3486 21.9883 23.3501Z" fill="#FF8A90"/>
<path d="M57.9044 10.7891H46.2911C45.4347 10.7906 44.6138 11.1279 44.0077 11.7274C43.4016 12.3268 43.0596 13.1396 43.0565 13.9881V25.4828C43.0642 26.3283 43.4081 27.1367 44.0137 27.7324C44.6194 28.3281 45.4377 28.6631 46.2911 28.6646H57.8639C58.7193 28.6616 59.5388 28.3235 60.1437 27.7243C60.7485 27.125 61.0897 26.3131 61.0927 25.4656V13.9881C61.0898 13.1475 60.7542 12.3415 60.1581 11.7434C59.5619 11.1452 58.7528 10.8026 57.9044 10.7891ZM54.6698 23.3501H49.5315C49.2461 23.3501 48.9723 23.2377 48.7705 23.0378C48.5686 22.8378 48.4553 22.5666 48.4553 22.2837V17.1986C48.4552 16.9152 48.5685 16.6434 48.7701 16.4425C48.9718 16.2416 49.2455 16.128 49.5315 16.1265H54.6698C54.9558 16.128 55.2296 16.2416 55.4312 16.4425C55.6329 16.6434 55.7461 16.9152 55.7461 17.1986V22.2895C55.7446 22.5713 55.6305 22.841 55.4288 23.0398C55.2272 23.2385 54.9543 23.3501 54.6698 23.3501Z" fill="#FF8A90"/>
</svg>
