<svg width="30" height="30" viewBox="0 0 30 30" fill="none" xmlns="http://www.w3.org/2000/svg">
<path fill-rule="evenodd" clip-rule="evenodd" d="M1.152 10.518C0.519 10.518 0.0045 10.0035 0.0045 9.3705C0 3.588 3.588 0 9.366 0H20.6205C26.412 0 30 3.588 30 9.366V20.616C30 26.4105 26.412 30 20.6205 30H9.3705C3.615 30 0 26.4105 0 20.6205L0 16.767C0 16.1415 0.5085 15.633 1.134 15.633H1.1475V15.6585C1.7805 15.6585 2.2935 16.1715 2.295 16.8045V16.8075L2.295 20.6205C2.295 25.2 4.8 27.705 9.366 27.705H20.616C25.185 27.705 27.705 25.185 27.705 20.6205V9.3705C27.705 4.8195 25.185 2.2995 20.6205 2.2995H9.3705C4.806 2.2995 2.2995 4.8195 2.2995 9.3705C2.2995 10.0035 1.785 10.518 1.152 10.518ZM8.87288 16.1257H18.4069L14.6914 19.8262C14.2504 20.2642 14.2489 20.9752 14.6884 21.4162C15.1264 21.8587 15.8389 21.8557 16.2784 21.4192L21.9244 15.7972C21.9249 15.7972 21.9252 15.7972 21.9254 15.7971C21.9255 15.7971 21.9256 15.7971 21.9257 15.797C21.9258 15.7969 21.9259 15.7967 21.9259 15.7963C21.9259 15.7962 21.9259 15.7959 21.9259 15.7957C22.0294 15.6937 22.1119 15.5692 22.1689 15.4312C22.2259 15.2947 22.2559 15.1492 22.2559 15.0022V15.0007C22.2559 14.9902 22.2533 14.9815 22.2506 14.9726C22.2484 14.9649 22.2461 14.9572 22.2454 14.9482C22.2394 14.8207 22.2184 14.6932 22.1689 14.5717C22.1179 14.4487 22.0414 14.3407 21.9529 14.2417C21.948 14.2368 21.9448 14.2313 21.9415 14.2258C21.9377 14.2193 21.9338 14.2128 21.9274 14.2072C21.8239 14.1022 21.6994 14.0197 21.5629 13.9627C21.4234 13.9057 21.2794 13.8757 21.1309 13.8757H8.87288C8.25188 13.8757 7.74788 14.3797 7.74788 15.0007C7.74788 15.6217 8.25188 16.1257 8.87288 16.1257ZM18.2018 10.5006L16.2758 8.58356C16.0553 8.36456 15.7688 8.25506 15.4823 8.25506C15.1928 8.25506 14.9048 8.36456 14.6828 8.58656C14.2448 9.02756 14.2463 9.73856 14.6873 10.1766L16.6133 12.0936C17.0543 12.5316 17.7653 12.5316 18.2048 12.0921C18.6428 11.6511 18.6413 10.9386 18.2018 10.5006Z" fill="white"/>
</svg>
