<svg width="60" height="60" viewBox="0 0 60 60" fill="none" xmlns="http://www.w3.org/2000/svg">
<rect width="60" height="60" rx="10" fill="#6970FF" fill-opacity="0.1"/>
<path fill-rule="evenodd" clip-rule="evenodd" d="M40 32.5V38.75C40 39.7445 39.6049 40.6984 38.9017 41.4016C38.1984 42.1049 37.2446 42.5 36.25 42.5H23.75C22.7554 42.5 21.8016 42.1049 21.0984 41.4016C20.3951 40.6984 20 39.7445 20 38.75V32.5H40ZM30 18.75C31.6625 18.75 33.23 19.155 34.6088 19.8737L35.3663 19.1162C35.4816 18.9968 35.6195 18.9016 35.772 18.8361C35.9245 18.7706 36.0885 18.7361 36.2545 18.7347C36.4205 18.7332 36.5851 18.7649 36.7387 18.8277C36.8923 18.8906 37.0319 18.9834 37.1493 19.1007C37.2666 19.2181 37.3594 19.3577 37.4223 19.5113C37.4851 19.6649 37.5168 19.8295 37.5153 19.9955C37.5139 20.1615 37.4794 20.3255 37.4139 20.478C37.3484 20.6305 37.2531 20.7684 37.1338 20.8837L36.6963 21.3212C37.7377 22.2581 38.5701 23.4038 39.1393 24.6837C39.7086 25.9637 40.0018 27.3492 40 28.75V30H20V28.75C19.9985 27.3493 20.2921 25.964 20.8615 24.6843C21.4309 23.4045 22.2635 22.2591 23.305 21.3225L22.8663 20.885C22.6317 20.6506 22.4999 20.3326 22.4998 20.001C22.4996 19.6695 22.6312 19.3514 22.8656 19.1169C23.1 18.8823 23.418 18.7505 23.7496 18.7504C24.0812 18.7502 24.3992 18.8818 24.6338 19.1162L25.3913 19.8737C26.8151 19.1349 28.3959 18.7495 30 18.75ZM26.25 23.75C25.9185 23.75 25.6005 23.8817 25.3661 24.1161C25.1317 24.3505 25 24.6685 25 25C25 25.3315 25.1317 25.6494 25.3661 25.8839C25.6005 26.1183 25.9185 26.25 26.25 26.25C26.5815 26.25 26.8995 26.1183 27.1339 25.8839C27.3683 25.6494 27.5 25.3315 27.5 25C27.5 24.6685 27.3683 24.3505 27.1339 24.1161C26.8995 23.8817 26.5815 23.75 26.25 23.75ZM33.75 23.75C33.4185 23.75 33.1005 23.8817 32.8661 24.1161C32.6317 24.3505 32.5 24.6685 32.5 25C32.5 25.3315 32.6317 25.6494 32.8661 25.8839C33.1005 26.1183 33.4185 26.25 33.75 26.25C34.0815 26.25 34.3995 26.1183 34.6339 25.8839C34.8683 25.6494 35 25.3315 35 25C35 24.6685 34.8683 24.3505 34.6339 24.1161C34.3995 23.8817 34.0815 23.75 33.75 23.75Z" fill="black"/>
</svg>
