<svg width="827" height="818" viewBox="0 0 827 818" fill="none" xmlns="http://www.w3.org/2000/svg">
<g clip-path="url(#clip0_201_4256)">
<path d="M413.5 818C641.87 818 827 722.227 827 604.086C827 485.944 641.87 390.171 413.5 390.171C185.13 390.171 0 485.944 0 604.086C0 722.227 185.13 818 413.5 818Z" fill="#F5F5F5"/>
<path d="M164.849 53.9945L149.018 63.1083C149.018 62.4204 149.19 61.7326 149.19 61.0448V56.4019C149.19 48.3199 143.511 45.0528 136.456 49.0078C133.531 50.7273 130.95 53.3067 128.885 56.4019C127.68 46.2565 119.765 42.3014 109.956 47.976C99.4596 53.9945 90.8558 68.7828 90.8558 80.9918V87.8701C90.8558 90.9653 91.372 93.7166 92.4044 95.7801L79.3266 103.346C75.3689 105.582 72.2715 111.084 72.2715 115.555C72.2715 120.026 75.3689 121.918 79.3266 119.682L164.849 70.3305C168.806 68.095 171.904 62.5924 171.904 58.1215C172.076 53.4787 168.806 51.5871 164.849 53.9945Z" fill="white"/>
<path d="M240.906 88.042L229.033 94.9203C229.033 94.4044 229.205 93.8886 229.205 93.3727V89.9335C229.205 83.7431 224.903 81.3357 219.569 84.4309C217.332 85.6346 215.439 87.6981 213.89 89.9335C213.03 82.1955 207.007 79.2722 199.608 83.5711C191.692 88.214 185.153 99.3912 185.153 108.505V113.664C185.153 116.071 185.669 117.963 186.358 119.682L176.377 125.357C173.452 127.076 171.043 131.203 171.043 134.642C171.043 138.082 173.452 139.457 176.377 137.738L240.906 100.423C243.831 98.7034 246.24 94.5764 246.24 91.1372C246.24 87.8701 243.831 86.3225 240.906 88.042Z" fill="white"/>
<path d="M667.484 719.469C714.337 719.469 752.318 697.527 752.318 670.461C752.318 643.395 714.337 621.453 667.484 621.453C620.632 621.453 582.65 643.395 582.65 670.461C582.65 697.527 620.632 719.469 667.484 719.469Z" fill="#E0E0E0"/>
<path d="M119.076 718.093L43.8788 674.588C39.5769 672.18 39.5769 668.225 43.8788 665.646L465.122 423.015C469.424 420.607 476.307 420.607 480.437 423.015L555.634 466.52C559.936 468.927 559.936 472.882 555.634 475.461L134.563 718.093C130.261 720.5 123.378 720.5 119.076 718.093Z" fill="#E0E0E0"/>
<path d="M523.457 563.332L514.165 558.001C493 545.792 459.445 545.104 439.312 556.625L404.38 576.744C403.176 577.432 402.66 578.98 403.52 580.183C404.208 581.387 405.757 581.903 406.962 581.043L441.893 560.924C460.477 550.263 491.623 550.779 511.584 562.3L520.876 567.63C529.996 572.961 534.987 579.667 534.987 586.89C534.987 594.112 529.996 600.818 520.876 606.149L392.679 680.09C372.89 691.612 340.54 691.612 320.751 680.09L283.411 658.596C262.073 646.387 227.486 646.387 206.32 658.596L197.028 663.926C185.843 670.461 179.648 679.059 179.648 688.172C179.648 696.598 184.983 704.336 194.791 710.011L228.174 729.27L214.408 737.352C208.213 741.135 208.213 746.982 214.408 750.765L239.531 765.209C240.564 765.725 240.564 766.757 239.531 767.273L237.466 768.476C236.434 768.992 236.434 770.024 237.466 770.54L240.736 772.431C241.768 772.947 243.489 772.947 244.521 772.431L255.878 765.897C256.911 765.381 258.632 765.381 259.664 765.897L280.485 777.934C281.518 778.45 283.239 778.45 284.271 777.934L287.54 776.042C288.573 775.527 288.573 774.495 287.54 773.979L266.719 761.942C265.687 761.426 265.687 760.394 266.719 759.707L274.635 755.064C275.667 754.548 277.388 754.548 278.42 755.064L299.242 767.101C300.274 767.617 301.995 767.617 303.027 767.101L306.297 765.209C307.329 764.693 307.329 763.662 306.297 762.974L285.476 750.937C284.443 750.421 284.443 749.389 285.476 748.701L295.8 742.855C296.833 742.339 296.833 741.307 295.8 740.791L292.531 738.9C291.498 738.384 289.777 738.384 288.745 738.9L285.476 740.791C284.443 741.307 282.722 741.307 281.69 740.791L249.512 722.908C246.758 721.36 242.112 721.36 239.187 722.908L232.82 726.691C232.648 726.347 232.304 726.175 231.96 726.003L197.028 705.884C188.941 701.241 184.467 695.051 184.467 688.516C184.467 681.294 189.801 674.072 199.265 668.741L208.557 663.411C228.346 651.889 260.697 651.889 280.485 663.411L317.826 684.905C339.163 697.114 373.751 697.114 394.916 684.905L523.113 610.964C533.954 604.773 539.805 596.347 539.805 587.234C540.149 577.948 534.126 569.522 523.457 563.332Z" fill="#E0E0E0"/>
<path d="M698.975 668.225C698.287 635.038 711.365 605.117 722.55 590.329C733.735 575.541 752.491 561.096 765.397 565.223C777.442 569.006 776.582 584.826 762.299 595.66C748.017 606.493 726.508 620.249 720.485 638.305L706.03 671.837L698.975 668.225Z" fill="#FFC600"/>
<path opacity="0.15" d="M698.975 668.225C698.287 635.038 711.365 605.117 722.55 590.329C733.735 575.541 752.491 561.096 765.397 565.223C777.442 569.006 776.582 584.826 762.299 595.66C748.017 606.493 726.508 620.249 720.485 638.305L706.03 671.837L698.975 668.225Z" fill="black"/>
<path d="M702.933 664.958C703.277 664.958 703.621 664.614 703.621 664.27C706.718 645.871 712.913 624.72 723.41 608.04C734.595 590.157 751.114 578.98 760.406 575.197C760.75 575.025 761.095 574.509 760.922 574.165C760.75 573.821 760.234 573.477 759.89 573.649C750.254 577.604 733.39 588.953 721.861 607.353C711.364 624.204 705.17 645.355 702.072 663.926C702.072 664.442 702.244 664.786 702.761 664.786C702.761 664.958 702.761 664.958 702.933 664.958Z" fill="white"/>
<path d="M711.02 675.448C712.569 669.085 719.968 658.596 732.185 649.826C745.607 640.025 762.815 635.21 766.601 627.816C771.075 618.874 763.503 610.792 749.565 612.855C735.627 614.919 709.299 635.21 703.965 671.321L711.02 675.448Z" fill="#FFC600"/>
<path d="M708.095 668.913C708.44 668.913 708.612 668.742 708.784 668.398C719.625 635.554 744.059 623.517 755.589 621.625C756.105 621.625 756.277 621.109 756.277 620.765C756.277 620.25 755.761 620.078 755.416 620.078C742.683 622.141 718.42 634.35 707.407 667.882C707.235 668.226 707.579 668.741 707.923 668.913C707.751 668.913 707.923 668.913 708.095 668.913Z" fill="white"/>
<path d="M405.584 571.07C405.584 571.07 421.243 562.128 440.515 550.951C459.788 539.774 492.138 540.461 512.787 552.326L522.08 557.657C542.729 569.522 542.729 588.781 522.08 600.646L393.882 674.588C373.233 686.453 340.023 686.453 319.373 674.588L282.033 653.093C261.384 641.228 228.173 641.228 207.524 653.093L198.231 658.424C177.582 670.289 176.55 688.86 195.994 700.038L230.926 720.157" stroke="#37474F" stroke-width="3" stroke-miterlimit="10" stroke-linecap="round" stroke-linejoin="round"/>
<path d="M209.072 728.411V731.334C209.072 736.149 212.342 741.823 216.472 744.231L244.004 760.051L271.88 743.887V719.641L244.692 707.088C240.39 705.024 233.507 705.368 229.377 707.776L216.299 715.342C212.514 717.921 209.072 723.596 209.072 728.411Z" fill="#37474F"/>
<path d="M244.864 707.26C240.562 705.196 233.679 705.54 229.549 707.948L216.471 715.514C212.341 717.921 212.514 721.36 216.815 723.424L244.004 735.977L272.052 719.813L244.864 707.26Z" fill="#455A64"/>
<path opacity="0.1" d="M241.422 730.13C239.357 731.334 237.637 734.257 237.637 736.664V756.611L244.004 760.223L271.88 744.059V719.813L264.825 716.545L241.422 730.13Z" fill="black"/>
<path d="M274.462 715.686C273.773 715.342 272.913 715.342 271.88 716.03L244.348 731.85C242.283 733.053 240.562 735.977 240.562 738.384V762.114C240.562 763.318 240.907 764.178 241.595 764.521C242.283 764.865 244.52 766.241 245.036 766.585C245.725 766.929 246.585 766.929 247.618 766.413L275.15 750.593C277.215 749.389 278.936 746.466 278.936 744.059V720.328C278.936 719.125 278.591 718.265 277.903 717.921C277.215 717.233 274.978 716.03 274.462 715.686Z" fill="#37474F"/>
<path d="M247.79 733.741L275.322 717.921C277.387 716.717 279.108 717.749 279.108 720.157V743.887C279.108 746.294 277.387 749.217 275.322 750.421L247.79 766.241C245.725 767.445 244.004 766.413 244.004 764.006V740.276C244.004 737.868 245.725 734.945 247.79 733.741Z" fill="#455A64"/>
<path d="M276.182 751.625L253.468 738.556L251.059 739.932V756.096L273.773 769.164C275.149 770.024 276.526 770.024 277.386 769.508C277.73 769.336 279.451 768.305 279.795 768.133C280.656 767.617 281.344 766.413 281.344 764.693V760.566C281.516 757.299 279.107 753.344 276.182 751.625ZM272.052 755.924C273.945 756.955 275.493 759.707 275.493 761.942C275.493 762.286 275.493 762.63 275.321 762.974C274.977 762.974 274.805 762.802 274.461 762.63C272.568 761.598 271.019 758.847 271.019 756.611C271.019 756.267 271.019 755.924 271.192 755.58C271.536 755.58 271.708 755.752 272.052 755.924Z" fill="#FFC600"/>
<path opacity="0.85" d="M276.182 751.625L253.468 738.556L251.059 739.932L273.773 753C276.698 754.72 278.935 758.675 278.935 762.114V766.241C278.935 767.961 278.247 769.164 277.386 769.68C277.386 769.68 277.386 769.68 277.558 769.68C278.075 769.336 279.623 768.476 279.967 768.304C281 767.789 281.516 766.585 281.516 764.865V760.738C281.516 757.299 279.107 753.344 276.182 751.625Z" fill="white"/>
<path d="M281.517 760.738V764.865C281.517 766.585 281 767.617 279.968 768.304C279.624 768.476 277.903 769.508 277.559 769.68C277.559 769.68 277.559 769.68 277.387 769.68C278.419 769.164 278.935 767.961 278.935 766.241V762.114C278.935 760.394 278.419 758.675 277.387 756.955L279.796 755.58C280.828 757.127 281.517 759.019 281.517 760.738Z" fill="#FFC600"/>
<path opacity="0.6" d="M281.517 760.738V764.865C281.517 766.585 281 767.617 279.968 768.304C279.624 768.476 277.903 769.508 277.559 769.68C277.559 769.68 277.559 769.68 277.387 769.68C278.419 769.164 278.935 767.961 278.935 766.241V762.114C278.935 760.394 278.419 758.675 277.387 756.955L279.796 755.58C280.828 757.127 281.517 759.019 281.517 760.738Z" fill="white"/>
<path opacity="0.05" d="M281.517 760.738V764.865C281.517 766.585 281 767.617 279.968 768.304C279.624 768.476 277.903 769.508 277.559 769.68C277.559 769.68 277.559 769.68 277.387 769.68C278.419 769.164 278.935 767.961 278.935 766.241V762.114C278.935 760.394 278.419 758.675 277.387 756.955L279.796 755.58C280.828 757.127 281.517 759.019 281.517 760.738Z" fill="black"/>
<path opacity="0.6" d="M271.02 756.611C271.02 756.267 271.02 755.923 271.192 755.58C269.644 755.236 268.611 756.095 268.611 757.987C268.611 760.222 270.16 762.974 272.053 764.005C273.602 765.037 274.978 764.521 275.494 762.974C275.15 762.974 274.978 762.802 274.634 762.63C272.569 761.426 271.02 758.847 271.02 756.611Z" fill="white"/>
<path opacity="0.1" d="M271.02 756.611C271.02 756.267 271.02 755.923 271.192 755.58C269.644 755.236 268.611 756.095 268.611 757.987C268.611 760.222 270.16 762.974 272.053 764.005C273.602 765.037 274.978 764.521 275.494 762.974C275.15 762.974 274.978 762.802 274.634 762.63C272.569 761.426 271.02 758.847 271.02 756.611Z" fill="black"/>
<path opacity="0.7" d="M273.773 753L251.059 739.932V756.096L273.773 769.164C276.698 770.884 278.935 769.508 278.935 766.069V761.942C278.935 758.847 276.698 754.72 273.773 753ZM272.052 764.006C270.159 762.974 268.61 760.223 268.61 757.987C268.61 755.752 270.159 754.892 272.052 755.924C273.945 756.955 275.493 759.707 275.493 761.942C275.666 764.178 273.945 765.209 272.052 764.006Z" fill="white"/>
<path d="M294.766 740.963L272.052 727.895L269.643 729.27V745.434L292.357 758.503C293.733 759.363 295.11 759.363 295.97 758.847C296.314 758.675 298.035 757.643 298.379 757.471C299.24 756.955 299.928 755.752 299.928 754.032V749.905C299.928 746.638 297.691 742.683 294.766 740.963ZM290.636 745.262C292.529 746.294 294.077 749.045 294.077 751.281C294.077 751.625 294.077 751.969 293.905 752.312C293.561 752.312 293.389 752.14 293.045 751.969C291.152 750.937 289.603 748.185 289.603 745.95C289.603 745.606 289.603 745.262 289.776 744.918C289.948 744.918 290.292 745.09 290.636 745.262Z" fill="#FFC600"/>
<path opacity="0.85" d="M294.766 740.963L272.052 727.895L269.643 729.27L292.357 742.339C295.282 744.059 297.519 748.014 297.519 751.453V755.58C297.519 757.299 296.831 758.503 295.97 759.019C295.97 759.019 295.97 759.019 296.142 759.019C296.659 758.847 298.207 757.815 298.551 757.643C299.584 757.127 300.1 755.924 300.1 754.204V750.077C299.928 746.638 297.691 742.683 294.766 740.963Z" fill="white"/>
<path d="M299.929 750.077V754.204C299.929 755.923 299.412 756.955 298.38 757.643C298.036 757.815 296.315 758.847 295.971 759.019C295.971 759.019 295.971 759.019 295.799 759.019C296.831 758.503 297.348 757.299 297.348 755.58V751.453C297.348 749.733 296.831 748.013 295.799 746.294L298.208 744.918C299.412 746.466 299.929 748.357 299.929 750.077Z" fill="#FFC600"/>
<path opacity="0.6" d="M299.929 750.077V754.204C299.929 755.923 299.412 756.955 298.38 757.643C298.036 757.815 296.315 758.847 295.971 759.019C295.971 759.019 295.971 759.019 295.799 759.019C296.831 758.503 297.348 757.299 297.348 755.58V751.453C297.348 749.733 296.831 748.013 295.799 746.294L298.208 744.918C299.412 746.466 299.929 748.357 299.929 750.077Z" fill="white"/>
<path opacity="0.05" d="M299.929 750.077V754.204C299.929 755.923 299.412 756.955 298.38 757.643C298.036 757.815 296.315 758.847 295.971 759.019C295.971 759.019 295.971 759.019 295.799 759.019C296.831 758.503 297.348 757.299 297.348 755.58V751.453C297.348 749.733 296.831 748.013 295.799 746.294L298.208 744.918C299.412 746.466 299.929 748.357 299.929 750.077Z" fill="black"/>
<path opacity="0.6" d="M289.604 745.95C289.604 745.606 289.604 745.262 289.776 744.918C288.228 744.575 287.195 745.434 287.195 747.326C287.195 749.561 288.744 752.313 290.637 753.344C292.186 754.376 293.562 753.86 294.078 752.313C293.734 752.313 293.562 752.141 293.218 751.969C291.153 750.765 289.604 748.186 289.604 745.95Z" fill="white"/>
<path opacity="0.1" d="M289.604 745.95C289.604 745.606 289.604 745.262 289.776 744.918C288.228 744.575 287.195 745.434 287.195 747.326C287.195 749.561 288.744 752.313 290.637 753.344C292.186 754.376 293.562 753.86 294.078 752.313C293.734 752.313 293.562 752.141 293.218 751.969C291.153 750.765 289.604 748.186 289.604 745.95Z" fill="black"/>
<path opacity="0.7" d="M292.357 742.339L269.643 729.27V745.434L292.357 758.503C295.282 760.223 297.519 758.847 297.519 755.408V751.281C297.519 748.186 295.11 744.059 292.357 742.339ZM290.636 753.344C288.743 752.313 287.194 749.561 287.194 747.326C287.194 745.09 288.743 744.231 290.636 745.262C292.529 746.294 294.077 749.045 294.077 751.281C294.077 753.516 292.529 754.548 290.636 753.344Z" fill="white"/>
<path d="M373.063 650.686L437.763 613.371C444.474 609.588 447.744 604.429 447.744 599.443C447.744 594.456 447.744 590.501 447.744 590.501L380.634 552.67C377.02 550.607 374.267 545.62 374.267 541.493V461.705L261.213 527.049V606.837C261.213 610.964 264.138 615.951 267.58 618.014L324.709 650.858C338.131 658.252 359.813 658.252 373.063 650.686Z" fill="#FFC600"/>
<g opacity="0.6">
<path d="M373.063 650.686L437.763 613.371C444.474 609.588 447.744 604.429 447.744 599.443C447.744 594.456 447.744 590.501 447.744 590.501L380.634 552.67C377.02 550.607 374.267 545.62 374.267 541.493V461.705L261.213 527.049V606.837C261.213 610.964 264.138 615.951 267.58 618.014L324.709 650.858C338.131 658.252 359.813 658.252 373.063 650.686Z" fill="black"/>
</g>
<path opacity="0.3" d="M288.401 620.765V629.707L267.752 617.842C264.138 615.779 261.385 610.792 261.385 606.665V526.877L282.894 514.496C283.411 519.998 283.755 525.673 284.271 531.176L269.128 539.945V602.194C269.128 606.321 272.054 611.308 275.495 613.371L288.401 620.765Z" fill="black"/>
<path d="M268.957 602.022C268.957 606.149 271.882 611.136 275.324 613.199L324.71 641.572C338.132 649.31 359.641 649.31 373.063 641.572L437.764 604.257C451.186 596.519 451.186 584.139 437.764 576.4L388.378 548.028C384.765 545.964 382.011 540.977 382.011 536.85V474.602L268.957 539.946V602.022Z" fill="#FFC600"/>
<path opacity="0.3" d="M268.957 602.022C268.957 606.149 271.882 611.136 275.324 613.199L324.71 641.572C338.132 649.31 359.641 649.31 373.063 641.572L437.764 604.257C451.186 596.519 451.186 584.139 437.764 576.4L388.378 548.028C384.765 545.964 382.011 540.977 382.011 536.85V474.602L268.957 539.946V602.022Z" fill="black"/>
<path opacity="0.5" d="M401.628 555.594L388.55 548.028C384.936 545.964 382.183 540.977 382.183 536.85V474.602L269.129 539.946V602.194C269.129 606.321 272.054 611.308 275.496 613.371L288.402 620.765L401.628 555.594Z" fill="black"/>
<path d="M447.743 590.329C447.743 590.329 447.743 594.284 447.743 599.271C447.743 604.258 444.474 609.416 437.763 613.199L373.062 650.514C366.695 654.297 358.436 656.017 350.004 656.189V647.247C358.436 647.075 366.695 645.183 373.062 641.572L437.763 604.086C444.474 600.475 447.743 595.316 447.743 590.329Z" fill="#FFC600"/>
<path opacity="0.5" d="M447.743 590.329C447.743 590.329 447.743 594.284 447.743 599.271C447.743 604.258 444.474 609.416 437.763 613.199L373.062 650.514C366.695 654.297 358.436 656.017 350.004 656.189V647.247C358.436 647.075 366.695 645.183 373.062 641.572L437.763 604.086C444.474 600.475 447.743 595.316 447.743 590.329Z" fill="black"/>
<path d="M87.587 679.575C91.7168 681.982 98.772 681.81 103.246 679.231C158.827 647.247 484.74 459.126 540.32 426.97C544.794 424.39 548.408 418.2 548.408 419.919V22.1826C548.408 10.1456 544.966 4.12708 540.837 1.71968C536.707 -0.687721 529.652 -0.515764 525.178 2.06359L88.1032 254.325C83.6292 256.904 80.0156 263.094 80.0156 268.253V665.99C80.0156 670.977 83.2851 677.167 87.587 679.575Z" fill="#FFC600"/>
<path d="M103.074 679.231L540.148 426.97C544.622 424.39 548.236 418.2 548.236 419.919V22.1825C548.236 10.1455 544.622 8.08198 540.148 10.6613L103.074 262.922C98.5999 265.502 94.9863 271.692 94.9863 276.851V674.588C95.1584 679.746 98.5999 681.81 103.074 679.231Z" fill="#FFC600"/>
<path opacity="0.5" d="M103.074 679.231L540.148 426.97C544.622 424.39 548.236 418.2 548.236 419.919V22.1825C548.236 10.1455 544.622 8.08198 540.148 10.6613L103.074 262.922C98.5999 265.502 94.9863 271.692 94.9863 276.851V674.588C95.1584 679.746 98.5999 681.81 103.074 679.231Z" fill="black"/>
<path d="M101.87 688.344C97.3956 690.236 91.2008 690.236 87.4151 688.001C83.2853 685.593 79.8438 679.575 79.8438 674.244V648.966L94.9865 657.736V683.014C94.9865 687.829 98.0839 689.892 101.87 688.344Z" fill="#FFC600"/>
<path opacity="0.5" d="M101.87 688.344C97.3956 690.236 91.2008 690.236 87.4151 688.001C83.2853 685.593 79.8438 679.575 79.8438 674.244V648.966L94.9865 657.736V683.014C94.9865 687.829 98.0839 689.892 101.87 688.344Z" fill="black"/>
<path d="M94.9863 657.908V683.186C94.9863 688.345 98.5999 690.408 103.074 687.829L540.148 435.568C544.622 432.988 548.236 426.798 548.236 421.639V396.361L94.9863 657.908Z" fill="#FFC600"/>
<path opacity="0.3" d="M95.1582 657.736V683.014C95.1582 688.172 98.7718 690.236 103.246 687.657L540.32 435.395C544.794 432.816 548.408 426.626 548.408 421.467V396.189L95.1582 657.736Z" fill="black"/>
<path d="M110.129 626.096V281.838C110.129 278.743 112.366 274.96 114.947 273.412L528.275 35.0794C531.028 33.5318 533.093 34.7355 533.093 37.8307V382.089C533.093 385.184 530.856 388.967 528.275 390.515L114.947 628.847C112.366 630.395 110.129 629.191 110.129 626.096Z" fill="#FFC600"/>
<path d="M110.129 626.096V281.838C110.129 278.743 112.366 274.96 114.947 273.412L528.275 35.0794C531.028 33.5318 533.093 34.7355 533.093 37.8307V382.089C533.093 385.184 530.856 388.967 528.275 390.515L114.947 628.847C112.366 630.395 110.129 629.191 110.129 626.096Z" fill="#263238"/>
<path opacity="0.7" d="M97.3956 268.941C96.0189 271.52 94.9865 274.272 94.9865 276.851V657.908L79.8438 649.138V268.081C79.8438 265.502 80.7041 262.579 82.2528 260.171L97.3956 268.941Z" fill="black"/>
<path opacity="0.3" d="M548.237 14.1006C547.721 9.97362 544.279 8.42601 540.322 10.8334L103.247 263.094C101.01 264.298 99.1172 266.534 97.5685 269.113L82.4258 260.343C83.9745 257.936 85.8673 255.7 88.1043 254.325L525.179 2.06359C529.653 -0.515764 536.536 -0.687721 540.838 1.71968C544.623 3.95512 547.721 9.28579 548.237 14.1006Z" fill="black"/>
<path d="M151.771 647.075C151.771 647.075 150.739 647.763 148.674 648.106C146.953 648.278 145.232 647.934 144.028 647.247C141.963 646.043 140.242 642.948 140.242 640.368V328.094L147.814 332.393V644.839C147.814 646.731 148.674 647.763 150.051 647.763C150.051 647.591 150.911 647.591 151.771 647.075Z" fill="#F0F0F0"/>
<path d="M149.879 646.731C148.674 646.731 148.502 645.355 148.502 644.839V306.944L158.999 300.925C160.375 300.237 161.408 296.798 163.473 289.404C164.505 285.449 166.226 279.602 167.086 278.915L262.589 223.716C263.449 224.06 265.17 227.327 266.202 229.219C268.611 233.346 269.988 235.581 271.537 235.581C271.881 235.581 272.053 235.581 272.225 235.409L566.132 66.0317V402.724C566.132 404.959 564.583 407.71 562.518 408.914L151.255 646.215C150.739 646.559 150.223 646.731 149.879 646.731Z" fill="#FAFAFA"/>
<path d="M565.271 67.5794V90.4497V402.724C565.271 404.615 563.894 407.195 562.173 408.054L150.738 645.527C150.222 645.871 150.05 645.871 149.878 645.871C149.534 645.871 149.534 644.839 149.534 644.839V307.46L159.686 301.613C161.235 300.753 162.267 297.486 164.504 289.576C165.537 285.965 167.085 280.634 167.774 279.603L262.588 224.92C263.448 225.78 264.825 228.187 265.685 229.735C268.266 234.206 269.643 236.613 271.88 236.613C272.224 236.613 272.74 236.441 273.085 236.269L565.271 67.5794ZM567.164 64.4841L272.052 234.722C271.88 234.722 271.88 234.722 271.708 234.722C269.471 234.722 264.997 222.685 262.588 222.685C262.416 222.685 262.416 222.685 262.244 222.685L166.569 277.883C164.332 279.087 160.719 298.518 158.482 299.893L147.469 306.256V644.839C147.469 646.731 148.329 647.763 149.706 647.763C150.222 647.763 150.91 647.591 151.427 647.247L562.862 409.774C565.099 408.57 566.819 405.303 566.819 402.896V90.4497V64.4841H567.164Z" fill="#E0E0E0"/>
<path d="M143.856 318.809C141.791 317.605 140.07 314.51 140.07 311.93V280.634C140.07 278.055 141.791 274.96 144.028 273.756L555.635 36.2831C557.872 35.0794 561.314 34.9075 563.379 36.1112C565.444 37.3149 567.164 40.4101 567.164 42.9895V74.2857C567.164 76.865 565.444 79.9602 563.207 81.1639L151.772 318.637C149.535 319.84 146.093 320.012 143.856 318.809Z" fill="#FFC600"/>
<path opacity="0.4" d="M567.165 42.3016C566.821 40.2382 565.272 39.5503 563.207 40.5821L151.772 278.055C150.739 278.743 149.707 279.774 149.019 280.978L141.447 276.679C142.136 275.475 143.168 274.272 144.201 273.756L555.636 36.2831C557.873 35.0794 561.314 34.9075 563.379 36.1112C565.272 37.3149 566.821 39.8942 567.165 42.3016Z" fill="white"/>
<path opacity="0.1" d="M148.846 281.15C148.158 282.354 147.642 283.901 147.642 285.105V332.565L140.07 328.266V280.806C140.07 280.634 140.07 280.462 140.07 280.29C140.07 279.946 140.07 279.602 140.242 279.258C140.414 278.399 140.759 277.539 141.275 276.851L148.846 281.15Z" fill="black"/>
<path d="M567.165 42.9894V64.484L272.054 234.722C269.817 235.925 268.096 234.893 268.096 232.486V224.404C268.096 221.825 266.375 220.793 264.138 222.169L166.915 278.227C164.678 279.43 162.957 282.698 162.957 285.105V293.187C162.957 295.766 161.236 298.862 158.999 300.065L147.986 306.428V284.933C147.986 282.354 149.707 279.258 151.944 278.055L563.207 40.7539C565.272 39.3783 567.165 40.41 567.165 42.9894Z" fill="#FFC600"/>
<path d="M548.408 56.4022C551.161 54.8546 553.398 56.0583 553.398 59.3255C553.398 62.5927 551.161 66.3757 548.408 68.0953C545.655 69.6429 543.418 68.4392 543.418 65.172C543.245 61.9049 545.482 58.1218 548.408 56.4022Z" fill="white"/>
<path d="M530.168 66.8917C532.921 65.3441 535.158 66.5478 535.158 69.815C535.158 73.0822 532.921 76.8652 530.168 78.5848C527.415 80.1324 525.178 78.9287 525.178 75.6615C525.178 72.3944 527.415 68.4393 530.168 66.8917Z" fill="white"/>
<path d="M511.928 77.381C514.681 75.8334 516.918 77.0371 516.918 80.3043C516.918 83.5714 514.681 87.3545 511.928 89.0741C509.174 90.6217 506.938 89.418 506.938 86.1508C506.938 82.8836 509.174 78.9286 511.928 77.381Z" fill="white"/>
<path d="M567.163 64.4841V90.6216L147.641 332.565V306.428L155.9 301.613C158.137 300.409 158.826 298.346 159.858 294.735L162.611 285.105C163.472 281.666 164.332 279.431 166.569 278.227L262.244 223.029C264.481 221.825 266.201 221.653 267.922 224.404L271.364 230.595C272.568 232.83 273.257 234.034 275.494 232.83L567.163 64.4841Z" fill="#E6E6E6"/>
<path d="M147.641 306.428V332.565L140.242 328.094V302.129L147.641 306.428Z" fill="#E0E0E0"/>
<path opacity="0.5" d="M166.055 308.32L159.688 311.931L162.097 307.288C162.269 306.944 162.269 306.428 162.097 306.084C161.925 305.912 161.581 306.084 161.409 306.428L157.967 312.962C157.967 312.962 157.967 313.134 157.795 313.134C157.795 313.306 157.795 313.306 157.795 313.478C157.795 313.65 157.795 313.65 157.795 313.822C157.795 313.822 157.795 313.994 157.967 313.994L161.409 316.573C161.581 316.573 161.581 316.573 161.753 316.573C161.925 316.573 162.097 316.401 162.097 316.058C162.269 315.542 162.269 315.198 162.097 315.026L159.688 313.134L166.055 309.523C166.399 309.351 166.571 308.835 166.571 308.491C166.571 308.148 166.399 308.148 166.055 308.32Z" fill="#455A64"/>
<path opacity="0.5" d="M171.389 305.224L177.756 301.613L175.347 299.721C175.175 299.55 175.175 299.034 175.347 298.69C175.519 298.174 175.863 298.002 176.035 298.174L179.477 300.753C179.477 300.753 179.477 300.753 179.649 300.925C179.649 300.925 179.649 301.097 179.649 301.269C179.649 301.441 179.649 301.441 179.649 301.613C179.649 301.613 179.649 301.785 179.477 301.785L176.035 308.319C175.863 308.491 175.863 308.663 175.691 308.663C175.519 308.663 175.347 308.663 175.347 308.663C175.175 308.491 175.175 307.975 175.347 307.46L177.756 302.817L171.389 306.428C171.045 306.6 170.873 306.428 170.873 305.912C170.873 305.912 171.045 305.396 171.389 305.224Z" fill="#455A64"/>
<path opacity="0.5" d="M192.038 287.169C192.038 286.825 191.693 286.825 191.521 287.169L190.661 289.232C189.112 289.06 187.391 290.436 186.187 293.015C184.638 296.283 184.638 300.238 186.187 301.785C187.047 302.473 187.908 302.473 188.94 301.957C189.973 301.441 191.005 300.238 191.693 298.518C191.865 298.174 191.865 297.658 191.693 297.486C191.521 297.314 191.177 297.486 191.005 297.83C189.801 300.238 187.908 301.441 186.703 300.238C185.499 299.034 185.499 296.283 186.703 293.703C187.564 291.984 188.768 290.952 189.801 290.78L189.112 292.328C188.94 292.671 189.112 293.187 189.284 293.015L191.865 291.296C192.038 291.124 192.21 290.78 192.21 290.608L192.038 287.169Z" fill="#455A64"/>
<path opacity="0.5" d="M259.664 234.722L261.901 229.907C262.245 229.391 262.245 228.703 261.901 228.359C261.556 228.015 261.212 228.359 260.868 228.875L258.631 233.69L256.394 231.455C256.05 231.111 255.706 231.455 255.362 231.97C255.017 232.486 255.017 233.174 255.362 233.518L257.599 235.754L255.362 240.568C255.017 241.084 255.017 241.772 255.362 242.116C255.534 242.288 255.706 242.288 255.878 242.116C256.05 241.944 256.222 241.772 256.394 241.6L258.631 236.785L260.868 239.021C261.04 239.193 261.212 239.193 261.384 239.021C261.556 238.849 261.728 238.677 261.901 238.505C262.245 237.989 262.245 237.301 261.901 236.957L259.664 234.722Z" fill="#455A64"/>
<path d="M200.297 293.187V285.105C200.297 282.526 202.018 279.431 204.255 278.227L540.492 84.2592C542.729 83.0555 544.45 84.0873 544.45 86.4947V94.5767C544.45 97.156 542.729 100.251 540.492 101.455L204.427 295.423C202.19 296.798 200.297 295.766 200.297 293.187Z" fill="#FAFAFA"/>
<path d="M538.256 88.5582L539.288 90.7936C539.288 90.9656 539.46 90.9656 539.633 90.9656L542.042 90.1058C542.386 89.9338 542.558 90.4497 542.214 90.9656L540.493 94.2327C540.321 94.4047 540.321 94.7486 540.321 94.9206L540.665 97.8439C540.665 98.3597 540.321 98.8756 539.977 98.8756L537.912 98.5317C537.74 98.5317 537.568 98.5317 537.568 98.7036L535.503 101.455C535.159 101.799 534.814 101.799 534.814 101.111L535.159 97.6719C535.159 97.4999 535.159 97.328 534.986 97.156L533.266 95.9523C532.922 95.7804 533.094 95.0925 533.438 94.7486L535.847 92.8571C536.019 92.6851 536.191 92.5132 536.191 92.3412L537.224 88.9021C537.568 88.3862 538.084 88.0423 538.256 88.5582Z" stroke="#E0E0E0" stroke-width="0.8073" stroke-miterlimit="10"/>
<g opacity="0.5">
<path d="M549.269 83.2276C548.753 83.2276 548.237 83.0556 548.065 82.5398C547.721 81.8519 547.893 80.9921 548.581 80.6482L559.938 74.1139C560.626 73.7699 561.487 73.9419 561.831 74.6297C562.175 75.3176 562.003 76.1773 561.315 76.5213L549.958 83.0556C549.785 83.2276 549.613 83.2276 549.269 83.2276Z" fill="#455A64"/>
<path d="M549.269 89.762C548.753 89.762 548.237 89.59 548.065 89.0742C547.721 88.3863 547.893 87.5266 548.581 87.1826L559.938 80.6483C560.626 80.3044 561.487 80.4763 561.831 81.1641C562.175 81.852 562.003 82.7118 561.315 83.0557L549.958 89.59C549.785 89.59 549.613 89.762 549.269 89.762Z" fill="#455A64"/>
<path d="M549.269 96.2964C548.753 96.2964 548.237 96.1245 548.065 95.6086C547.721 94.9208 547.893 94.061 548.581 93.7171L559.938 87.1827C560.626 86.8388 561.487 87.0107 561.831 87.6986C562.175 88.3864 562.003 89.2462 561.315 89.5901L549.958 96.1245C549.785 96.1245 549.613 96.2964 549.269 96.2964Z" fill="#455A64"/>
</g>
<g opacity="0.5">
<path d="M160.031 339.787C159.515 339.787 158.998 339.615 158.826 339.1C158.482 338.412 158.654 337.552 159.343 337.208L170.7 330.674C171.388 330.33 172.248 330.502 172.593 331.19C172.937 331.877 172.765 332.737 172.076 333.081L160.719 339.615C160.547 339.787 160.375 339.787 160.031 339.787Z" fill="#455A64"/>
<path d="M160.031 346.322C159.515 346.322 158.998 346.15 158.826 345.634C158.482 344.946 158.654 344.086 159.343 343.742L170.7 337.208C171.388 336.864 172.248 337.036 172.593 337.724C172.937 338.412 172.765 339.272 172.076 339.615L160.719 346.15C160.547 346.322 160.375 346.322 160.031 346.322Z" fill="#455A64"/>
<path d="M160.031 352.856C159.515 352.856 158.998 352.684 158.826 352.168C158.482 351.48 158.654 350.621 159.343 350.277L170.7 343.742C171.388 343.398 172.248 343.57 172.593 344.258C172.937 344.946 172.765 345.806 172.076 346.15L160.719 352.684C160.547 352.684 160.375 352.856 160.031 352.856Z" fill="#455A64"/>
</g>
<path d="M260.18 282.354V292.327C260.18 294.391 261.556 295.25 263.449 294.219L397.497 216.666V199.298L263.449 276.851C261.556 277.883 260.18 280.29 260.18 282.354Z" fill="#E6E6E6"/>
<path d="M414.36 189.497C416.08 188.465 417.629 189.325 417.629 191.388V201.362C417.629 203.425 416.252 205.833 414.36 206.864L397.496 216.666V199.298L414.36 189.497Z" fill="#FFC600"/>
<path d="M413.156 203.253L411.263 202.737C411.435 201.878 411.607 201.19 411.607 200.33C411.607 198.438 410.919 196.891 409.887 196.375C409.026 195.859 408.166 196.031 407.133 196.547C405.068 197.751 403.348 201.19 403.348 204.457C403.348 206.348 404.036 207.896 405.068 208.412C405.413 208.584 405.757 208.756 406.273 208.756C406.789 208.756 407.305 208.584 407.822 208.24C409.026 207.552 410.231 206.005 410.919 204.113L412.812 204.629H412.984C413.328 204.629 413.5 204.457 413.672 204.113C413.672 203.769 413.5 203.425 413.156 203.253ZM407.133 206.864C406.617 207.208 406.101 207.208 405.757 207.036C405.068 206.692 404.724 205.661 404.724 204.285C404.724 201.706 406.101 198.61 407.822 197.579C408.166 197.407 408.338 197.235 408.682 197.235C408.854 197.235 409.026 197.235 409.198 197.407C409.887 197.751 410.231 198.782 410.231 200.158C410.231 202.909 408.854 206.005 407.133 206.864Z" fill="#FAFAFA"/>
<path d="M204.427 310.898L184.982 322.076C183.262 323.107 181.713 325.515 181.713 327.578V337.552C181.713 339.615 183.09 340.475 184.982 339.443L204.427 328.266C206.148 327.234 207.696 324.827 207.696 322.764V312.79C207.696 310.555 206.148 309.867 204.427 310.898Z" fill="#FFC600"/>
<path d="M541.181 116.587C537.051 118.994 533.609 124.841 533.609 129.656C533.609 134.471 537.051 136.362 541.181 133.955C545.311 131.547 548.752 125.701 548.752 120.886C548.752 116.071 545.311 114.18 541.181 116.587Z" fill="#FFC600"/>
<path d="M540.32 124.153C540.148 124.153 539.804 124.153 539.632 123.981C539.115 123.637 538.943 123.121 538.943 122.434C538.943 121.23 539.804 119.682 541.008 118.994C541.697 118.65 542.213 118.65 542.729 118.822C543.245 119.166 543.417 119.682 543.417 120.37C543.417 121.574 542.557 123.121 541.352 123.809C540.836 124.153 540.492 124.153 540.32 124.153Z" fill="white"/>
<path d="M544.106 124.669C543.418 124.325 542.385 124.325 541.525 124.841L540.32 125.529C538.428 126.56 536.879 129.14 536.879 131.375V132.235C537.911 132.751 539.46 132.751 541.009 131.719C542.557 130.859 544.106 129.14 545.139 127.42V127.248C545.311 126.045 544.794 125.185 544.106 124.669Z" fill="white"/>
<path d="M514.508 139.801V137.222C514.508 134.127 512.615 132.751 510.378 134.127C508.141 135.502 506.248 138.941 506.248 142.037V144.444C506.248 145.992 505.732 147.711 504.871 149.087C504.699 149.431 504.527 149.947 504.527 150.29C504.527 150.978 505.044 151.322 505.56 151.15L515.196 145.648C515.712 145.304 516.229 144.444 516.229 143.584C516.229 143.24 516.056 142.896 515.884 142.724C515.024 142.208 514.508 141.349 514.508 139.801Z" fill="#FFC600"/>
<path d="M512.271 147.883C512.271 149.259 511.41 150.978 510.206 151.666C509.173 152.354 508.141 151.666 508.141 150.119L512.271 147.883Z" fill="#FFC600"/>
<path d="M478.888 152.526C479.404 152.182 480.093 152.01 480.609 152.01C481.125 152.01 481.641 152.01 481.985 152.354C482.33 152.526 482.674 152.87 482.846 153.386C483.018 153.902 483.19 154.418 483.19 155.277C483.19 155.793 483.19 156.481 483.018 156.997C482.846 157.513 482.674 158.029 482.502 158.545C482.33 159.06 482.157 159.404 481.813 159.92C481.641 160.264 481.297 160.78 481.125 161.124C480.953 161.468 480.781 161.984 480.609 162.328C480.437 162.672 480.265 163.187 480.265 163.531C480.265 163.703 480.265 163.875 480.093 164.047C480.093 164.219 479.92 164.391 479.748 164.391L477.856 165.423C477.684 165.423 477.683 165.423 477.511 165.423C477.339 165.423 477.339 165.251 477.339 165.079C477.339 164.563 477.339 164.047 477.511 163.531C477.683 163.016 477.856 162.5 478.028 161.984C478.2 161.468 478.544 161.124 478.716 160.608C478.888 160.092 479.232 159.748 479.404 159.404C479.576 159.06 479.748 158.717 479.92 158.201C480.093 157.857 480.093 157.513 480.093 157.169C480.093 156.653 479.92 156.309 479.748 156.309C479.576 156.137 479.232 156.309 478.716 156.481C478.2 156.825 477.856 156.997 477.684 157.341C477.511 157.685 477.339 158.029 477.167 158.373C476.995 158.717 476.995 159.06 476.995 159.232C476.995 159.576 476.823 159.748 476.651 159.748L474.758 160.78C474.586 160.78 474.586 160.78 474.586 160.78C474.586 160.78 474.414 160.608 474.414 160.436C474.414 159.92 474.586 159.232 474.758 158.545C474.93 157.857 475.274 156.997 475.619 156.309C475.963 155.621 476.479 154.934 476.995 154.246C477.511 153.386 478.2 152.87 478.888 152.526ZM480.265 168.346C480.265 168.518 480.265 168.69 480.093 168.862C480.093 169.034 479.92 169.206 479.748 169.206L477.684 170.41C477.511 170.41 477.511 170.41 477.339 170.41C477.339 170.41 477.167 170.238 477.167 170.066V167.658C477.167 167.486 477.167 167.314 477.339 167.142C477.339 166.971 477.511 166.799 477.684 166.799L479.748 165.595C479.92 165.595 479.92 165.595 480.093 165.595C480.265 165.595 480.265 165.767 480.265 165.939V168.346Z" fill="#FFC600"/>
<path d="M260.352 462.393C258.804 462.393 257.255 461.705 256.051 460.673C254.502 459.126 253.641 457.062 253.641 454.483V441.758L219.57 461.361C218.538 462.049 217.333 462.221 216.301 462.221C214.752 462.221 213.203 461.533 211.999 460.501C210.45 458.954 209.59 456.89 209.59 454.311V433.332C209.59 429.377 210.278 425.766 211.483 422.327L249.856 325.515C250.716 323.279 251.749 321.56 252.609 320.356C253.641 319.153 254.846 317.949 256.567 317.089L276.011 305.912C277.044 305.224 278.248 305.052 279.281 305.052C280.83 305.052 282.378 305.568 283.583 306.772C285.131 308.319 285.992 310.383 285.992 312.962V381.401L290.638 378.822C291.67 378.134 292.875 377.962 293.907 377.962C295.456 377.962 297.005 378.478 298.037 379.681C299.586 381.229 300.446 383.292 300.446 386.044V407.023C300.446 409.086 299.93 411.15 299.07 413.213C298.037 415.448 296.661 417.168 294.94 418.028L285.992 423.187V440.898C285.992 442.962 285.476 445.025 284.615 447.089C283.583 449.324 282.206 451.044 280.485 451.903L263.622 461.533C262.589 462.049 261.557 462.393 260.352 462.393ZM248.479 403.068L254.33 399.628V388.279L248.479 403.068Z" fill="#E0E0E0"/>
<path d="M332.109 419.404C331.765 419.404 331.421 419.404 331.077 419.404C325.398 419.06 320.58 416.996 316.622 413.041C313.009 409.43 310.427 404.271 308.707 397.909C307.158 392.062 306.126 385.356 305.954 377.962C305.781 372.631 305.609 366.785 305.609 360.594C305.609 354.404 305.781 348.213 305.781 342.539C306.126 334.973 306.986 327.407 308.535 319.84C310.083 312.102 312.492 304.708 315.59 297.83C318.859 290.952 322.817 284.417 327.635 278.571C332.625 272.552 338.476 267.565 345.359 263.61C352.07 259.655 357.921 257.764 363.255 257.764C363.599 257.764 363.943 257.764 364.287 257.764C369.966 258.108 374.784 260.171 378.742 264.126C382.356 267.737 384.937 272.896 386.657 279.259C388.206 285.277 389.239 291.811 389.411 299.206C389.583 304.88 389.755 310.899 389.755 317.089C389.755 323.28 389.583 329.126 389.583 334.801C389.239 342.367 388.378 349.933 386.83 357.499C385.281 365.237 382.872 372.631 379.774 379.51C376.505 386.388 372.547 392.922 367.729 398.769C362.739 404.787 356.888 409.774 350.005 413.729C343.294 417.34 337.444 419.404 332.109 419.404ZM353.791 301.441C353.447 301.441 352.242 301.613 350.177 302.817C348.112 304.02 346.392 305.568 345.015 307.288C343.638 309.179 342.434 311.243 341.573 313.478C340.713 315.885 340.025 318.465 339.508 321.216C338.992 324.139 338.82 327.063 338.648 330.158C338.304 341.163 338.304 352.34 338.648 363.174C338.648 366.269 338.992 368.848 339.336 371.084C339.681 373.319 340.369 374.523 340.885 375.211C341.229 375.726 341.745 375.898 342.09 375.898C342.606 375.898 343.81 375.727 345.875 374.523C347.94 373.319 349.661 371.771 351.038 370.052C352.414 368.16 353.619 366.097 354.651 363.861C355.512 361.454 356.372 358.875 356.716 356.295C357.232 353.372 357.404 350.449 357.576 347.182C357.921 335.832 357.921 324.827 357.576 314.166C357.404 311.243 357.06 308.663 356.716 306.256C356.372 304.364 355.856 302.989 355.167 301.957C354.651 301.613 354.307 301.441 353.791 301.441Z" fill="#E0E0E0"/>
<path d="M449.12 353.372C447.571 353.372 446.023 352.684 444.818 351.652C443.269 350.105 442.409 348.041 442.409 345.462V332.737L408.338 352.34C407.305 353.028 406.101 353.2 405.068 353.2C403.52 353.2 401.971 352.512 400.766 351.48C399.218 349.933 398.357 347.869 398.357 345.29V324.311C398.357 320.356 399.046 316.745 400.25 313.306L438.623 216.494C439.484 214.259 440.516 212.539 441.377 211.335C442.409 210.132 443.614 208.928 445.334 208.068L464.779 196.891C465.811 196.203 467.016 196.031 468.048 196.031C469.597 196.031 471.146 196.547 472.35 197.751C473.899 199.298 474.759 201.362 474.759 203.941V272.38L479.405 269.801C480.438 269.113 481.642 268.941 482.675 268.941C484.224 268.941 485.772 269.457 486.805 270.661C488.353 272.208 489.214 274.272 489.214 277.023V298.002C489.214 300.065 488.698 302.129 487.837 304.192C486.805 306.428 485.428 308.147 483.707 309.007L474.759 314.166V331.877C474.759 333.941 474.243 336.004 473.383 338.068C472.35 340.303 470.974 342.023 469.253 342.883L452.389 352.512C451.357 353.028 450.325 353.372 449.12 353.372ZM437.247 294.219L443.097 290.78V279.43L437.247 294.219Z" fill="#E0E0E0"/>
<path d="M310.082 391.203C309.91 391.031 309.738 391.031 309.566 390.859C309.05 390.515 296.488 383.293 296.488 383.293V321.388C296.488 320.012 296.144 318.809 295.456 318.293C295.284 318.121 295.112 318.121 295.112 317.949C294.595 317.605 281.345 310.039 281.173 309.867C280.657 309.523 279.969 309.523 279.108 310.039L259.664 321.216C258.631 321.904 257.599 322.592 257.083 323.452C256.394 324.311 255.706 325.687 255.018 327.578L216.645 424.39C215.612 427.314 214.924 430.409 214.924 433.848V454.827C214.924 456.202 215.268 457.406 215.956 457.922C216.128 458.094 216.3 458.094 216.473 458.266C216.989 458.61 230.239 466.176 230.411 466.348C230.927 466.692 231.615 466.692 232.476 466.176L258.975 450.872V454.827C258.975 456.202 259.32 457.406 260.008 457.922C260.18 458.094 260.352 458.094 260.352 458.266C260.868 458.61 274.118 466.176 274.29 466.348C274.806 466.692 275.495 466.692 276.355 466.176L293.219 456.374C294.079 455.858 294.939 454.827 295.628 453.451C296.316 452.075 296.66 450.528 296.66 449.152V429.033L307.673 422.671C308.533 422.155 309.394 421.123 310.082 419.747C310.77 418.372 311.115 416.824 311.115 415.449V394.47C311.115 392.922 310.77 391.89 310.082 391.203Z" fill="#FFC600"/>
<path opacity="0.15" d="M271.02 331.533V331.705C270.332 332.565 269.816 333.769 269.128 335.66L230.582 432.472C230.066 433.676 229.722 435.052 229.378 436.427L215.268 428.345C215.612 426.97 215.956 425.594 216.3 424.39L254.673 327.578C255.533 325.687 256.222 324.311 256.738 323.451L271.02 331.533Z" fill="black"/>
<path opacity="0.3" d="M230.239 466.176C228.69 465.316 216.989 458.61 216.473 458.266C216.3 458.094 216.128 458.094 215.956 457.922C215.268 457.234 214.924 456.203 214.924 454.827V433.848C214.924 431.957 215.096 430.065 215.44 428.345L229.378 436.427C229.034 438.147 228.862 440.039 228.862 441.93V462.909C228.862 464.285 229.206 465.488 229.894 466.004C230.067 466.004 230.067 466.176 230.239 466.176Z" fill="black"/>
<path opacity="0.3" d="M273.602 374.351V410.806L261.729 404.099L273.602 374.351Z" fill="black"/>
<path opacity="0.4" d="M273.602 410.806L254.674 421.639L261.729 404.099L273.602 410.806Z" fill="black"/>
<path opacity="0.3" d="M273.945 466.176C274.117 466.176 274.117 466.348 274.117 466.348C272.569 465.488 260.867 458.782 260.351 458.438C260.179 458.438 260.007 458.266 260.007 458.094C259.319 457.406 258.975 456.374 258.975 454.999V450.872L272.913 442.79V462.909C272.913 464.456 273.257 465.488 273.945 466.176Z" fill="black"/>
<path opacity="0.15" d="M309.566 390.859C309.05 390.687 308.361 390.687 307.673 391.031L296.66 397.393V383.465C296.66 383.465 308.017 389.999 309.566 390.859Z" fill="black"/>
<path opacity="0.4" d="M295.111 317.949C294.595 317.605 293.906 317.777 293.218 318.121L273.773 329.298C272.741 329.986 271.88 330.674 271.192 331.533L257.254 323.452C257.942 322.592 258.803 321.904 259.835 321.216L279.28 310.039C279.968 309.523 280.656 309.523 281.345 309.867C281.345 310.039 293.734 317.261 295.111 317.949Z" fill="white"/>
<path d="M276.354 466.348C275.494 466.864 274.634 466.864 273.945 466.176C273.257 465.488 272.913 464.456 272.913 463.081V442.962L232.303 466.176C231.442 466.692 230.582 466.692 229.894 466.004C229.205 465.316 228.861 464.284 228.861 462.909V441.93C228.861 438.491 229.378 435.396 230.582 432.472L268.955 335.661C269.643 333.769 270.504 332.393 271.02 331.534C271.708 330.674 272.569 329.986 273.601 329.298L293.046 318.121C293.906 317.605 294.767 317.605 295.455 318.293C296.143 318.981 296.487 320.012 296.487 321.388V397.393L307.5 391.031C308.361 390.515 309.221 390.515 309.909 391.203C310.598 391.89 310.942 392.922 310.942 394.298V415.277C310.942 416.652 310.598 418.2 309.909 419.576C309.221 420.951 308.361 421.983 307.5 422.499L296.487 428.861V448.98C296.487 450.356 296.143 451.904 295.455 453.279C294.767 454.655 293.906 455.687 293.046 456.202L276.354 466.348ZM273.601 410.806V374.351L254.673 421.639L273.601 410.806Z" fill="#FFC600"/>
<path d="M400.251 307.975C399.907 300.925 399.046 294.735 397.67 289.06C396.121 283.385 393.884 279.086 390.787 275.819C389.754 274.787 388.55 273.756 387.345 273.068C384.936 271.692 374.611 265.674 373.407 264.986C370.998 263.61 368.417 262.922 365.491 262.75C360.845 262.579 355.339 264.298 348.972 267.909C342.605 271.692 337.099 276.335 332.453 281.838C327.806 287.34 324.021 293.531 320.923 300.065C317.826 306.772 315.589 313.65 314.04 321.044C312.492 328.438 311.631 335.832 311.459 343.054C311.287 348.901 311.287 354.748 311.287 360.938C311.287 367.128 311.287 372.803 311.459 378.134C311.803 385.184 312.664 391.374 314.04 397.049C315.589 402.724 317.826 407.023 320.923 410.29C321.956 411.321 323.16 412.353 324.365 413.041C326.774 414.417 337.271 420.435 338.647 421.295C340.884 422.499 343.465 423.358 346.391 423.358C351.037 423.53 356.543 421.811 362.91 418.2C369.277 414.417 374.783 409.774 379.429 404.271C384.076 398.769 387.861 392.578 390.959 386.044C394.056 379.337 396.293 372.459 397.842 365.065C399.39 357.671 400.251 350.277 400.423 343.054C400.595 337.552 400.595 331.705 400.595 325.515C400.423 319.496 400.423 313.65 400.251 307.975ZM349.488 378.306C349.144 376.414 348.972 374.179 348.972 371.771C348.456 360.766 348.456 349.761 348.972 338.584C348.972 335.316 349.316 332.049 349.832 328.954C350.349 325.859 351.037 323.107 352.069 320.356C353.102 317.777 354.478 315.369 356.199 313.134C357.748 311.242 359.641 309.523 361.706 308.147C362.05 310.039 362.222 312.274 362.394 314.51C362.738 325.343 362.738 336.348 362.394 347.697C362.222 350.964 362.05 354.232 361.533 357.327C361.017 360.422 360.329 363.173 359.296 365.925C358.264 368.504 356.887 371.083 355.167 373.147C353.618 375.21 351.725 376.93 349.488 378.306Z" fill="#FFC600"/>
<path opacity="0.15" d="M337.959 421.295C335.55 419.919 326.258 414.589 324.021 413.385C322.817 412.697 321.612 411.665 320.58 410.634C317.482 407.538 315.245 403.067 313.697 397.393C312.148 391.718 311.288 385.356 311.115 378.478C310.943 373.147 310.943 367.472 310.943 361.282C310.943 355.091 311.115 349.073 311.115 343.398C311.46 336.176 312.32 328.782 313.697 321.388C314.729 316.229 316.106 311.242 317.999 306.256L331.937 314.338C330.044 319.152 328.667 324.139 327.635 329.298C326.086 336.692 325.226 344.086 325.054 351.308C324.882 357.155 324.882 363.001 324.882 369.192C324.882 375.382 324.882 381.057 325.054 386.388C325.226 393.438 326.258 399.628 327.635 405.303C329.183 410.977 331.42 415.448 334.346 418.544C335.722 419.747 336.755 420.607 337.959 421.295Z" fill="black"/>
<path opacity="0.4" d="M386.828 272.896C384.591 271.692 382.182 271.004 379.429 271.004C374.783 270.832 369.276 272.552 362.91 276.163C356.543 279.946 351.036 284.589 346.39 290.092C341.744 295.594 337.959 301.785 334.861 308.319C334.345 309.351 334.001 310.383 333.485 311.414C333.14 312.446 332.796 313.306 332.28 314.338L318.342 306.256C318.686 305.396 319.03 304.536 319.374 303.676C319.89 302.473 320.235 301.441 320.751 300.237C323.848 293.531 327.634 287.512 332.28 281.838C336.926 276.335 342.433 271.692 348.799 267.909C355.166 264.126 360.673 262.407 365.319 262.751C368.244 262.922 370.997 263.61 373.234 264.986C374.439 265.846 383.731 271.004 386.828 272.896Z" fill="white"/>
<path opacity="0.3" d="M376.504 355.951C376.332 359.218 376.16 362.486 375.644 365.581C375.128 368.676 374.439 371.427 373.407 374.179C372.891 375.382 372.374 376.414 371.858 377.446L357.92 369.364C358.436 368.332 359.124 367.128 359.469 366.097C360.501 363.345 361.361 360.594 361.706 357.499C362.222 354.404 362.394 351.308 362.566 347.869C362.91 336.52 362.91 325.343 362.566 314.682C362.394 312.274 362.222 310.211 362.05 308.319C362.05 308.319 362.394 307.975 362.91 307.803C365.491 306.256 367.556 305.74 369.277 305.912C370.998 306.084 372.374 306.943 373.407 308.319C374.439 309.695 375.128 311.758 375.644 314.166C376.16 316.573 376.504 319.496 376.676 322.764C376.848 333.425 376.848 344.602 376.504 355.951Z" fill="black"/>
<path opacity="0.4" d="M371.686 377.446C370.998 378.822 370.137 380.197 369.105 381.401C367.384 383.636 365.319 385.356 362.738 386.904C360.157 388.451 358.092 388.967 356.371 388.795C354.65 388.623 353.274 387.763 352.241 386.388C351.209 385.012 350.348 382.949 350.004 380.541C349.832 379.853 349.832 379.166 349.66 378.306C351.897 376.93 353.79 375.211 355.339 373.319C356.371 372.115 357.232 370.74 357.92 369.364L371.686 377.446Z" fill="black"/>
<path d="M362.738 276.163C369.104 272.38 374.611 270.661 379.257 271.004C383.903 271.176 387.689 272.896 390.786 275.991C393.883 279.086 396.12 283.557 397.669 289.232C399.218 294.906 400.078 301.269 400.25 308.147C400.422 313.65 400.422 319.668 400.422 325.859C400.422 332.049 400.25 337.896 400.25 343.398C399.906 350.621 399.046 358.015 397.669 365.409C396.12 372.803 393.883 379.853 390.786 386.388C387.689 393.094 383.903 399.112 379.257 404.615C374.611 410.118 369.104 414.761 362.738 418.544C356.371 422.327 350.864 424.046 346.218 423.702C341.572 423.53 337.786 421.811 334.689 418.716C331.592 415.62 329.355 411.149 327.806 405.475C326.257 399.8 325.397 393.438 325.225 386.56C325.053 381.229 325.053 375.554 325.053 369.364C325.053 363.173 325.053 357.155 325.225 351.48C325.569 344.258 326.429 336.864 327.806 329.47C329.355 322.076 331.592 315.025 334.689 308.491C337.786 301.785 341.572 295.766 346.218 290.264C350.692 284.417 356.371 279.774 362.738 276.163ZM376.504 355.951C376.848 344.602 376.848 333.425 376.504 322.763C376.332 319.496 375.987 316.745 375.471 314.166C374.955 311.586 374.267 309.695 373.234 308.319C372.202 306.943 370.825 306.084 369.104 305.912C367.384 305.74 365.319 306.428 362.738 307.803C360.156 309.351 358.091 311.07 356.371 313.306C354.65 315.541 353.273 317.949 352.241 320.528C351.208 323.107 350.52 326.031 350.004 329.126C349.488 332.221 349.143 335.316 349.143 338.756C348.627 349.933 348.627 360.938 349.143 371.943C349.143 375.21 349.488 378.134 350.004 380.541C350.52 383.12 351.208 385.012 352.241 386.388C353.273 387.763 354.65 388.623 356.371 388.795C358.091 388.967 360.156 388.279 362.738 386.904C365.319 385.356 367.384 383.636 369.104 381.401C370.825 379.165 372.202 376.758 373.234 374.179C374.267 371.599 375.127 368.676 375.471 365.581C376.159 362.486 376.332 359.218 376.504 355.951Z" fill="#FFC600"/>
<path d="M498.85 282.354C498.678 282.182 498.506 282.182 498.334 282.01C497.817 281.666 485.256 274.444 485.256 274.444V212.539C485.256 211.163 484.912 209.96 484.223 209.444C484.051 209.272 483.879 209.272 483.879 209.1C483.363 208.756 470.113 201.19 469.941 201.018C469.425 200.674 468.736 200.674 467.876 201.19L448.431 212.367C447.399 213.055 446.366 213.743 445.85 214.603C445.162 215.462 444.474 216.838 443.785 218.73L405.412 315.541C404.38 318.465 403.691 321.56 403.691 324.999V345.978C403.691 347.354 404.036 348.557 404.724 349.073C404.896 349.245 405.068 349.245 405.24 349.417C405.756 349.761 419.006 357.327 419.178 357.499C419.695 357.843 420.383 357.843 421.243 357.327L447.743 342.023V345.978C447.743 347.354 448.087 348.557 448.775 349.073C448.948 349.245 449.12 349.245 449.12 349.417C449.636 349.761 462.886 357.327 463.058 357.499C463.574 357.843 464.262 357.843 465.123 357.327L481.986 347.525C482.847 347.01 483.707 345.978 484.395 344.602C485.084 343.227 485.428 341.679 485.428 340.303V320.184L496.441 313.822C497.301 313.306 498.161 312.274 498.85 310.899C499.538 309.523 499.882 307.975 499.882 306.6V285.449C499.882 284.073 499.538 283.042 498.85 282.354Z" fill="#FFC600"/>
<path opacity="0.15" d="M459.788 222.685V222.856C459.099 223.716 458.583 224.92 457.895 226.811L419.522 323.623C419.006 324.827 418.661 326.203 418.317 327.578L404.207 319.496C404.551 318.121 404.895 316.745 405.24 315.541L443.613 218.729C444.473 216.838 445.161 215.462 445.677 214.603L459.788 222.685Z" fill="black"/>
<path opacity="0.3" d="M419.006 357.327C417.458 356.467 405.756 349.761 405.24 349.417C405.068 349.245 404.896 349.245 404.724 349.073C404.036 348.385 403.691 347.354 403.691 345.978V324.999C403.691 323.108 403.863 321.216 404.208 319.497L418.146 327.579C417.802 329.298 417.63 331.19 417.63 333.081V354.06C417.63 355.436 417.974 356.467 418.662 357.155C418.834 357.155 418.834 357.327 419.006 357.327Z" fill="black"/>
<path opacity="0.3" d="M462.197 265.502V301.957L450.496 295.079L462.197 265.502Z" fill="black"/>
<path opacity="0.4" d="M462.198 301.957L443.441 312.79L450.497 295.079L462.198 301.957Z" fill="black"/>
<path opacity="0.3" d="M462.713 357.327C462.885 357.327 462.885 357.499 462.885 357.499C461.336 356.639 449.635 349.933 449.119 349.589C448.947 349.417 448.775 349.417 448.775 349.245C448.086 348.557 447.742 347.526 447.742 346.15V342.023L461.68 333.941V354.06C461.68 355.608 462.025 356.639 462.713 357.327Z" fill="black"/>
<path opacity="0.15" d="M498.333 282.01C497.817 281.838 497.129 281.838 496.441 282.182L485.428 288.544V274.444C485.428 274.444 496.785 280.978 498.333 282.01Z" fill="black"/>
<path opacity="0.4" d="M483.878 209.1C483.362 208.756 482.674 208.928 481.985 209.272L462.541 220.449C461.508 221.137 460.648 221.825 459.96 222.685L446.021 214.603C446.71 213.743 447.57 213.055 448.603 212.367L468.047 201.19C468.736 200.674 469.424 200.674 470.112 201.018C470.112 201.19 482.502 208.412 483.878 209.1Z" fill="white"/>
<path d="M465.122 357.499C464.261 358.015 463.401 358.015 462.713 357.327C462.024 356.639 461.68 355.607 461.68 354.232V334.113L421.242 357.499C420.382 358.015 419.522 358.015 418.833 357.327C418.145 356.639 417.801 355.607 417.801 354.232V333.253C417.801 329.814 418.317 326.719 419.522 323.795L457.895 226.984C458.583 225.092 459.443 223.716 459.96 222.857C460.648 221.997 461.508 221.309 462.541 220.621L481.985 209.444C482.846 208.928 483.706 208.928 484.394 209.616C485.083 210.304 485.427 211.335 485.427 212.711V288.716L496.44 282.354C497.3 281.838 498.161 281.838 498.849 282.526C499.537 283.213 499.881 284.245 499.881 285.621V306.6C499.881 307.975 499.537 309.523 498.849 310.899C498.161 312.274 497.3 313.306 496.44 313.822L485.427 320.184V340.303C485.427 341.679 485.083 343.227 484.394 344.602C483.706 345.978 482.846 347.01 481.985 347.525L465.122 357.499ZM462.197 301.957V265.502L443.44 312.79L462.197 301.957Z" fill="#FFC600"/>
<path d="M328.667 479.244C328.839 479.073 329.011 479.073 329.184 479.244C329.356 479.416 329.356 479.588 329.356 479.932V484.747C329.356 485.091 329.356 485.435 329.184 485.779C329.011 486.123 328.839 486.295 328.667 486.467L314.901 494.377C314.729 494.549 314.557 494.549 314.385 494.377C314.213 494.205 314.213 494.033 314.213 493.689V464.8C314.213 464.456 314.213 464.112 314.385 463.768C314.557 463.424 314.729 463.252 314.901 463.08L328.495 455.17C328.667 454.999 328.839 454.999 329.011 455.17C329.184 455.342 329.184 455.514 329.184 455.858V460.673C329.184 461.017 329.184 461.361 329.011 461.705C328.839 462.049 328.667 462.221 328.495 462.393L319.547 467.551V472.366L327.807 467.551C327.979 467.379 328.151 467.379 328.323 467.551C328.495 467.723 328.495 467.895 328.495 468.239V473.054C328.495 473.398 328.495 473.742 328.323 474.086C328.151 474.43 327.979 474.602 327.807 474.774L319.547 479.588V484.575L328.667 479.244Z" fill="#455A64"/>
<path d="M342.09 447.089C343.295 446.401 344.499 445.885 345.532 445.713C346.564 445.541 347.425 445.713 348.113 446.057C348.801 446.401 349.317 447.261 349.662 448.292C350.006 449.324 350.178 450.7 350.178 452.591C350.178 454.827 349.834 456.89 349.317 458.61C348.801 460.501 347.941 462.049 346.736 463.425L350.35 472.022C350.35 472.194 350.522 472.366 350.522 472.538C350.522 472.882 350.522 473.054 350.35 473.398C350.178 473.742 350.006 473.914 349.834 473.914L345.876 476.149C345.532 476.321 345.188 476.321 345.015 476.149C344.843 475.977 344.671 475.805 344.671 475.634L341.402 467.895L338.649 469.443V479.073C338.649 479.417 338.649 479.76 338.477 480.104C338.304 480.448 338.132 480.62 337.96 480.792L334.175 483.028C334.003 483.2 333.83 483.2 333.658 483.028C333.486 482.856 333.486 482.684 333.486 482.34V453.451C333.486 453.107 333.486 452.763 333.658 452.419C333.83 452.075 334.003 451.903 334.175 451.731L342.09 447.089ZM338.821 462.565L342.09 460.673C342.951 460.157 343.639 459.641 344.155 458.782C344.671 457.922 345.015 456.89 345.015 455.686C345.015 454.483 344.671 453.795 344.155 453.623C343.639 453.451 342.951 453.623 342.09 454.139L338.821 456.03V462.565Z" fill="#455A64"/>
<path d="M363.082 435.052C364.287 434.364 365.491 433.848 366.524 433.676C367.556 433.504 368.417 433.676 369.105 434.02C369.793 434.364 370.31 435.223 370.654 436.255C370.998 437.287 371.17 438.663 371.17 440.554C371.17 442.79 370.826 444.853 370.31 446.573C369.793 448.464 368.933 450.012 367.728 451.387L371.342 459.985C371.342 460.157 371.514 460.329 371.514 460.501C371.514 460.845 371.514 461.017 371.342 461.361C371.17 461.705 370.998 461.877 370.826 461.877L366.868 464.112C366.524 464.284 366.18 464.284 366.008 464.112C365.836 463.94 365.663 463.768 365.663 463.596L362.394 455.858L359.641 457.406V467.036C359.641 467.379 359.641 467.723 359.469 468.067C359.297 468.411 359.125 468.583 358.953 468.755L355.167 470.991C354.995 471.163 354.823 471.163 354.651 470.991C354.479 470.819 354.479 470.647 354.479 470.303V441.414C354.479 441.07 354.479 440.726 354.651 440.382C354.823 440.038 354.995 439.866 355.167 439.694L363.082 435.052ZM359.813 450.528L363.082 448.636C363.943 448.12 364.631 447.604 365.147 446.745C365.663 445.885 366.008 444.853 366.008 443.649C366.008 442.446 365.663 441.758 365.147 441.586C364.631 441.414 363.943 441.586 363.082 442.102L359.813 443.993V450.528Z" fill="#455A64"/>
<path d="M374.784 440.038C374.784 438.319 375.128 436.599 375.472 434.88C375.816 433.16 376.504 431.612 377.193 430.065C377.881 428.517 378.913 427.142 379.946 425.938C380.978 424.734 382.355 423.53 383.731 422.843C385.108 421.983 386.485 421.639 387.517 421.639C388.55 421.639 389.582 421.983 390.27 422.671C390.959 423.358 391.647 424.218 391.991 425.422C392.335 426.626 392.679 428.173 392.679 429.721C392.679 430.925 392.679 432.3 392.679 433.676C392.679 435.052 392.679 436.427 392.679 437.631C392.679 439.351 392.335 441.07 391.991 442.79C391.647 444.509 390.959 446.057 390.27 447.604C389.582 449.152 388.55 450.528 387.517 451.903C386.485 453.107 385.108 454.139 383.731 454.999C382.355 455.858 380.978 456.202 379.946 456.202C378.913 456.202 377.881 455.858 377.193 455.171C376.504 454.483 375.816 453.623 375.472 452.247C375.128 451.044 374.784 449.496 374.784 447.948C374.784 446.745 374.784 445.369 374.784 443.993C374.611 442.79 374.784 441.414 374.784 440.038ZM387.517 440.382C387.517 439.866 387.517 439.179 387.517 438.491C387.517 437.803 387.517 437.115 387.517 436.427C387.517 435.739 387.517 435.052 387.517 434.536C387.517 433.848 387.517 433.332 387.517 432.816C387.517 432.128 387.345 431.44 387.173 430.925C387.001 430.409 386.829 430.065 386.485 429.721C386.141 429.377 385.796 429.205 385.28 429.205C384.764 429.205 384.248 429.377 383.731 429.721C383.215 430.065 382.527 430.581 382.183 431.097C381.667 431.612 381.322 432.128 380.978 432.816C380.634 433.504 380.462 434.192 380.29 434.88C380.118 435.567 379.946 436.427 379.946 437.115C379.946 437.631 379.946 438.319 379.946 438.835C379.946 439.522 379.946 440.21 379.946 440.898C379.946 441.586 379.946 442.274 379.946 442.962C379.946 443.649 379.946 444.165 379.946 444.681C379.946 446.057 380.29 447.261 380.978 447.776C381.494 448.464 382.527 448.464 383.731 447.776C384.936 447.089 385.796 446.057 386.485 444.681C387.173 443.477 387.345 441.93 387.517 440.382Z" fill="#455A64"/>
<path d="M405.758 410.462C406.963 409.774 408.167 409.258 409.2 409.086C410.232 408.914 411.092 409.086 411.781 409.43C412.469 409.774 412.985 410.634 413.329 411.665C413.674 412.697 413.846 414.073 413.846 415.964C413.846 418.2 413.502 420.263 412.985 421.983C412.469 423.874 411.609 425.422 410.404 426.798L414.018 435.395C414.018 435.567 414.19 435.739 414.19 435.911C414.19 436.255 414.19 436.427 414.018 436.771C413.846 437.115 413.674 437.287 413.502 437.287L409.544 439.522C409.2 439.694 408.855 439.694 408.683 439.522C408.511 439.35 408.339 439.179 408.339 439.007L405.07 431.268L402.317 432.816V442.446C402.317 442.79 402.317 443.134 402.145 443.477C401.972 443.821 401.8 443.993 401.628 444.165L397.843 446.401C397.671 446.573 397.498 446.573 397.326 446.401C397.154 446.229 397.154 446.057 397.154 445.713V416.824C397.154 416.48 397.154 416.136 397.326 415.792C397.498 415.448 397.671 415.276 397.843 415.105L405.758 410.462ZM402.489 425.938L405.758 424.046C406.619 423.53 407.307 423.015 407.823 422.155C408.339 421.295 408.683 420.263 408.683 419.06C408.683 417.856 408.339 417.168 407.823 416.996C407.307 416.824 406.619 416.996 405.758 417.512L402.489 419.403V425.938Z" fill="#455A64"/>
<path d="M276.183 528.768C277.904 527.737 279.453 527.565 280.313 528.253C281.346 528.94 281.862 530.66 281.862 533.067C281.862 535.647 281.346 537.71 280.313 539.774C279.281 541.665 277.904 543.213 276.183 544.245L272.57 546.308V554.046C272.57 554.218 272.57 554.562 272.398 554.734C272.225 554.906 272.053 555.078 272.053 555.25L270.333 556.282C270.161 556.453 269.988 556.282 269.988 556.282C269.816 556.11 269.816 555.938 269.816 555.766V533.583C269.816 533.411 269.816 533.067 269.988 532.895C270.161 532.723 270.333 532.551 270.333 532.38L276.183 528.768ZM272.57 541.837L276.011 539.774C276.872 539.258 277.56 538.57 278.076 537.882C278.592 537.022 278.764 535.991 278.764 534.787C278.764 533.583 278.592 532.723 278.076 532.551C277.56 532.38 276.872 532.551 276.011 533.067L272.57 535.131V541.837Z" fill="#E0E0E0"/>
<path d="M291.155 519.999C291.327 519.827 291.499 519.827 291.671 519.999C291.843 520.171 291.843 520.343 292.015 520.686L297.521 539.258V539.43C297.521 539.602 297.521 539.946 297.349 540.118C297.177 540.29 297.005 540.461 297.005 540.633L295.457 541.493C295.112 541.665 294.94 541.665 294.768 541.493C294.596 541.321 294.596 541.149 294.596 541.149L293.564 537.882L286.509 542.009L285.476 546.308C285.476 546.48 285.304 546.824 285.304 546.996C285.132 547.34 284.96 547.512 284.616 547.684L283.067 548.543C282.895 548.715 282.723 548.543 282.723 548.543C282.551 548.372 282.551 548.2 282.551 548.028C282.551 547.856 282.551 547.856 282.551 547.856L288.057 523.094C288.229 522.578 288.229 522.234 288.401 522.062C288.573 521.718 288.746 521.546 288.918 521.546L291.155 519.999ZM292.359 534.271L289.95 525.845L287.541 537.022L292.359 534.271Z" fill="#E0E0E0"/>
<path d="M299.242 524.298C299.242 522.922 299.414 521.546 299.758 520.171C300.103 518.795 300.447 517.591 301.135 516.559C301.651 515.356 302.34 514.324 303.2 513.464C304.06 512.605 304.921 511.745 306.125 511.057C307.502 510.369 308.534 510.025 309.395 510.025C310.255 510.025 310.943 510.369 311.46 510.713C311.976 511.229 312.32 511.745 312.492 512.261C312.664 512.948 312.836 513.464 312.836 513.98C312.836 514.324 312.836 514.496 312.664 514.668C312.492 514.84 312.32 515.012 312.148 515.184L310.427 516.216C310.255 516.388 310.083 516.388 310.083 516.216C309.911 516.216 309.911 516.044 309.911 515.872C309.911 515.872 309.739 515.7 309.739 515.356C309.567 515.184 309.395 514.84 309.051 514.668C308.706 514.496 308.362 514.324 308.018 514.324C307.502 514.324 306.986 514.496 306.297 514.84C305.265 515.528 304.232 516.388 303.544 517.763C302.856 519.139 302.512 520.515 302.512 522.062C302.512 522.922 302.512 523.954 302.512 524.813C302.512 525.845 302.512 526.705 302.512 527.565C302.512 529.456 302.856 530.66 303.544 531.004C304.232 531.52 305.093 531.348 306.297 530.832C306.814 530.488 307.33 530.144 307.846 529.628C308.362 529.112 308.706 528.597 309.051 528.081C309.395 527.393 309.567 526.705 309.911 526.017C310.083 525.157 310.255 524.298 310.255 523.438V523.094L307.502 524.642C307.33 524.813 307.158 524.642 307.158 524.642C306.986 524.47 306.986 524.298 306.986 524.126V521.718C306.986 521.546 306.986 521.202 307.158 521.03C307.33 520.858 307.502 520.686 307.502 520.515L312.664 517.591C312.836 517.419 313.008 517.419 313.008 517.591C313.18 517.763 313.18 517.935 313.18 518.107V521.89C313.18 523.266 313.008 524.641 312.836 525.845C312.492 527.221 312.148 528.425 311.632 529.628C311.115 530.832 310.427 531.864 309.567 532.723C308.706 533.755 307.674 534.443 306.641 535.131C305.437 535.819 304.577 536.163 303.716 536.163C302.856 536.163 302.168 535.991 301.651 535.475C301.135 534.959 300.619 534.271 300.447 533.239C300.103 532.208 299.931 531.004 299.931 529.8C299.931 529.456 299.931 528.94 299.931 528.425C299.931 527.909 299.931 527.393 299.931 526.877C299.931 526.361 299.931 525.845 299.931 525.329C299.242 525.157 299.242 524.641 299.242 524.298Z" fill="#E0E0E0"/>
<path d="M326.602 519.311C326.774 519.139 326.946 519.311 326.946 519.311C327.118 519.483 327.118 519.655 327.118 519.826V522.234C327.118 522.406 327.118 522.75 326.946 522.922C326.774 523.094 326.602 523.266 326.602 523.438L316.794 529.112C316.622 529.284 316.449 529.112 316.449 529.112C316.277 528.94 316.277 528.768 316.277 528.596V506.414C316.277 506.242 316.277 505.898 316.449 505.726C316.621 505.554 316.794 505.382 316.794 505.21L326.43 499.708C326.602 499.536 326.774 499.708 326.774 499.708C326.946 499.879 326.946 500.051 326.946 500.223V502.631C326.946 502.803 326.946 503.147 326.774 503.319C326.602 503.491 326.43 503.663 326.43 503.834L319.203 507.961V513.464L325.914 509.509C326.086 509.337 326.258 509.509 326.258 509.509C326.43 509.681 326.43 509.853 326.43 510.025V512.432C326.43 512.604 326.43 512.948 326.258 513.12C326.086 513.292 325.914 513.464 325.914 513.636L319.203 517.591V523.266L326.602 519.311Z" fill="#E0E0E0"/>
<path d="M346.219 512.26C346.046 512.432 345.702 512.432 345.702 512.26C345.53 512.088 345.53 512.088 345.358 511.916L339.163 501.255V515.356C339.163 515.528 339.163 515.871 338.991 516.043C338.819 516.215 338.647 516.387 338.647 516.559L336.926 517.591C336.754 517.763 336.582 517.763 336.582 517.591C336.41 517.419 336.41 517.247 336.41 517.075V494.893C336.41 494.721 336.41 494.377 336.582 494.205C336.754 494.033 336.926 493.861 336.926 493.689L338.475 492.829C338.647 492.657 338.991 492.657 338.991 492.829C339.163 493.001 339.163 493.001 339.335 493.173L345.53 503.834V489.734C345.53 489.562 345.53 489.218 345.702 489.046C345.874 488.874 346.046 488.702 346.046 488.53L347.767 487.499C347.939 487.327 348.111 487.499 348.111 487.499C348.283 487.671 348.283 487.842 348.283 488.014V510.197C348.283 510.369 348.283 510.713 348.111 510.885C347.939 511.057 347.767 511.229 347.767 511.401L346.219 512.26Z" fill="#E0E0E0"/>
<path d="M351.897 493.861C351.897 492.485 352.069 491.282 352.413 489.906C352.757 488.53 353.101 487.327 353.617 486.295C354.134 485.091 354.822 484.06 355.682 483.2C356.543 482.168 357.403 481.48 358.608 480.792C359.64 480.105 360.673 479.933 361.361 479.933C362.221 479.933 362.91 480.277 363.426 480.792C363.942 481.308 364.286 481.996 364.63 483.028C364.975 484.06 365.147 485.091 365.147 486.467C365.147 486.811 365.147 487.327 365.147 487.843C365.147 488.359 365.147 488.874 365.147 489.39C365.147 489.906 365.147 490.422 365.147 491.11C365.147 491.626 365.147 492.142 365.147 492.485C365.147 493.861 364.975 495.065 364.63 496.441C364.286 497.816 363.942 499.02 363.426 500.052C362.91 501.255 362.221 502.287 361.361 503.147C360.501 504.179 359.64 504.866 358.436 505.554C357.403 506.242 356.371 506.414 355.51 506.414C354.65 506.414 353.962 506.07 353.445 505.554C352.929 505.038 352.585 504.351 352.241 503.319C351.897 502.287 351.725 501.255 351.725 500.052C351.725 499.708 351.725 499.192 351.725 498.676C351.725 498.16 351.725 497.644 351.725 497.128C351.725 496.612 351.725 496.097 351.725 495.409C351.897 494.893 351.897 494.377 351.897 493.861ZM362.049 488.187C362.049 486.639 361.705 485.435 361.017 484.919C360.328 484.403 359.468 484.404 358.436 485.091C357.403 485.607 356.543 486.639 355.854 487.843C355.166 489.046 354.822 490.594 354.822 492.313C354.822 493.173 354.822 494.205 354.822 495.237C354.822 496.269 354.822 497.3 354.822 498.16C354.822 499.708 355.166 500.911 355.854 501.427C356.543 501.943 357.403 501.943 358.436 501.255C359.468 500.739 360.328 499.708 361.017 498.504C361.705 497.3 362.049 495.753 362.049 494.033C362.049 493.173 362.049 492.142 362.049 491.11C362.049 490.078 362.049 489.046 362.049 488.187Z" fill="#E0E0E0"/>
<path d="M378.57 469.615C378.742 469.443 378.914 469.615 378.914 469.615C379.086 469.787 379.086 469.959 379.086 470.131V472.538C379.086 472.71 379.086 473.054 378.914 473.226C378.742 473.398 378.57 473.57 378.57 473.742L374.612 475.978V494.721C374.612 494.893 374.612 495.237 374.44 495.409C374.268 495.581 374.096 495.753 374.096 495.925L372.375 496.956C372.203 497.128 372.031 496.956 372.031 496.956C371.859 496.784 371.859 496.613 371.859 496.441V477.697L367.901 479.933C367.729 480.105 367.557 479.933 367.557 479.933C367.385 479.761 367.385 479.589 367.385 479.417V477.009C367.385 476.837 367.385 476.494 367.557 476.322C367.729 476.15 367.901 475.978 367.901 475.806L378.57 469.615Z" fill="#E0E0E0"/>
<path d="M397.326 458.782C397.498 458.61 397.67 458.782 397.67 458.782C397.842 458.954 397.842 459.126 397.842 459.298V461.705C397.842 461.877 397.842 462.221 397.67 462.393C397.498 462.565 397.326 462.737 397.326 462.909L390.271 467.036V473.742L396.982 469.959C397.154 469.787 397.326 469.959 397.326 469.959C397.498 470.131 397.498 470.303 397.498 470.475V472.882C397.498 473.054 397.498 473.398 397.326 473.57C397.154 473.742 396.982 473.914 396.982 474.086L390.271 477.869V485.779C390.271 485.951 390.271 486.295 390.099 486.467C389.927 486.639 389.755 486.811 389.755 486.983L388.034 488.014C387.862 488.186 387.69 488.014 387.69 488.014C387.518 487.843 387.518 487.671 387.518 487.499V465.316C387.518 465.144 387.518 464.8 387.69 464.628C387.862 464.456 388.034 464.284 388.034 464.112L397.326 458.782Z" fill="#E0E0E0"/>
<path d="M400.25 466.004C400.25 464.628 400.422 463.425 400.766 462.049C401.111 460.673 401.455 459.47 401.971 458.438C402.487 457.234 403.176 456.202 404.036 455.343C404.896 454.311 405.757 453.623 406.961 452.935C407.994 452.247 409.026 452.075 409.714 452.075C410.575 452.075 411.263 452.419 411.779 452.935C412.296 453.451 412.64 454.139 412.984 455.171C413.328 456.202 413.5 457.234 413.5 458.61C413.5 458.954 413.5 459.47 413.5 459.985C413.5 460.501 413.5 461.017 413.5 461.533C413.5 462.049 413.5 462.565 413.5 463.253C413.5 463.769 413.5 464.284 413.5 464.8C413.5 466.176 413.328 467.38 412.984 468.755C412.64 470.131 412.296 471.335 411.779 472.366C411.263 473.57 410.575 474.602 409.714 475.462C408.854 476.493 407.994 477.181 406.789 477.869C405.757 478.557 404.724 478.729 403.864 478.729C403.003 478.729 402.315 478.385 401.799 477.869C401.283 477.353 400.939 476.665 400.594 475.634C400.25 474.602 400.078 473.57 400.078 472.366C400.078 472.022 400.078 471.507 400.078 470.991C400.078 470.475 400.078 469.959 400.078 469.443C400.078 468.927 400.078 468.411 400.078 467.724C400.25 467.036 400.25 466.52 400.25 466.004ZM410.403 460.329C410.403 458.782 410.059 457.578 409.37 457.062C408.682 456.546 407.822 456.546 406.789 457.234C405.757 457.75 404.896 458.782 404.208 459.985C403.52 461.189 403.176 462.737 403.176 464.456C403.176 465.316 403.176 466.348 403.176 467.38C403.176 468.411 403.176 469.443 403.176 470.303C403.176 471.851 403.52 473.054 404.208 473.57C404.896 474.086 405.757 474.086 406.789 473.398C407.822 472.882 408.682 471.851 409.37 470.647C410.059 469.443 410.403 467.896 410.403 466.176C410.403 465.316 410.403 464.284 410.403 463.253C410.403 462.221 410.403 461.189 410.403 460.329Z" fill="#E0E0E0"/>
<path d="M428.987 440.554C429.159 440.382 429.331 440.554 429.331 440.554C429.503 440.726 429.503 440.898 429.503 441.07V455.171C429.503 456.546 429.331 457.922 429.159 459.298C428.815 460.673 428.471 461.877 427.955 462.909C427.438 464.113 426.75 465.144 425.89 466.004C425.029 466.864 424.169 467.724 423.136 468.24C422.104 468.927 421.071 469.099 420.383 469.271C419.523 469.271 419.007 469.099 418.318 468.583C417.802 468.068 417.458 467.38 417.114 466.348C416.77 465.316 416.77 464.113 416.77 462.737V448.636C416.77 448.464 416.77 448.121 416.942 447.949C417.114 447.777 417.286 447.605 417.286 447.433L419.007 446.401C419.179 446.229 419.351 446.401 419.351 446.401C419.523 446.573 419.523 446.745 419.523 446.917V460.845C419.523 461.705 419.523 462.565 419.695 463.081C419.867 463.597 420.039 464.113 420.383 464.285C420.727 464.456 421.071 464.628 421.416 464.628C421.76 464.628 422.276 464.456 422.792 464.113C423.308 463.769 423.825 463.425 424.169 463.081C424.513 462.565 425.029 462.049 425.201 461.533C425.545 461.017 425.718 460.33 425.89 459.47C426.062 458.782 426.062 457.922 426.062 456.89V442.962C426.062 442.79 426.062 442.446 426.234 442.274C426.406 442.102 426.578 441.93 426.578 441.758L428.987 440.554Z" fill="#E0E0E0"/>
<path d="M443.613 456.03C443.441 456.202 443.097 456.202 443.097 456.03C442.925 455.858 442.925 455.858 442.753 455.686L436.558 445.025V459.126C436.558 459.298 436.558 459.641 436.386 459.813C436.214 459.985 436.042 460.157 436.042 460.329L434.321 461.361C434.149 461.533 433.977 461.533 433.977 461.361C433.805 461.189 433.805 461.017 433.805 460.845V438.663C433.805 438.491 433.805 438.147 433.977 437.975C434.149 437.803 434.321 437.631 434.321 437.459L435.87 436.599C436.042 436.427 436.386 436.427 436.386 436.599C436.558 436.771 436.558 436.771 436.73 436.943L442.925 447.604V433.504C442.925 433.332 442.925 432.988 443.097 432.816C443.269 432.644 443.441 432.472 443.441 432.3L445.334 431.269C445.506 431.097 445.678 431.269 445.678 431.269C445.85 431.441 445.85 431.612 445.85 431.784V453.967C445.85 454.139 445.85 454.483 445.678 454.655C445.506 454.827 445.334 454.999 445.334 455.171L443.613 456.03Z" fill="#E0E0E0"/>
<path d="M456.003 424.906C457.036 424.218 458.068 423.875 458.928 423.875C459.789 423.875 460.477 424.046 460.993 424.562C461.51 425.078 462.026 425.766 462.198 426.798C462.542 427.83 462.714 429.033 462.714 430.409C462.714 432.128 462.714 433.676 462.714 435.568C462.714 437.115 462.542 438.491 462.198 439.867C461.854 441.242 461.51 442.446 460.993 443.65C460.477 444.853 459.789 445.885 458.928 446.745C458.068 447.605 457.208 448.464 456.175 448.98L450.497 452.247C450.325 452.419 450.153 452.419 450.153 452.247C449.98 452.075 449.98 451.904 449.98 451.732V429.549C449.98 429.377 449.98 429.033 450.153 428.861C450.325 428.689 450.497 428.517 450.497 428.345L456.003 424.906ZM459.617 432.3C459.617 431.613 459.445 430.925 459.273 430.409C459.101 429.893 458.928 429.377 458.584 429.205C458.24 428.861 457.896 428.689 457.38 428.689C456.864 428.689 456.347 428.861 455.659 429.205L452.734 430.925V446.401L455.831 444.681C456.519 444.337 457.036 443.822 457.38 443.306C457.896 442.79 458.24 442.274 458.412 441.586C458.756 440.898 458.928 440.21 459.101 439.523C459.273 438.835 459.273 437.975 459.445 437.287C459.617 435.74 459.617 434.02 459.617 432.3Z" fill="#E0E0E0"/>
<path d="M707.407 60.0132L621.024 109.881C619.82 110.569 618.787 112.288 618.787 113.664V224.06C618.787 225.436 619.82 227.156 621.024 227.843L628.94 232.314C630.144 233.002 632.209 233.002 633.414 232.314L719.796 182.447C721.001 181.759 722.033 180.039 722.033 178.664V68.2671C722.033 66.8915 721.001 65.1719 719.796 64.4841L711.881 60.0132C710.676 59.3254 708.611 59.3254 707.407 60.0132Z" fill="#FFC600"/>
<path d="M631.176 231.11V120.714C631.176 119.338 632.208 117.619 633.413 116.931L719.795 67.0633C721 66.3755 722.032 66.8914 722.032 68.2671V178.835C722.032 180.211 721 181.931 719.795 182.619L633.413 232.486C632.208 233.174 631.176 232.658 631.176 231.11Z" fill="#FFC600"/>
<path opacity="0.2" d="M633.414 232.486C632.209 233.174 630.144 233.174 628.94 232.486L621.024 228.015C619.82 227.327 618.787 225.608 618.787 224.232V113.836C618.787 113.148 619.131 112.288 619.475 111.6L631.865 118.651C631.521 119.338 631.177 120.198 631.177 120.886V231.282C631.177 232.486 632.037 233.174 633.414 232.486Z" fill="black"/>
<path opacity="0.4" d="M722.032 67.9231C721.86 66.7194 721 66.3755 719.795 67.0633L633.413 116.931C632.725 117.275 632.208 117.963 631.864 118.65L619.475 111.6C619.819 110.912 620.335 110.397 621.023 110.053L707.406 60.1851C708.61 59.4972 710.675 59.4972 711.88 60.1851L719.795 64.6559C721 65.1718 721.86 66.5475 722.032 67.9231Z" fill="white"/>
<path d="M618.787 147.023L600.891 165.251C599.859 166.283 600.203 167.658 601.235 168.346C601.579 168.518 613.625 175.396 613.625 175.396L631.176 154.246L618.787 147.023Z" fill="#FFC600"/>
<path opacity="0.1" d="M618.787 147.023L600.891 165.251C599.859 166.283 600.203 167.658 601.235 168.346C601.579 168.518 613.625 175.396 613.625 175.396L631.176 154.246L618.787 147.023Z" fill="black"/>
<path d="M631.177 154.246L613.281 172.473C611.904 173.849 613.109 176.084 615.001 175.74L631.177 173.333C632.897 173.333 632.897 154.246 631.177 154.246Z" fill="#FFC600"/>
<path d="M649.244 136.018L662.15 148.399" stroke="#455A64" stroke-width="2" stroke-miterlimit="10" stroke-linecap="round"/>
<path d="M649.244 155.793L662.15 128.624" stroke="#455A64" stroke-width="2" stroke-miterlimit="10" stroke-linecap="round"/>
<path d="M691.232 111.772L703.966 124.153" stroke="#455A64" stroke-width="2" stroke-miterlimit="10" stroke-linecap="round"/>
<path d="M691.232 131.547L703.966 104.378" stroke="#455A64" stroke-width="2" stroke-miterlimit="10" stroke-linecap="round"/>
<path d="M648.729 186.574L704.653 154.246" stroke="#455A64" stroke-width="2" stroke-miterlimit="10" stroke-linecap="round"/>
<path d="M683.66 166.283V181.931C683.66 186.746 686.758 188.809 690.715 186.574C694.501 184.338 697.77 178.664 697.77 174.021V158.373" stroke="#455A64" stroke-width="2" stroke-miterlimit="10" stroke-linecap="round"/>
<path d="M690.543 162.328V177.46" stroke="#455A64" stroke-width="2" stroke-miterlimit="10" stroke-linecap="round"/>
<path d="M638.402 629.019C638.402 626.44 637.714 611.823 636.853 598.411C635.993 584.31 635.993 571.413 635.993 571.413L659.911 589.297C654.749 620.937 654.233 627.987 654.061 633.146L653.545 633.662C653.545 633.834 653.717 634.178 653.717 635.037C653.717 641.228 646.834 644.495 641.327 648.622C639.262 650.17 632.895 654.984 626.701 658.252C622.743 660.315 614.827 660.487 613.795 657.908C621.366 653.093 630.486 647.074 635.649 641.4C638.23 638.477 638.23 634.522 638.402 629.019Z" fill="#FFA8A7"/>
<path d="M604.504 665.646C604.16 665.646 603.988 669.085 605.881 670.46C608.118 672.18 614.312 675.103 622.572 673.556C630.66 672.18 635.134 669.601 638.231 666.677C641.329 663.754 645.803 659.627 649.416 658.595C652.858 657.736 656.471 656.016 657.504 654.812C658.536 653.609 658.192 648.966 658.192 648.966L604.504 665.646Z" fill="#263238"/>
<path d="M654.234 630.91C654.234 630.91 655.094 631.082 655.438 632.114C655.783 633.49 656.127 637.273 656.815 639.336C657.675 642.26 658.536 648.45 658.192 650.857C657.847 653.265 652.341 655.328 648.727 656.876C645.114 658.424 640.984 661.519 637.37 664.786C633.585 668.225 625.669 671.836 620.335 672.008C613.968 672.18 606.741 670.632 605.02 667.709C602.783 664.098 604.332 662.035 613.452 657.22C615.172 656.36 621.195 652.405 623.26 650.857C628.767 646.902 634.273 641.572 636.682 635.037C637.026 634.35 637.198 633.49 637.887 632.974C638.403 632.63 639.091 632.63 639.779 632.802C641.328 632.974 642.877 633.318 644.426 634.006C645.63 634.522 647.523 635.209 647.523 636.757C647.523 637.273 647.351 637.789 647.179 638.477C647.007 638.82 647.007 639.336 647.351 639.508C647.695 639.68 648.039 639.508 648.211 639.164C649.072 638.305 649.76 637.101 650.62 636.069C650.964 635.553 651.481 634.865 651.997 634.522C652.513 634.178 653.201 633.834 653.546 633.49C654.406 632.458 654.234 631.598 654.234 630.91Z" fill="#FFC600"/>
<path opacity="0.3" d="M654.234 630.91C654.234 630.91 655.094 631.082 655.438 632.114C655.783 633.49 656.127 637.273 656.815 639.336C657.675 642.26 658.536 648.45 658.192 650.857C657.847 653.265 652.341 655.328 648.727 656.876C645.114 658.424 640.984 661.519 637.37 664.786C633.585 668.225 625.669 671.836 620.335 672.008C613.968 672.18 606.741 670.632 605.02 667.709C602.783 664.098 604.332 662.035 613.452 657.22C615.172 656.36 621.195 652.405 623.26 650.857C628.767 646.902 634.273 641.572 636.682 635.037C637.026 634.35 637.198 633.49 637.887 632.974C638.403 632.63 639.091 632.63 639.779 632.802C641.328 632.974 642.877 633.318 644.426 634.006C645.63 634.522 647.523 635.209 647.523 636.757C647.523 637.273 647.351 637.789 647.179 638.477C647.007 638.82 647.007 639.336 647.351 639.508C647.695 639.68 648.039 639.508 648.211 639.164C649.072 638.305 649.76 637.101 650.62 636.069C650.964 635.553 651.481 634.865 651.997 634.522C652.513 634.178 653.201 633.834 653.546 633.49C654.406 632.458 654.234 631.598 654.234 630.91Z" fill="black"/>
<path opacity="0.2" d="M626.013 657.736C620.335 660.315 622.744 661.347 624.465 661.519C626.185 661.691 635.65 655.5 641.5 650.513C647.523 645.355 651.137 639.68 653.374 637.789C654.234 637.101 655.094 636.241 655.955 635.381C655.783 634.178 655.611 632.974 655.438 632.286C655.094 631.254 654.234 631.082 654.234 631.082C654.234 631.77 654.234 632.63 653.718 633.318C653.374 633.834 652.685 634.006 652.169 634.349C651.653 634.865 651.137 635.381 650.792 635.897C649.932 636.929 649.416 638.133 648.383 638.992C643.565 645.699 631.864 655.156 626.013 657.736Z" fill="black"/>
<path d="M624.982 660.487C625.154 660.487 625.154 660.487 625.326 660.315C625.498 660.143 625.498 659.799 625.326 659.455C623.605 657.564 618.615 654.984 614.485 655.672C614.141 655.672 613.969 656.016 613.969 656.36C613.969 656.704 614.313 656.876 614.657 656.876C618.615 656.188 623.089 658.767 624.465 660.143C624.638 660.487 624.81 660.487 624.982 660.487Z" fill="#EBEBEB"/>
<path d="M629.8 657.22C629.972 657.22 629.972 657.22 630.144 657.048C630.316 656.876 630.316 656.532 630.144 656.188C628.423 654.297 623.605 651.889 619.303 652.405C618.959 652.405 618.787 652.749 618.787 653.093C618.787 653.437 619.131 653.609 619.475 653.609C623.433 652.921 627.907 655.328 629.284 656.876C629.456 657.048 629.628 657.22 629.8 657.22Z" fill="#EBEBEB"/>
<path d="M634.79 653.953C634.962 653.953 634.962 653.953 635.134 653.781C635.306 653.609 635.306 653.265 635.134 652.921C633.414 651.029 628.423 648.45 624.294 649.138C623.949 649.138 623.777 649.482 623.777 649.826C623.777 650.17 624.121 650.342 624.466 650.342C628.423 649.654 632.897 652.061 634.274 653.609C634.446 653.953 634.618 653.953 634.79 653.953Z" fill="#EBEBEB"/>
<path d="M639.437 650.342C639.609 650.342 639.609 650.342 639.781 650.17C639.953 649.998 639.953 649.654 639.781 649.31C638.06 647.418 633.07 644.839 628.94 645.527C628.596 645.527 628.424 645.871 628.424 646.215C628.424 646.559 628.768 646.731 629.112 646.731C633.07 646.043 637.544 648.45 638.92 649.998C639.093 650.342 639.265 650.342 639.437 650.342Z" fill="#EBEBEB"/>
<path d="M643.911 646.73C644.083 646.73 644.083 646.73 644.255 646.558C644.427 646.386 644.599 646.043 644.255 645.699C641.846 642.947 636.683 641.228 632.381 641.916C632.037 641.916 631.865 642.26 631.865 642.603C631.865 642.947 632.209 643.119 632.554 643.119C636.339 642.431 641.329 643.979 643.394 646.386C643.566 646.73 643.739 646.73 643.911 646.73Z" fill="#EBEBEB"/>
<path d="M686.584 594.628L712.74 594.112C712.395 611.479 709.642 630.911 709.298 647.247C709.298 650.342 709.47 671.149 708.266 677.511C706.545 686.969 695.188 685.765 694.672 680.09C693.983 674.416 695.36 649.998 695.188 647.59C695.188 637.101 690.198 619.389 687.616 600.646C687.616 599.442 686.756 595.487 686.584 594.628Z" fill="#FFA8A7"/>
<path d="M690.541 683.873C690.369 689.548 690.886 693.159 692.434 696.77C694.155 700.209 697.769 701.585 701.554 701.069C705.34 700.553 710.502 698.318 712.051 693.675C713.6 689.032 713.772 685.593 713.256 680.434L690.541 683.873Z" fill="#263238"/>
<path d="M709.469 645.183C711.018 645.527 710.674 652.921 710.846 660.487C711.018 668.569 713.083 672.18 713.255 678.715C713.427 686.281 712.739 689.548 709.641 693.847C706.544 698.146 696.908 701.757 692.778 694.707C689.508 689.032 690.025 683.186 691.057 675.619C692.09 667.881 692.95 662.551 693.294 656.532C693.466 650.858 693.638 645.355 695.015 644.839C695.015 645.699 695.015 646.731 695.015 647.59C695.015 648.278 694.843 651.202 695.703 651.373C695.875 650.686 695.875 649.998 695.875 649.31C695.875 648.622 696.047 647.934 696.392 647.59C696.908 647.075 697.596 647.075 698.112 646.903C699.661 646.731 701.21 646.559 702.758 646.559C703.619 646.559 704.307 646.559 705.167 646.731C705.856 646.731 706.544 646.903 707.06 647.247C707.404 647.418 707.749 647.762 707.749 648.106C707.749 648.45 707.749 648.622 707.749 648.966C707.749 649.482 707.749 649.998 707.749 650.514C707.749 650.686 707.921 651.03 708.093 651.03C708.265 651.03 708.437 650.858 708.437 650.686C708.609 649.826 708.437 649.138 708.609 648.106C708.609 647.59 708.609 646.903 708.609 646.387C709.297 646.043 709.469 645.527 709.469 645.183Z" fill="#FFC600"/>
<path opacity="0.3" d="M709.469 645.183C711.018 645.527 710.674 652.921 710.846 660.487C711.018 668.569 713.083 672.18 713.255 678.715C713.427 686.281 712.739 689.548 709.641 693.847C706.544 698.146 696.908 701.757 692.778 694.707C689.508 689.032 690.025 683.186 691.057 675.619C692.09 667.881 692.95 662.551 693.294 656.532C693.466 650.858 693.638 645.355 695.015 644.839C695.015 645.699 695.015 646.731 695.015 647.59C695.015 648.278 694.843 651.202 695.703 651.373C695.875 650.686 695.875 649.998 695.875 649.31C695.875 648.622 696.047 647.934 696.392 647.59C696.908 647.075 697.596 647.075 698.112 646.903C699.661 646.731 701.21 646.559 702.758 646.559C703.619 646.559 704.307 646.559 705.167 646.731C705.856 646.731 706.544 646.903 707.06 647.247C707.404 647.418 707.749 647.762 707.749 648.106C707.749 648.45 707.749 648.622 707.749 648.966C707.749 649.482 707.749 649.998 707.749 650.514C707.749 650.686 707.921 651.03 708.093 651.03C708.265 651.03 708.437 650.858 708.437 650.686C708.609 649.826 708.437 649.138 708.609 648.106C708.609 647.59 708.609 646.903 708.609 646.387C709.297 646.043 709.469 645.527 709.469 645.183Z" fill="black"/>
<path opacity="0.2" d="M707.92 681.982C707.748 684.733 710.501 684.045 711.017 680.262C711.533 676.479 710.329 667.194 711.017 660.487C710.845 652.921 711.189 645.355 709.641 645.183C709.641 645.355 709.641 645.355 709.641 645.527L709.469 649.31C709.469 649.826 709.469 650.342 709.469 651.03C708.952 656.532 708.78 667.366 708.78 672.524C708.436 677.339 708.092 679.231 707.92 681.982Z" fill="black"/>
<path opacity="0.2" d="M697.08 681.982C696.908 679.231 696.564 677.339 696.564 672.352C696.564 667.366 696.219 656.704 695.703 651.03C695.359 649.998 695.531 648.278 695.531 647.934C695.531 647.247 695.531 646.215 695.531 645.355V645.183C694.499 645.527 694.154 648.622 693.982 652.405C693.982 654.641 693.982 657.392 694.155 660.659C694.843 667.194 693.638 676.651 694.155 680.434C694.499 684.045 697.252 684.733 697.08 681.982Z" fill="black"/>
<path d="M696.047 682.154H696.219C696.219 682.154 702.242 679.746 708.264 682.154C708.608 682.326 708.953 682.154 708.953 681.81C709.125 681.466 708.953 681.122 708.608 681.122C702.069 678.715 695.875 681.122 695.703 681.294C695.358 681.466 695.186 681.81 695.359 681.982C695.531 681.982 695.875 682.154 696.047 682.154Z" fill="#EBEBEB"/>
<path d="M695.359 676.135H695.531C695.531 676.135 702.242 673.728 709.125 675.963C709.469 676.135 709.814 675.963 709.814 675.619C709.986 675.276 709.814 674.932 709.469 674.932C702.242 672.524 695.531 674.932 695.187 675.104C694.843 675.276 694.671 675.619 694.843 675.791C694.843 675.963 695.015 676.135 695.359 676.135Z" fill="#EBEBEB"/>
<path d="M709.125 670.461C709.298 670.461 709.47 670.289 709.642 670.117C709.814 669.773 709.642 669.429 709.298 669.429C702.587 666.334 695.359 669.257 695.015 669.429C694.671 669.601 694.499 669.945 694.671 670.117C694.843 670.461 695.187 670.633 695.359 670.461C695.359 670.461 702.414 667.709 708.781 670.461C709.125 670.461 709.125 670.461 709.125 670.461Z" fill="#EBEBEB"/>
<path d="M709.297 665.13C709.469 665.13 709.641 664.958 709.813 664.786C709.985 664.442 709.813 664.098 709.469 664.098C702.069 660.659 695.186 663.926 694.842 663.926C694.498 664.098 694.498 664.442 694.498 664.614C694.67 664.958 695.014 664.958 695.186 664.958C695.186 664.958 701.897 661.863 708.78 665.13C709.125 665.13 709.297 665.13 709.297 665.13Z" fill="#EBEBEB"/>
<path d="M709.468 659.111C709.641 659.111 709.813 658.94 709.985 658.768C710.157 658.424 709.985 658.08 709.641 657.908C702.757 654.469 695.358 657.736 695.014 657.908C694.67 658.08 694.67 658.424 694.67 658.596C694.842 658.94 695.186 658.94 695.358 658.94C695.358 658.94 702.585 655.672 709.124 658.94C709.296 659.111 709.296 659.111 709.468 659.111Z" fill="#EBEBEB"/>
<path d="M701.899 425.078C711.191 450.528 711.363 466.348 709.987 493.173C708.61 517.763 706.373 539.257 706.373 539.257C706.717 543.556 712.912 551.982 713.772 571.241C714.633 589.125 712.052 611.823 712.052 611.823C712.052 611.823 700.006 616.294 689.854 611.995C689.854 611.995 679.185 566.083 676.26 543.556C673.679 523.953 669.893 500.739 669.893 500.739L663.182 543.556C663.182 543.556 664.903 555.077 664.214 563.159C663.354 573.649 658.192 601.678 658.192 601.678C658.192 601.678 645.63 606.149 637.026 598.583C637.026 598.583 634.445 556.453 633.069 540.633C631.348 519.31 631.692 460.845 636.682 430.752L701.899 425.078Z" fill="#455A64"/>
<path d="M669.722 500.567L665.248 465.144C665.248 465.144 648.384 462.908 640.641 455.858C640.641 455.858 646.491 466.348 660.602 468.411L666.796 501.427L663.011 543.384L669.722 500.567Z" fill="#263238"/>
<path d="M674.367 370.224C674.539 370.224 674.539 370.052 674.711 370.052C696.393 359.734 705.169 335.66 704.136 312.79C703.792 305.568 702.587 298.346 699.662 291.639C696.737 284.933 692.091 278.914 685.896 275.131C681.078 272.208 675.743 270.832 670.237 270.488C665.247 270.145 658.708 270.316 653.89 272.208C651.825 273.068 651.481 272.896 649.244 272.38C647.523 272.036 645.802 271.864 644.081 272.036C639.263 272.552 635.133 275.303 632.208 279.086C628.25 284.073 627.734 291.467 629.111 297.314C629.799 300.065 633.585 304.192 633.413 306.771C633.241 310.554 630.315 313.65 627.39 316.917C624.465 320.184 620.851 322.763 619.474 327.578C618.27 331.705 617.926 340.647 627.39 344.086C613.796 362.142 627.218 371.771 634.617 374.523C639.263 376.07 645.114 377.102 650.104 376.414C658.192 375.21 666.623 373.835 674.367 370.224Z" fill="#37474F"/>
<path d="M627.219 400.832C635.306 392.578 649.761 374.007 649.761 374.007L658.02 345.634C658.192 345.634 653.891 345.806 652.514 345.634C643.738 346.15 640.985 347.01 635.478 353.028C631.176 357.843 614.485 380.541 608.634 388.279L593.32 368.676C589.706 363.173 590.222 356.811 588.329 352.34C586.436 347.869 583.339 345.806 580.93 341.679C578.521 337.552 577.833 334.973 575.768 337.036C573.703 339.1 576.112 344.774 576.456 346.15C576.8 347.525 579.898 351.308 574.735 349.245C569.573 347.182 561.485 337.724 559.42 335.832C557.356 333.941 556.323 336.864 556.667 339.271C557.183 341.679 554.946 347.01 555.635 350.965C556.495 355.092 557.183 356.983 561.141 361.11C564.927 364.893 574.047 369.536 577.661 374.351C581.274 379.337 588.846 394.642 593.492 403.927C599.342 415.62 604.505 419.575 611.216 415.62C617.926 411.665 624.293 403.927 627.219 400.832Z" fill="#FFA8A7"/>
<path d="M608.635 388.279C612.42 391.89 613.969 396.361 614.141 398.597C614.141 398.597 615.862 392.922 609.839 386.56L608.635 388.279Z" fill="#F28F8F"/>
<path d="M637.716 395.673C626.875 386.732 630.489 375.039 634.447 367.3C642.362 351.652 650.622 345.462 654.063 345.462L675.745 345.634C686.07 347.01 694.157 346.322 696.566 347.01C702.933 348.557 703.105 353.716 703.277 360.594C703.622 367.988 704.31 367.3 702.417 379.509C702.417 379.509 699.492 388.967 698.287 393.266C697.083 397.565 695.018 404.099 696.738 410.978C697.427 413.557 699.147 416.136 701.901 423.53C704.482 430.409 705.342 432.988 707.407 442.102C707.407 442.102 692.609 455.858 661.635 451.388C638.921 448.12 634.447 440.726 634.447 440.726L638.749 414.245C638.232 404.787 638.06 401.52 637.716 395.673Z" fill="#FFC600"/>
<path opacity="0.1" d="M651.826 393.266C651.826 393.266 660.774 400.488 671.099 396.877C681.423 393.438 683.144 384.496 683.144 384.496C683.144 384.496 684.005 396.189 670.927 399.972C658.365 403.755 651.826 393.266 651.826 393.266Z" fill="black"/>
<path d="M729.432 323.795C724.786 318.121 712.225 303.676 709.988 300.753C708.439 298.861 706.202 297.314 704.481 296.626C702.588 295.938 700.695 294.563 699.491 293.359C698.63 292.499 696.566 288.716 695.877 287.684C693.296 284.417 691.059 282.354 687.618 279.946C684.004 277.367 680.562 276.163 676.777 273.756C674.54 272.38 671.959 270.832 674.368 268.425C675.056 267.737 676.088 267.049 677.121 266.877C682.283 265.846 687.79 267.565 694.156 269.285C697.082 270.145 700.007 270.832 702.244 271.864C703.793 272.38 705.341 273.068 706.546 274.1C708.267 275.475 709.299 277.367 710.332 279.258C713.257 284.073 720.14 287.34 724.442 291.123C729.432 295.422 734.422 299.205 740.101 304.02C745.263 308.319 751.63 313.994 755.588 319.324C759.029 323.967 757.997 326.718 756.62 328.782C749.565 339.271 733.734 351.136 728.056 355.779C722.033 360.766 717.903 363.861 712.397 368.676C709.643 371.083 704.137 377.102 701.728 380.025C701.04 380.885 699.835 381.229 698.803 380.713C692.608 377.274 688.478 360.078 693.296 349.417C694.501 346.665 695.877 346.666 695.877 346.666C705.514 339.787 729.432 323.795 729.432 323.795Z" fill="#FFA8A7"/>
<path d="M729.433 323.795C729.433 323.795 733.563 329.47 740.618 331.705C740.618 331.705 734.595 333.081 726.68 325.687L729.433 323.795Z" fill="#F28F8F"/>
<path d="M640.984 312.618C641.156 329.642 646.491 333.941 649.244 335.316C651.997 336.52 657.332 336.004 662.666 335.144L662.494 345.462C662.494 345.462 656.299 351.652 656.815 356.295C657.16 360.938 666.108 361.626 672.991 357.155C677.981 353.888 681.594 350.105 683.143 348.385C683.659 347.697 684.004 346.838 684.004 345.978L684.348 321.904C684.348 321.904 687.101 324.999 692.263 321.56C697.425 318.121 697.942 311.758 694.844 308.147C692.779 305.568 687.101 305.224 684.348 309.179C682.799 312.102 682.971 314.166 680.906 313.822C678.841 313.478 678.669 311.242 678.497 309.523C678.325 307.803 678.497 307.287 678.325 305.224C673.335 304.192 668 297.142 667.484 291.983C663.871 293.531 660.085 294.735 656.471 294.391C650.793 294.047 647.867 292.843 645.114 288.716C644.426 289.576 643.91 290.78 643.566 291.811C642.705 294.563 642.189 296.282 641.845 298.518C641.156 303.16 640.984 307.975 640.984 312.618Z" fill="#FFA8A7"/>
<path d="M662.666 335.144C668.172 334.457 679.53 331.533 681.422 327.062C681.422 327.062 680.734 329.814 677.293 332.737C673.851 335.488 662.666 338.584 662.666 338.584V335.144Z" fill="#F28F8F"/>
<path d="M657.16 325.859C657.16 327.062 658.193 328.094 659.397 328.094C660.602 328.094 661.634 327.062 661.634 325.859C661.634 324.655 660.602 323.623 659.397 323.623C658.193 323.623 657.16 324.655 657.16 325.859Z" fill="#B16668"/>
<path d="M659.913 309.007C659.741 310.383 660.774 311.586 662.15 311.586C663.527 311.586 664.559 310.726 664.731 309.351C664.903 307.975 663.871 306.771 662.494 306.771C661.118 306.771 660.085 307.631 659.913 309.007Z" fill="#263238"/>
<path d="M644.082 307.975C644.082 309.179 644.942 310.211 646.147 310.383C647.524 310.383 648.384 309.695 648.384 308.319C648.384 307.115 647.524 306.084 646.319 305.912C645.115 305.912 644.082 306.771 644.082 307.975Z" fill="#263238"/>
<path d="M655.095 305.912L653.374 320.012L645.975 317.089L655.095 305.912Z" fill="#F28F8F"/>
<path d="M668.517 302.817L664.215 298.862C663.183 300.065 663.183 301.957 664.387 303.161C665.592 304.192 667.484 304.192 668.517 302.817Z" fill="#263238"/>
<path d="M647.179 297.486L642.533 301.097C643.394 302.473 645.286 302.817 646.663 301.785C647.868 300.753 648.212 298.861 647.179 297.486Z" fill="#263238"/>
</g>
<defs>
<clipPath id="clip0_201_4256">
<rect width="827" height="818" fill="white"/>
</clipPath>
</defs>
</svg>
