<svg width="767" height="747" viewBox="0 0 767 747" fill="none" xmlns="http://www.w3.org/2000/svg">
<path d="M706.431 149.464C701.134 140.95 695.279 132.685 688.795 124.709C636.604 60.5234 568.366 33.3726 490.405 15.1754C409.886 -3.62028 315.613 -9.53333 238.314 24.4466C220.118 32.4452 202.868 43.1584 189.139 57.6717C137.427 112.336 119.698 203.94 62.0755 276.336C4.45299 348.731 -23.6171 438.856 28.0939 524.549C49.9784 560.814 77.8807 590.733 110.898 616.98C151.55 649.299 186.614 692.89 233.593 718.121C282.97 744.64 348.73 753.879 403.372 741.735C465.714 727.88 502.279 672.793 549.869 635.221C587.386 605.602 632.265 586.216 669.029 555.667C725.353 508.864 768.054 433.635 760.915 359.072C753.991 286.741 745.023 211.493 706.431 149.464Z" fill="#92E3A9"/>
<path opacity="0.7" d="M706.431 149.464C701.134 140.95 695.279 132.685 688.795 124.709C636.604 60.5234 568.366 33.3726 490.405 15.1754C409.886 -3.62028 315.613 -9.53333 238.314 24.4466C220.118 32.4452 202.868 43.1584 189.139 57.6717C137.427 112.336 119.698 203.94 62.0755 276.336C4.45299 348.731 -23.6171 438.856 28.0939 524.549C49.9784 560.814 77.8807 590.733 110.898 616.98C151.55 649.299 186.614 692.89 233.593 718.121C282.97 744.64 348.73 753.879 403.372 741.735C465.714 727.88 502.279 672.793 549.869 635.221C587.386 605.602 632.265 586.216 669.029 555.667C725.353 508.864 768.054 433.635 760.915 359.072C753.991 286.741 745.023 211.493 706.431 149.464Z" fill="white"/>
<path opacity="0.2" d="M716.058 16.5066C712.784 16.5066 710.035 18.6341 709.039 21.5712H345.303C344.306 18.6341 341.558 16.5066 338.284 16.5066C334.172 16.5066 330.84 19.8389 330.84 23.9503C330.84 28.0617 334.172 31.3941 338.284 31.3941C341.558 31.3941 344.306 29.2666 345.303 26.331H709.039C710.035 29.2682 712.784 31.3941 716.058 31.3941C720.169 31.3941 723.502 28.0617 723.502 23.9503C723.502 19.8406 720.169 16.5066 716.058 16.5066Z" fill="black"/>
<g opacity="0.2">
<path d="M431.332 27.6729C436.517 153.776 441.051 281.084 446.477 406.73L445.94 431.354C445.94 431.354 422.628 431.355 410.359 432.582C398.089 433.809 379.071 433.809 365.573 433.809C352.076 433.809 344.715 428.901 344.715 428.901L345.592 406.693C348.315 281.112 351.254 153.789 353.17 27.6729" stroke="black" stroke-miterlimit="10" stroke-linejoin="round"/>
<path d="M373.213 385.884L373.148 400.731" stroke="black" stroke-miterlimit="10" stroke-linejoin="round"/>
<path d="M374.485 96.5859L373.273 372.7" stroke="black" stroke-miterlimit="10" stroke-linejoin="round"/>
<path d="M374.799 24.8792L374.52 88.347" stroke="black" stroke-miterlimit="10" stroke-linejoin="round"/>
<path d="M395.709 169.925L392.93 353.749" stroke="black" stroke-miterlimit="10" stroke-linejoin="round"/>
<path d="M397.876 26.5273L395.883 158.424" stroke="black" stroke-miterlimit="10" stroke-linejoin="round"/>
<path d="M415.234 221.044L416.007 391.665" stroke="black" stroke-miterlimit="10" stroke-linejoin="round"/>
<path d="M414.688 99.8875L415.173 207.039" stroke="black" stroke-miterlimit="10" stroke-linejoin="round"/>
<path d="M414.359 28.1758L414.625 86.6999" stroke="black" stroke-miterlimit="10" stroke-linejoin="round"/>
</g>
<g opacity="0.2">
<path d="M619.514 27.6729C614.527 161.188 608.18 296.053 603.402 428.864C603.402 428.864 619.279 431.266 629.497 431.266C639.715 431.266 641.758 431.266 652.997 431.266C664.236 431.266 670.367 431.266 681.606 431.266C692.845 431.266 705.731 428.774 705.731 428.774C703.381 296.053 701.795 161.188 697.677 27.6729" stroke="black" stroke-miterlimit="10" stroke-linejoin="round"/>
<path d="M677.633 385.884L677.697 400.731" stroke="black" stroke-miterlimit="10" stroke-linejoin="round"/>
<path d="M676.363 96.5862L677.575 372.7" stroke="black" stroke-miterlimit="10" stroke-linejoin="round"/>
<path d="M676.047 24.8792L676.326 88.347" stroke="black" stroke-miterlimit="10" stroke-linejoin="round"/>
<path d="M655.137 169.925L657.916 353.749" stroke="black" stroke-miterlimit="10" stroke-linejoin="round"/>
<path d="M652.973 26.5273L654.966 158.424" stroke="black" stroke-miterlimit="10" stroke-linejoin="round"/>
<path d="M635.61 221.045L634.836 391.665" stroke="black" stroke-miterlimit="10" stroke-linejoin="round"/>
<path d="M636.161 99.8877L635.676 207.039" stroke="black" stroke-miterlimit="10" stroke-linejoin="round"/>
<path d="M636.483 28.1758L636.219 86.6999" stroke="black" stroke-miterlimit="10" stroke-linejoin="round"/>
</g>
<g opacity="0.2">
<path d="M433.648 63.5081H470.256V106.217H436.089" stroke="black" stroke-miterlimit="10" stroke-linejoin="round"/>
<path d="M514.903 63.6145H476.641V106.453H514.903V63.6145Z" stroke="black" stroke-miterlimit="10" stroke-linejoin="round"/>
</g>
<g opacity="0.2">
<path d="M617.689 63.5081H581.082V106.217H615.249" stroke="black" stroke-miterlimit="10" stroke-linejoin="round"/>
<path d="M536.437 106.45H574.699V63.6122L536.437 63.6122V106.45Z" stroke="black" stroke-miterlimit="10" stroke-linejoin="round"/>
</g>
<path opacity="0.2" d="M439.688 257.573H515.877V129.536H436.34" stroke="black" stroke-miterlimit="10" stroke-linejoin="round"/>
<path opacity="0.2" d="M613.832 128.451H535.969V257.572H607.971" stroke="black" stroke-miterlimit="10" stroke-linejoin="round"/>
<path opacity="0.2" d="M442.199 287.956H515.875V416.664H447.78" stroke="black" stroke-miterlimit="10" stroke-linejoin="round"/>
<path opacity="0.2" d="M608.809 286.87H535.969V417.858H602.377" stroke="black" stroke-miterlimit="10" stroke-linejoin="round"/>
<path opacity="0.2" d="M447.445 426.033H603.403" stroke="black" stroke-miterlimit="10" stroke-linejoin="round"/>
<path opacity="0.2" d="M433.336 48.6882H617.601" stroke="black" stroke-miterlimit="10" stroke-linejoin="round"/>
<path opacity="0.2" d="M525.91 49.5706V424.271" stroke="black" stroke-miterlimit="10" stroke-linejoin="round"/>
<path opacity="0.2" d="M435.676 119.634H614.911" stroke="black" stroke-miterlimit="10" stroke-linejoin="round"/>
<g opacity="0.2">
<path d="M555.01 587.634V513.368V463.108C555.01 453.215 547.003 445.208 537.109 445.208H374.897H373.52V587.634V588.876" stroke="black" stroke-miterlimit="10" stroke-linejoin="round"/>
<path d="M374.9 445.208H373.523H208.257C198.379 445.208 190.371 453.215 190.371 463.108V516.181V587.633" stroke="black" stroke-miterlimit="10" stroke-linejoin="round"/>
<path d="M571.173 599.533V641.41H373.594V587.633H559.274C565.846 587.634 571.173 592.963 571.173 599.533Z" stroke="black" stroke-miterlimit="10" stroke-linejoin="round"/>
<path d="M375.107 587.634H374.897H373.595H373.521H193.691H190.368H186.102C179.531 587.634 174.203 592.963 174.203 599.533V641.411H373.594H375.105" stroke="black" stroke-miterlimit="10" stroke-linejoin="round"/>
<path d="M571.502 641.412H174.203V708.883H571.502V641.412Z" stroke="black" stroke-miterlimit="10" stroke-linejoin="round"/>
<path d="M190.369 516.182C188.183 513.908 185.101 512.486 181.702 512.486H145.722C139.091 512.486 133.719 517.844 133.719 524.475V696.895C133.719 703.512 139.091 708.884 145.722 708.884H174.204H181.702" stroke="black" stroke-miterlimit="10" stroke-linejoin="round"/>
<path d="M559.515 708.883H571.504H595.497C602.113 708.883 607.486 703.51 607.486 696.894V524.475C607.486 517.844 602.113 512.486 595.497 512.486H559.517C557.915 512.486 556.404 512.8 555.012 513.368" stroke="black" stroke-miterlimit="10" stroke-linejoin="round"/>
</g>
<path d="M383.99 203.806V147.485H378.895V75.383C378.895 50.8371 358.996 30.9382 334.45 30.9382H95.7182C71.1724 30.9382 51.2734 50.8371 51.2734 75.383V560.465C51.2734 585.011 71.1724 604.91 95.7182 604.91H334.45C358.996 604.91 378.895 585.011 378.895 560.465V251.805H383.99V218.525H378.895V203.806H383.99Z" fill="#707070" stroke="#263238" stroke-miterlimit="10" stroke-linejoin="round"/>
<path d="M324.529 598.787H105.644C78.4596 598.787 56.4219 576.75 56.4219 549.565V86.2816C56.4219 59.097 78.4596 37.0593 105.644 37.0593H324.529C351.714 37.0593 373.751 59.097 373.751 86.2816V549.565C373.751 576.75 351.714 598.787 324.529 598.787Z" fill="#263238" stroke="#263238" stroke-miterlimit="10" stroke-linejoin="round"/>
<path d="M320.483 41.0964H232.351L232.263 41.4158C229.656 50.808 223.648 56.9049 216.998 56.9049H213.172C206.522 56.9049 200.515 50.8096 197.907 41.4158L197.818 41.0964H109.687C85.1411 41.0964 65.2422 60.9954 65.2422 85.5412V528.719C65.2422 553.265 85.1411 573.164 109.687 573.164H320.481C345.027 573.164 364.926 553.265 364.926 528.719V85.5412C364.928 60.9954 345.029 41.0964 320.483 41.0964Z" fill="white" stroke="#263238" stroke-miterlimit="10" stroke-linejoin="round"/>
<path d="M320.483 41.0964H232.351L232.263 41.4158C229.656 50.808 223.648 56.9049 216.998 56.9049H213.172C206.522 56.9049 200.515 50.8096 197.907 41.4158L197.818 41.0964H109.687C85.1411 41.0964 65.2422 60.9954 65.2422 85.5412V90.501H364.926V85.5412C364.928 60.9954 345.029 41.0964 320.483 41.0964Z" fill="#92E3A9"/>
<path d="M314.498 292.165C314.498 282.437 327.699 271.108 325.303 262.136C322.822 252.854 305.652 249.652 300.95 241.526C296.181 233.282 301.942 216.827 295.252 210.137C288.561 203.446 272.106 209.208 263.864 204.438C255.738 199.736 252.536 182.567 243.254 180.086C234.283 177.687 222.953 190.891 213.225 190.891C203.498 190.891 192.168 177.689 183.197 180.086C173.915 182.567 170.713 199.736 162.587 204.44C154.343 209.209 137.888 203.448 131.198 210.138C124.507 216.829 130.268 233.284 125.499 241.528C120.797 249.654 103.627 252.856 101.147 262.138C98.7483 271.109 111.952 282.439 111.952 292.166C111.952 301.894 98.7499 313.223 101.147 322.195C103.627 331.477 120.797 334.679 125.499 342.805C130.268 351.049 124.507 367.504 131.198 374.194C137.888 380.885 154.343 375.123 162.585 379.891C170.711 384.593 173.913 401.763 183.196 404.243C192.167 406.642 203.496 393.438 213.224 393.438C222.952 393.438 234.281 406.64 243.252 404.243C252.535 401.763 255.736 384.593 263.862 379.89C272.106 375.12 288.561 380.882 295.252 374.191C301.942 367.501 296.181 351.045 300.95 342.802C305.652 334.675 322.822 331.474 325.303 322.191C327.701 313.222 314.498 301.891 314.498 292.165Z" fill="#92E3A9"/>
<path d="M211.819 332.753L168.13 286.416C166.037 284.197 166.14 280.7 168.359 278.608C170.58 276.516 174.077 276.618 176.168 278.837L210.481 315.231L253.876 252.309C255.608 249.796 259.049 249.167 261.56 250.898C264.072 252.63 264.704 256.07 262.971 258.582L211.819 332.753Z" fill="white"/>
<path d="M98.9518 456.489L97.6244 457.83L88.5225 466.932L78.0803 456.489C75.5722 453.968 75.5722 449.894 78.0803 447.388C79.3416 446.128 80.9868 445.504 82.632 445.504C84.2773 445.504 85.9225 446.128 87.1838 447.388L88.5241 448.728L89.8516 447.388C91.1129 446.128 92.7581 445.504 94.4033 445.504C96.0614 445.504 97.7066 446.128 98.9551 447.388C101.473 449.896 101.473 453.968 98.9518 456.489Z" stroke="#263238" stroke-miterlimit="10" stroke-linejoin="round"/>
<path d="M124.319 469.955C131.667 469.955 137.623 463.998 137.623 456.651C137.623 449.304 131.667 443.347 124.319 443.347C116.972 443.347 111.016 449.304 111.016 456.651C111.016 463.998 116.972 469.955 124.319 469.955Z" stroke="#263238" stroke-miterlimit="10" stroke-linecap="round" stroke-linejoin="round"/>
<path d="M116.539 459.091C117.441 462.441 119.744 465.358 124.318 465.358C129.028 465.358 131.262 462.72 132.099 459.091H116.539Z" stroke="#263238" stroke-miterlimit="10" stroke-linecap="round" stroke-linejoin="round"/>
<path d="M121.156 454.194C121.156 455.712 120.708 456.944 120.156 456.944C119.605 456.944 119.156 455.714 119.156 454.194C119.156 452.675 119.603 451.444 120.156 451.444C120.708 451.444 121.156 452.675 121.156 454.194Z" fill="#263238"/>
<path d="M128.656 454.194C128.656 455.712 128.208 456.944 127.656 456.944C127.105 456.944 126.656 455.714 126.656 454.194C126.656 452.675 127.105 451.444 127.656 451.444C128.21 451.444 128.656 452.675 128.656 454.194Z" fill="#263238"/>
<path d="M78.3477 483.299H170.484" stroke="#263238" stroke-miterlimit="10" stroke-linejoin="round"/>
<path d="M244.406 495.396H275.591" stroke="#263238" stroke-miterlimit="10" stroke-linejoin="round"/>
<path d="M218.602 495.396H237.957" stroke="#263238" stroke-miterlimit="10" stroke-linejoin="round"/>
<path d="M141.18 495.396H211.075" stroke="#263238" stroke-miterlimit="10" stroke-linejoin="round"/>
<path d="M78.3477 495.396H132.58" stroke="#263238" stroke-miterlimit="10" stroke-linejoin="round"/>
<path d="M196.02 508.299H256.774" stroke="#263238" stroke-miterlimit="10" stroke-linejoin="round"/>
<path d="M142.254 508.299H188.492" stroke="#263238" stroke-miterlimit="10" stroke-linejoin="round"/>
<path d="M78.3477 508.299H134.73" stroke="#263238" stroke-miterlimit="10" stroke-linejoin="round"/>
<path d="M336.883 521.203H344.409" stroke="#263238" stroke-miterlimit="10" stroke-linejoin="round"/>
<path d="M280.969 521.203H331.507" stroke="#263238" stroke-miterlimit="10" stroke-linejoin="round"/>
<path d="M182.043 521.203H268.066" stroke="#263238" stroke-miterlimit="10" stroke-linejoin="round"/>
<path d="M100.32 521.203H173.44" stroke="#263238" stroke-miterlimit="10" stroke-linejoin="round"/>
<path d="M78.3477 521.203H91.719" stroke="#263238" stroke-miterlimit="10" stroke-linejoin="round"/>
<path d="M96.8764 149.637C106.641 149.637 114.558 141.721 114.558 131.956C114.558 122.191 106.641 114.274 96.8764 114.274C87.1114 114.274 79.1953 122.191 79.1953 131.956C79.1953 141.721 87.1114 149.637 96.8764 149.637Z" fill="#595959"/>
<path d="M123.398 132.76H184.481" stroke="#263238" stroke-miterlimit="10" stroke-linejoin="round"/>
<path d="M214.169 47.3981C216.473 47.3981 218.341 45.5299 218.341 43.2254C218.341 40.9209 216.473 39.0527 214.169 39.0527C211.864 39.0527 209.996 40.9209 209.996 43.2254C209.996 45.5299 211.864 47.3981 214.169 47.3981Z" fill="#707070"/>
<path d="M91.8705 59.2161C91.8705 63.4387 87.13 64.9581 87.1091 68.1792V68.4002H91.7108V69.8212H85.5703V68.6211C85.5703 64.1001 90.3124 63.221 90.3124 59.279C90.3124 57.8386 89.8317 57.0789 88.672 57.0789C87.5316 57.0789 87.0316 57.8983 87.0316 59.1386V60.379H85.5719V59.2386C85.5719 57.0983 86.5526 55.6773 88.7123 55.6773C90.8898 55.674 91.8705 57.0757 91.8705 59.2161Z" fill="white"/>
<path d="M99.5362 59.1951V59.5548C99.5362 60.9952 98.9571 62.0162 97.8361 62.4355C99.0152 62.8759 99.5362 63.9356 99.5362 65.3356V66.4163C99.5362 68.5567 98.5361 69.9567 96.3748 69.9567C94.2344 69.9567 93.2344 68.5567 93.2344 66.4163V65.455H94.6941V66.5147C94.6941 67.776 95.2135 68.5357 96.3345 68.5357C97.4748 68.5357 97.9748 67.7954 97.9748 66.376V65.2953C97.9748 63.9146 97.3942 63.2549 96.2135 63.2146H95.3731V61.8129H96.2925C97.3329 61.7726 97.9748 61.1129 97.9748 59.8935V59.2548C97.9748 57.8144 97.4748 57.0757 96.3345 57.0757C95.2135 57.0757 94.6941 57.8548 94.6941 59.1161V59.8355H93.2344V59.1951C93.2344 57.0548 94.2344 55.6741 96.3748 55.6741C98.5361 55.6741 99.5362 57.0548 99.5362 59.1951Z" fill="white"/>
<path d="M102.559 60.2563V62.1967H101.059V60.2563H102.559ZM102.559 67.8775V69.8179H101.059V67.8775H102.559Z" fill="white"/>
<path d="M105.719 61.516C106.159 60.7547 106.859 60.3563 107.799 60.3563C109.599 60.3563 110.399 61.6773 110.399 63.6773V66.4177C110.399 68.5581 109.38 69.9581 107.24 69.9581C105.098 69.9581 104.098 68.5581 104.098 66.4177V65.4774H105.557V66.5177C105.557 67.779 106.078 68.5387 107.198 68.5387C108.319 68.5387 108.838 67.779 108.838 66.5177V63.7967C108.838 62.537 108.317 61.7757 107.198 61.7757C106.338 61.7757 105.757 62.2563 105.617 63.2757V63.5967H104.157L104.538 55.8142H110.059V57.2142H105.938L105.719 61.516Z" fill="white"/>
<path d="M118.187 59.1756V59.4353H116.727V59.0756C116.727 57.8143 116.206 57.0756 115.068 57.0756C113.887 57.0756 113.366 57.8353 113.366 59.3369V62.4773C113.747 61.5176 114.506 60.9773 115.626 60.9773C117.426 60.9773 118.227 62.2789 118.227 64.2983V66.4194C118.227 68.5597 117.166 69.9598 115.026 69.9598C112.864 69.9598 111.805 68.5597 111.805 66.4194V59.2772C111.805 57.0562 112.806 55.6755 115.026 55.6755C117.187 55.6739 118.187 57.0352 118.187 59.1756ZM113.366 64.4177V66.5178C113.366 67.7791 113.887 68.5388 115.026 68.5388C116.147 68.5388 116.685 67.7791 116.685 66.5178V64.4177C116.685 63.1564 116.145 62.3967 115.026 62.3967C113.885 62.3967 113.366 63.1564 113.366 64.4177Z" fill="white"/>
<path d="M271.067 59.793H267.113V69.6787H271.067V59.793Z" fill="white"/>
<path d="M276.34 57.812H272.387V69.6784H276.34V57.812Z" fill="white"/>
<path d="M281.613 56.4058H277.66V69.6771H281.613V56.4058Z" fill="white"/>
<path d="M286.883 53.96H282.93V69.6765H286.883V53.96Z" fill="white"/>
<path d="M335.815 69.406H312.09V54.9072H335.815V69.406ZM313.408 68.0882H334.497V56.2266H313.408V68.0882Z" fill="white"/>
<path d="M327.908 57.6604H315.387V66.6542H327.908V57.6604Z" fill="white"/>
<path d="M337.976 60.449H334.992V63.8652H337.976V60.449Z" fill="white"/>
<path d="M303.391 66.2522C303.238 66.2522 303.08 66.2119 302.938 66.128C298.11 63.2586 294.918 65.9215 294.786 66.0344C294.418 66.3538 293.859 66.3135 293.539 65.9457C293.218 65.5764 293.254 65.0231 293.622 64.7021C293.793 64.5521 297.873 61.0553 303.848 64.6054C304.269 64.8538 304.406 65.3989 304.156 65.8199C303.986 66.0973 303.691 66.2522 303.391 66.2522Z" fill="white"/>
<path d="M305.178 63.2738C305.023 63.2738 304.866 63.2334 304.724 63.1496C297.743 58.9978 293.051 63.0141 293.003 63.0528C292.637 63.3786 292.077 63.3399 291.753 62.9737C291.429 62.6076 291.464 62.0463 291.832 61.7237C291.888 61.6721 297.548 56.8252 305.629 61.6269C306.05 61.8753 306.187 62.4221 305.937 62.8415C305.773 63.1205 305.479 63.2738 305.178 63.2738Z" fill="white"/>
<path d="M306.798 59.8248C306.645 59.8248 306.487 59.7845 306.345 59.7006C297.504 54.444 291.625 59.3926 291.38 59.6071C291.01 59.9281 290.451 59.8877 290.13 59.52C289.807 59.1538 289.844 58.5958 290.212 58.2748C290.281 58.2119 297.266 52.2391 307.253 58.178C307.674 58.428 307.811 58.9716 307.561 59.3926C307.393 59.67 307.1 59.8248 306.798 59.8248Z" fill="white"/>
<path d="M300.727 67.7368C300.727 68.9643 299.731 69.9594 298.504 69.9594C297.276 69.9594 296.281 68.9643 296.281 67.7368C296.281 66.5094 297.276 65.5142 298.504 65.5142C299.731 65.5142 300.727 66.5094 300.727 67.7368Z" fill="white"/>
<path d="M710.909 407.454C710.909 407.454 691.633 396.744 690.204 421.019C688.776 445.294 685.207 646.656 685.207 646.656" stroke="#263238" stroke-width="2" stroke-miterlimit="10" stroke-linecap="round" stroke-linejoin="round"/>
<path d="M680.191 423.158C680.191 423.158 695.914 501.723 688.776 644.514" stroke="#263238" stroke-width="2" stroke-miterlimit="10" stroke-linecap="round" stroke-linejoin="round"/>
<path d="M695.638 412.34C695.638 412.34 688.263 417.064 684.068 411.658C679.873 406.25 686.907 396.346 680.707 392.11C674.507 387.875 663.805 394.338 663.805 394.338C663.805 394.338 672.047 396.759 671.781 401.257C671.516 405.756 667.545 407.458 667.016 405.491C666.487 403.525 662.556 393.619 655.864 397.738C649.172 401.857 648.149 408.248 648.149 408.248C648.149 408.248 663.727 406.587 664.671 412.448C665.614 418.308 658.28 411.425 651.854 411.046C645.427 410.667 639.567 411.611 639.981 415.506C640.398 419.401 639.375 425.79 639.375 425.79C639.375 425.79 644.82 420.952 651.89 421.369C658.959 421.787 658.695 426.286 652.267 425.906C645.84 425.527 640.319 431.652 640.319 431.652C640.319 431.652 646.177 441.671 653.625 446.626C661.072 451.581 663.758 449.804 664.627 445.986C665.497 442.168 663.495 432.374 667.995 432.641C672.494 432.907 660.543 449.615 666.29 450.599C672.037 451.583 676.65 449.92 678.163 446.139C679.676 442.359 679.676 442.359 679.676 442.359C679.676 442.359 677.674 432.566 678.544 428.747C679.415 424.929 680.471 428.86 681.492 433.436C682.512 438.01 683.154 449.014 685.12 448.484C687.086 447.955 693.364 439.941 694.838 436.804C696.314 433.666 686.56 424.061 686.673 422.132C686.788 420.205 694.31 423.873 695.483 425.877C696.654 427.881 697.788 430.529 697.788 430.529C697.788 430.529 702.477 427.581 702.365 418.543C702.256 409.506 695.638 412.34 695.638 412.34Z" fill="#92E3A9"/>
<path opacity="0.3" d="M695.638 412.34C695.638 412.34 688.263 417.064 684.068 411.658C679.873 406.25 686.907 396.346 680.707 392.11C674.507 387.875 663.805 394.338 663.805 394.338C663.805 394.338 672.047 396.759 671.781 401.257C671.516 405.756 667.545 407.458 667.016 405.491C666.487 403.525 662.556 393.619 655.864 397.738C649.172 401.857 648.149 408.248 648.149 408.248C648.149 408.248 663.727 406.587 664.671 412.448C665.614 418.308 658.28 411.425 651.854 411.046C645.427 410.667 639.567 411.611 639.981 415.506C640.398 419.401 639.375 425.79 639.375 425.79C639.375 425.79 644.82 420.952 651.89 421.369C658.959 421.787 658.695 426.286 652.267 425.906C645.84 425.527 640.319 431.652 640.319 431.652C640.319 431.652 646.177 441.671 653.625 446.626C661.072 451.581 663.758 449.804 664.627 445.986C665.497 442.168 663.495 432.374 667.995 432.641C672.494 432.907 660.543 449.615 666.29 450.599C672.037 451.583 676.65 449.92 678.163 446.139C679.676 442.359 679.676 442.359 679.676 442.359C679.676 442.359 677.674 432.566 678.544 428.747C679.415 424.929 680.471 428.86 681.492 433.436C682.512 438.01 683.154 449.014 685.12 448.484C687.086 447.955 693.364 439.941 694.838 436.804C696.314 433.666 686.56 424.061 686.673 422.132C686.788 420.205 694.31 423.873 695.483 425.877C696.654 427.881 697.788 430.529 697.788 430.529C697.788 430.529 702.477 427.581 702.365 418.543C702.256 409.506 695.638 412.34 695.638 412.34Z" fill="#263238"/>
<path d="M658.258 433.529C663.066 427.585 670.153 419.541 676.092 415.703" stroke="#263238" stroke-miterlimit="10" stroke-linecap="round" stroke-linejoin="round"/>
<path d="M652.684 440.765C652.684 440.765 653.918 439.049 655.919 436.477" stroke="#263238" stroke-miterlimit="10" stroke-linecap="round" stroke-linejoin="round"/>
<path d="M679.227 417.177C679.227 417.177 686.37 427.272 687.693 437.671" stroke="#263238" stroke-miterlimit="10" stroke-linecap="round" stroke-linejoin="round"/>
<path d="M671.137 423.15C671.137 423.15 673.142 421.978 672.382 434.833" stroke="#263238" stroke-miterlimit="10" stroke-linecap="round" stroke-linejoin="round"/>
<path d="M676.355 411.203C676.355 411.203 680.439 407.573 678.286 400.352" stroke="#263238" stroke-miterlimit="10" stroke-linecap="round" stroke-linejoin="round"/>
<path d="M670.836 417.327L667.926 411.995" stroke="#263238" stroke-miterlimit="10" stroke-linecap="round" stroke-linejoin="round"/>
<path d="M664.707 422.771C664.707 422.771 655.446 415.776 649.66 415.434" stroke="#263238" stroke-miterlimit="10" stroke-linecap="round" stroke-linejoin="round"/>
<path d="M721.919 393.291C721.919 393.291 721.624 403.895 713.349 404.409C705.075 404.924 699.954 391.13 691.487 394.451C683.021 397.772 682.198 412.892 682.198 412.892C682.198 412.892 690.241 406.29 694.565 409.622C698.889 412.955 697.886 418.089 695.555 417.279C693.226 416.468 680.629 413.651 680.192 423.16C679.755 432.67 685.455 438.047 685.455 438.047C685.455 438.047 694.41 421.319 700.921 424.368C707.433 427.416 695.542 430.068 690.783 436.246C686.023 442.423 682.973 448.933 687.155 451.172C691.337 453.411 697.037 458.79 697.037 458.79C697.037 458.79 695.905 450.039 701.141 443.246C706.378 436.452 710.701 439.784 705.941 445.96C701.18 452.136 703.549 461.84 703.549 461.84C703.549 461.84 717.575 462.804 727.611 458.725C737.648 454.646 737.698 450.746 734.469 447.272C731.24 443.797 720.07 439.128 723.403 434.804C726.735 430.479 735.319 453.835 740.221 448.751C745.124 443.668 746.603 437.917 743.848 433.825C741.095 429.732 741.095 429.732 741.095 429.732C741.095 429.732 729.925 425.061 726.695 421.587C723.464 418.113 728.122 419.734 733.398 421.831C738.674 423.927 750.128 430.786 750.937 428.457C751.747 426.128 748.002 414.379 745.866 410.764C743.731 407.148 727.466 410.366 725.612 408.938C723.759 407.511 732.561 402.479 735.366 402.672C738.171 402.866 741.593 403.533 741.593 403.533C741.593 403.533 741.837 396.83 732.714 390.781C723.591 384.733 721.919 393.291 721.919 393.291Z" fill="#92E3A9"/>
<path opacity="0.2" d="M721.919 393.291C721.919 393.291 721.624 403.895 713.349 404.409C705.075 404.924 699.954 391.13 691.487 394.451C683.021 397.772 682.198 412.892 682.198 412.892C682.198 412.892 690.241 406.29 694.565 409.622C698.889 412.955 697.886 418.089 695.555 417.279C693.226 416.468 680.629 413.651 680.192 423.16C679.755 432.67 685.455 438.047 685.455 438.047C685.455 438.047 694.41 421.319 700.921 424.368C707.433 427.416 695.542 430.068 690.783 436.246C686.023 442.423 682.973 448.933 687.155 451.172C691.337 453.411 697.037 458.79 697.037 458.79C697.037 458.79 695.905 450.039 701.141 443.246C706.378 436.452 710.701 439.784 705.941 445.96C701.18 452.136 703.549 461.84 703.549 461.84C703.549 461.84 717.575 462.804 727.611 458.725C737.648 454.646 737.698 450.746 734.469 447.272C731.24 443.797 720.07 439.128 723.403 434.804C726.735 430.479 735.319 453.835 740.221 448.751C745.124 443.668 746.603 437.917 743.848 433.825C741.095 429.732 741.095 429.732 741.095 429.732C741.095 429.732 729.925 425.061 726.695 421.587C723.464 418.113 728.122 419.734 733.398 421.831C738.674 423.927 750.128 430.786 750.937 428.457C751.747 426.128 748.002 414.379 745.866 410.764C743.731 407.148 727.466 410.366 725.612 408.938C723.759 407.511 732.561 402.479 735.366 402.672C738.171 402.866 741.593 403.533 741.593 403.533C741.593 403.533 741.837 396.83 732.714 390.781C723.591 384.733 721.919 393.291 721.919 393.291Z" fill="#263238"/>
<path d="M717.651 445.16C714.976 436.293 711.754 423.716 711.959 415.153" stroke="#263238" stroke-miterlimit="10" stroke-linecap="round" stroke-linejoin="round"/>
<path d="M721.1 455.674C721.1 455.674 720.223 453.267 719.012 449.51" stroke="#263238" stroke-miterlimit="10" stroke-linecap="round" stroke-linejoin="round"/>
<path d="M715.578 413.017C715.578 413.017 730.556 412.746 741.867 418.511" stroke="#263238" stroke-miterlimit="10" stroke-linecap="round" stroke-linejoin="round"/>
<path d="M716.043 425.19C716.043 425.19 716.237 422.386 728.59 431.907" stroke="#263238" stroke-miterlimit="10" stroke-linecap="round" stroke-linejoin="round"/>
<path d="M707.639 411.821C707.639 411.821 706.788 405.258 698.09 402.492" stroke="#263238" stroke-miterlimit="10" stroke-linecap="round" stroke-linejoin="round"/>
<path d="M710.006 421.523L702.684 420.803" stroke="#263238" stroke-miterlimit="10" stroke-linecap="round" stroke-linejoin="round"/>
<path d="M711.282 431.366C711.282 431.366 697.964 435.871 693.68 441.43" stroke="#263238" stroke-miterlimit="10" stroke-linecap="round" stroke-linejoin="round"/>
<path d="M633.086 463.858C633.086 463.858 675.21 535.281 674.495 643.087" stroke="#263238" stroke-width="2" stroke-miterlimit="10" stroke-linecap="round" stroke-linejoin="round"/>
<path d="M685.025 456.501C685.025 456.501 683.683 468.708 674.087 468.523C664.492 468.335 659.882 451.935 649.799 454.967C639.715 458 637.339 475.37 637.339 475.37C637.339 475.37 647.243 468.511 651.917 472.765C656.591 477.018 654.95 482.849 652.338 481.692C649.727 480.537 635.455 476.097 634.054 487.029C632.652 497.96 638.723 504.706 638.723 504.706C638.723 504.706 650.635 486.247 657.861 490.381C665.087 494.515 651.117 496.452 645.04 503.13C638.964 509.808 634.83 517.033 639.444 520.011C644.059 522.988 650.13 529.734 650.13 529.734C650.13 529.734 649.649 519.53 656.333 512.185C663.017 504.84 667.692 509.093 661.616 515.771C655.54 522.448 657.356 533.868 657.356 533.868C657.356 533.868 673.45 536.305 685.416 532.544C697.383 528.784 697.81 524.289 694.41 519.976C691.012 515.662 678.563 509.219 682.816 504.543C687.07 499.868 694.772 527.627 700.907 522.224C707.044 516.821 709.295 510.324 706.503 505.343C703.71 500.36 703.711 500.36 703.711 500.36C703.711 500.36 691.263 493.917 687.863 489.604C684.465 485.291 689.686 487.6 695.576 490.518C701.467 493.436 714.035 502.43 715.19 499.82C716.345 497.209 713.132 483.299 711.009 478.926C708.885 474.552 689.813 476.731 687.81 474.907C685.807 473.084 696.438 468.108 699.656 468.595C702.875 469.082 706.761 470.177 706.761 470.177C706.761 470.177 707.675 462.464 697.718 454.625C687.762 446.785 685.025 456.501 685.025 456.501Z" fill="#92E3A9"/>
<path opacity="0.3" d="M685.025 456.501C685.025 456.501 683.683 468.708 674.087 468.523C664.492 468.335 659.882 451.935 649.799 454.967C639.715 458 637.339 475.37 637.339 475.37C637.339 475.37 647.243 468.511 651.917 472.765C656.591 477.018 654.95 482.849 652.338 481.692C649.727 480.537 635.455 476.097 634.054 487.029C632.652 497.96 638.723 504.706 638.723 504.706C638.723 504.706 650.635 486.247 657.861 490.381C665.087 494.515 651.117 496.452 645.04 503.13C638.964 509.808 634.83 517.033 639.444 520.011C644.059 522.988 650.13 529.734 650.13 529.734C650.13 529.734 649.649 519.53 656.333 512.185C663.017 504.84 667.692 509.093 661.616 515.771C655.54 522.448 657.356 533.868 657.356 533.868C657.356 533.868 673.45 536.305 685.416 532.544C697.383 528.784 697.81 524.289 694.41 519.976C691.012 515.662 678.563 509.219 682.816 504.543C687.07 499.868 694.772 527.627 700.907 522.224C707.044 516.821 709.295 510.324 706.503 505.343C703.71 500.36 703.711 500.36 703.711 500.36C703.711 500.36 691.263 493.917 687.863 489.604C684.465 485.291 689.686 487.6 695.576 490.518C701.467 493.436 714.035 502.43 715.19 499.82C716.345 497.209 713.132 483.299 711.009 478.926C708.885 474.552 689.813 476.731 687.81 474.907C685.807 473.084 696.438 468.108 699.656 468.595C702.875 469.082 706.761 470.177 706.761 470.177C706.761 470.177 707.675 462.464 697.718 454.625C687.762 446.785 685.025 456.501 685.025 456.501Z" fill="#263238"/>
<path d="M675.206 515.951C672.957 505.468 670.425 490.65 671.469 480.789" stroke="#263238" stroke-miterlimit="10" stroke-linecap="round" stroke-linejoin="round"/>
<path d="M678.191 528.408C678.191 528.408 677.405 525.548 676.363 521.1" stroke="#263238" stroke-miterlimit="10" stroke-linecap="round" stroke-linejoin="round"/>
<path d="M675.844 478.667C675.844 478.667 693.152 479.767 705.661 487.486" stroke="#263238" stroke-miterlimit="10" stroke-linecap="round" stroke-linejoin="round"/>
<path d="M675.23 492.756C675.23 492.756 675.718 489.536 689.074 501.69" stroke="#263238" stroke-miterlimit="10" stroke-linecap="round" stroke-linejoin="round"/>
<path d="M666.794 476.535C666.794 476.535 666.432 468.882 656.656 464.869" stroke="#263238" stroke-miterlimit="10" stroke-linecap="round" stroke-linejoin="round"/>
<path d="M668.611 487.955L660.23 486.433" stroke="#263238" stroke-miterlimit="10" stroke-linecap="round" stroke-linejoin="round"/>
<path d="M669.152 499.435C669.152 499.435 653.36 503.375 647.891 509.385" stroke="#263238" stroke-miterlimit="10" stroke-linecap="round" stroke-linejoin="round"/>
<path d="M685.025 558.566C685.025 558.566 683.683 570.772 674.087 570.587C664.492 570.401 659.882 553.999 649.799 557.032C639.715 560.064 637.339 577.434 637.339 577.434C637.339 577.434 647.243 570.576 651.917 574.829C656.591 579.082 654.95 584.911 652.338 583.757C649.727 582.602 635.455 578.161 634.054 589.094C632.652 600.025 638.723 606.77 638.723 606.77C638.723 606.77 650.635 588.312 657.861 592.445C665.087 596.579 651.117 598.517 645.04 605.194C638.964 611.872 634.83 619.098 639.444 622.075C644.059 625.053 650.13 631.798 650.13 631.798C650.13 631.798 649.649 621.595 656.333 614.249C663.017 606.902 667.692 611.157 661.616 617.835C655.54 624.512 657.356 635.932 657.356 635.932C657.356 635.932 673.45 638.369 685.416 634.608C697.383 630.848 697.81 626.353 694.41 622.04C691.012 617.727 678.563 611.283 682.816 606.607C687.07 601.933 694.772 629.692 700.907 624.29C707.044 618.886 709.295 612.39 706.503 607.409C703.71 602.426 703.711 602.426 703.711 602.426C703.711 602.426 691.263 595.983 687.863 591.67C684.465 587.357 689.686 589.666 695.576 592.584C701.467 595.502 714.035 604.496 715.19 601.886C716.345 599.275 713.132 585.365 711.009 580.992C708.885 576.618 689.813 578.797 687.81 576.972C685.807 575.15 696.438 570.174 699.656 570.661C702.875 571.148 706.761 572.243 706.761 572.243C706.761 572.243 707.675 564.53 697.718 556.691C687.762 548.849 685.025 558.566 685.025 558.566Z" fill="#92E3A9"/>
<path opacity="0.3" d="M685.025 558.566C685.025 558.566 683.683 570.772 674.087 570.587C664.492 570.401 659.882 553.999 649.799 557.032C639.715 560.064 637.339 577.434 637.339 577.434C637.339 577.434 647.243 570.576 651.917 574.829C656.591 579.082 654.95 584.911 652.338 583.757C649.727 582.602 635.455 578.161 634.054 589.094C632.652 600.025 638.723 606.77 638.723 606.77C638.723 606.77 650.635 588.312 657.861 592.445C665.087 596.579 651.117 598.517 645.04 605.194C638.964 611.872 634.83 619.098 639.444 622.075C644.059 625.053 650.13 631.798 650.13 631.798C650.13 631.798 649.649 621.595 656.333 614.249C663.017 606.902 667.692 611.157 661.616 617.835C655.54 624.512 657.356 635.932 657.356 635.932C657.356 635.932 673.45 638.369 685.416 634.608C697.383 630.848 697.81 626.353 694.41 622.04C691.012 617.727 678.563 611.283 682.816 606.607C687.07 601.933 694.772 629.692 700.907 624.29C707.044 618.886 709.295 612.39 706.503 607.409C703.71 602.426 703.711 602.426 703.711 602.426C703.711 602.426 691.263 595.983 687.863 591.67C684.465 587.357 689.686 589.666 695.576 592.584C701.467 595.502 714.035 604.496 715.19 601.886C716.345 599.275 713.132 585.365 711.009 580.992C708.885 576.618 689.813 578.797 687.81 576.972C685.807 575.15 696.438 570.174 699.656 570.661C702.875 571.148 706.761 572.243 706.761 572.243C706.761 572.243 707.675 564.53 697.718 556.691C687.762 548.849 685.025 558.566 685.025 558.566Z" fill="#263238"/>
<path d="M675.206 618.015C672.957 607.532 670.425 592.714 671.469 582.853" stroke="#263238" stroke-miterlimit="10" stroke-linecap="round" stroke-linejoin="round"/>
<path d="M678.191 630.473C678.191 630.473 677.405 627.613 676.363 623.164" stroke="#263238" stroke-miterlimit="10" stroke-linecap="round" stroke-linejoin="round"/>
<path d="M675.844 580.729C675.844 580.729 693.152 581.83 705.661 589.548" stroke="#263238" stroke-miterlimit="10" stroke-linecap="round" stroke-linejoin="round"/>
<path d="M675.23 594.819C675.23 594.819 675.718 591.6 689.074 603.754" stroke="#263238" stroke-miterlimit="10" stroke-linecap="round" stroke-linejoin="round"/>
<path d="M666.794 578.6C666.794 578.6 666.432 570.947 656.656 566.934" stroke="#263238" stroke-miterlimit="10" stroke-linecap="round" stroke-linejoin="round"/>
<path d="M668.611 590.019L660.23 588.497" stroke="#263238" stroke-miterlimit="10" stroke-linecap="round" stroke-linejoin="round"/>
<path d="M669.152 601.497C669.152 601.497 653.36 605.438 647.891 611.447" stroke="#263238" stroke-miterlimit="10" stroke-linecap="round" stroke-linejoin="round"/>
<path d="M649.508 548.817C649.508 548.817 676.638 613.1 679.494 643.801L673.783 497.413" stroke="#263238" stroke-width="2" stroke-miterlimit="10" stroke-linecap="round" stroke-linejoin="round"/>
<path d="M715.194 533.824C679.496 527.398 679.496 643.801 679.496 643.801" stroke="#263238" stroke-width="2" stroke-miterlimit="10" stroke-linecap="round" stroke-linejoin="round"/>
<path d="M683.778 643.087C683.778 643.087 663.074 448.864 723.045 448.864" stroke="#263238" stroke-width="2" stroke-miterlimit="10" stroke-linecap="round" stroke-linejoin="round"/>
<path d="M701.588 529.493C696.712 524.008 686.351 524.008 680.256 538.026C674.16 552.045 679.646 549.607 679.646 549.607C679.646 549.607 691.227 545.95 698.542 543.511C705.856 541.073 715.608 534.979 716.218 538.635C716.827 542.292 711.342 545.95 704.637 547.168C697.932 548.387 680.256 553.263 682.085 556.92C683.914 560.576 688.18 571.549 688.18 571.549C688.18 571.549 696.712 564.234 704.637 559.359C712.56 554.483 717.437 556.312 713.169 561.797C708.903 567.283 696.712 573.378 699.15 580.693C701.588 588.008 716.216 597.15 716.216 597.15C716.216 597.15 718.045 581.912 722.312 577.036C726.578 572.16 726.578 577.646 725.358 586.179C724.139 594.713 724.139 597.15 724.139 597.15L741.206 603.245C741.206 603.245 747.301 594.103 750.348 591.055C753.395 588.008 753.395 588.008 753.395 588.008C753.395 588.008 739.985 576.427 739.375 569.112C738.765 561.797 748.517 569.112 751.566 570.331C754.612 571.551 759.49 580.083 759.49 580.083C759.49 580.083 762.537 566.065 763.146 561.188C763.756 556.31 763.756 556.312 763.756 556.312C763.756 556.312 750.956 551.436 746.08 551.436C741.204 551.436 738.765 555.092 738.765 550.216C738.765 545.34 743.641 542.292 749.127 542.902C754.612 543.511 763.755 546.558 763.755 546.558C763.755 546.558 767.411 543.511 766.193 534.368C764.974 525.225 761.927 525.225 754.612 527.663C747.298 530.101 742.422 535.587 736.936 535.587C731.45 535.587 734.497 528.882 738.155 527.054C741.814 525.227 750.956 521.569 752.783 520.959C754.612 520.349 743.031 511.817 736.936 510.598C730.841 509.378 722.949 513.672 723.526 519.74C724.75 532.542 706.464 534.979 701.588 529.493Z" fill="#92E3A9"/>
<path d="M740.824 592.252C741.006 594.087 741.136 595.926 741.206 597.76" stroke="#263238" stroke-miterlimit="10" stroke-linecap="round" stroke-linejoin="round"/>
<path d="M728.582 548.495C732.863 558.387 737.813 572.028 740.055 586.264" stroke="#263238" stroke-miterlimit="10" stroke-linecap="round" stroke-linejoin="round"/>
<path d="M726.386 543.603C723.366 537.109 721.094 533.151 721.094 533.151C721.094 533.151 726.579 530.712 729.018 525.836C731.457 520.96 735.114 518.521 735.114 518.521" stroke="#263238" stroke-miterlimit="10" stroke-linecap="round" stroke-linejoin="round"/>
<path d="M699.762 553.874C699.762 553.874 721.704 544.732 721.704 546.56" stroke="#263238" stroke-miterlimit="10" stroke-linecap="round" stroke-linejoin="round"/>
<path d="M733.895 542.294C733.895 542.294 743.646 537.418 752.181 537.418" stroke="#263238" stroke-miterlimit="10" stroke-linecap="round" stroke-linejoin="round"/>
<path d="M730.235 556.921C730.235 556.921 724.749 561.187 718.654 568.502C712.558 575.817 710.121 582.522 710.121 582.522" stroke="#263238" stroke-miterlimit="10" stroke-linecap="round" stroke-linejoin="round"/>
<path d="M736.941 559.36C736.941 559.36 749.742 555.704 756.447 561.799" stroke="#263238" stroke-miterlimit="10" stroke-linecap="round" stroke-linejoin="round"/>
<path d="M760.128 477.001C753.493 473.077 746.154 472.99 742.557 468.848C738.96 464.706 746.021 462.611 749.8 464.174C753.58 465.737 762.335 470.243 763.993 471.224C765.651 472.204 764.504 457.865 761.428 452.464C758.352 447.062 749.936 443.917 745.733 448.331C736.866 457.643 723.039 445.433 723.984 438.155C724.929 430.876 718.137 423.052 703.554 427.64C688.971 432.228 694.409 434.773 694.409 434.773C694.409 434.773 704.762 441.12 711.398 445.046C718.034 448.97 729.031 452.339 726.668 455.198C724.306 458.056 717.948 456.31 712.632 452.046C707.315 447.781 692.046 437.631 690.483 441.408C688.92 445.186 683.433 455.601 683.433 455.601C683.433 455.601 694.551 457.249 703.427 460.036C712.303 462.824 714.119 467.704 707.18 468.079C700.241 468.453 687.646 463.243 683.721 469.879C679.797 476.514 682.483 493.555 682.483 493.555C682.483 493.555 695.188 484.947 701.667 484.971C708.146 484.997 704.004 488.592 696.76 493.266C689.517 497.941 687.676 499.539 687.676 499.539L694.262 516.422C694.262 516.422 705.162 515.031 709.461 515.335C713.759 515.638 713.759 515.638 713.759 515.638C713.759 515.638 713.714 497.92 718.837 492.665C723.961 487.41 724.83 499.568 725.908 502.67C726.985 505.77 723.739 515.046 723.739 515.046C723.739 515.046 736.323 508.157 740.405 505.42C744.487 502.683 744.487 502.683 744.487 502.683C744.487 502.683 739.778 489.821 736.582 486.139C733.386 482.456 729.026 483.013 732.708 479.816C736.39 476.619 741.887 478.303 745.025 482.845C748.16 487.387 751.852 496.289 751.852 496.289C751.852 496.289 756.551 497.054 762.656 490.139C768.762 483.227 766.764 480.926 760.128 477.001ZM702.444 496.512C697.568 494.073 709.149 489.197 709.149 489.197C713.416 488.587 707.32 498.949 702.444 496.512ZM710.656 473.756C708.577 472.717 714.814 470.638 714.814 470.638C723.821 472.371 712.735 474.795 710.656 473.756Z" fill="#92E3A9"/>
<path d="M702.316 508.928C701.048 510.268 699.747 511.572 698.406 512.828" stroke="#263238" stroke-miterlimit="10" stroke-linecap="round" stroke-linejoin="round"/>
<path d="M727.327 470.997C722.662 480.715 715.607 493.396 706.328 504.42" stroke="#263238" stroke-miterlimit="10" stroke-linecap="round" stroke-linejoin="round"/>
<path d="M729.586 466.132C732.51 459.595 734.009 455.283 734.009 455.283C734.009 455.283 739.446 457.827 744.727 456.472C750.007 455.117 754.246 456.28 754.246 456.28" stroke="#263238" stroke-miterlimit="10" stroke-linecap="round" stroke-linejoin="round"/>
<path d="M704.375 452.759C704.375 452.759 725.664 463.335 724.284 464.534" stroke="#263238" stroke-miterlimit="10" stroke-linecap="round" stroke-linejoin="round"/>
<path d="M735.496 470.942C735.496 470.942 745.572 475.11 751.166 481.553" stroke="#263238" stroke-miterlimit="10" stroke-linecap="round" stroke-linejoin="round"/>
<path d="M722.05 477.771C722.05 477.771 715.232 476.426 705.712 476.618C696.193 476.81 689.531 479.365 689.531 479.365" stroke="#263238" stroke-miterlimit="10" stroke-linecap="round" stroke-linejoin="round"/>
<path d="M724.605 484.432C724.605 484.432 735.759 491.7 735.551 500.759" stroke="#263238" stroke-miterlimit="10" stroke-linecap="round" stroke-linejoin="round"/>
<path d="M665.414 561.459C660.074 558.301 654.167 558.231 651.274 554.897C648.38 551.563 654.062 549.879 657.103 551.136C660.143 552.394 667.188 556.02 668.524 556.81C669.86 557.6 668.935 546.06 666.459 541.713C663.985 537.366 657.211 534.835 653.828 538.387C646.693 545.881 635.565 536.055 636.326 530.198C637.088 524.34 631.621 518.045 619.886 521.737C608.151 525.429 612.526 527.476 612.526 527.476C612.526 527.476 620.858 532.584 626.199 535.742C631.539 538.9 640.388 541.611 638.488 543.911C636.588 546.211 631.47 544.807 627.192 541.376C622.915 537.943 610.626 529.776 609.368 532.816C608.109 535.856 603.693 544.237 603.693 544.237C603.693 544.237 612.64 545.565 619.784 547.807C626.928 550.05 628.389 553.978 622.803 554.279C617.219 554.581 607.084 550.387 603.925 555.728C600.767 561.068 602.929 574.782 602.929 574.782C602.929 574.782 613.153 567.854 618.368 567.873C623.581 567.893 620.249 570.788 614.419 574.549C608.59 578.311 607.109 579.596 607.109 579.596L612.41 593.184C612.41 593.184 621.181 592.064 624.641 592.309C628.1 592.553 628.1 592.553 628.1 592.553C628.1 592.553 628.063 578.295 632.186 574.065C636.309 569.836 637.009 579.622 637.876 582.117C638.744 584.612 636.13 592.077 636.13 592.077C636.13 592.077 646.257 586.534 649.541 584.332C652.827 582.13 652.827 582.13 652.827 582.13C652.827 582.13 649.036 571.778 646.465 568.815C643.893 565.852 640.385 566.299 643.348 563.728C646.31 561.155 650.735 562.51 653.259 566.167C655.783 569.822 658.754 576.986 658.754 576.986C658.754 576.986 662.535 577.601 667.448 572.036C672.363 566.47 670.755 564.617 665.414 561.459ZM618.994 577.159C615.069 575.198 624.389 571.273 624.389 571.273C627.823 570.783 622.918 579.122 618.994 577.159ZM625.602 558.847C623.929 558.01 628.947 556.338 628.947 556.338C636.196 557.731 627.274 559.683 625.602 558.847Z" fill="#92E3A9"/>
<path d="M618.891 587.151C617.872 588.23 616.824 589.279 615.746 590.29" stroke="#263238" stroke-miterlimit="10" stroke-linecap="round" stroke-linejoin="round"/>
<path d="M639.02 556.626C635.267 564.446 629.589 574.651 622.121 583.524" stroke="#263238" stroke-miterlimit="10" stroke-linecap="round" stroke-linejoin="round"/>
<path d="M640.836 552.71C643.189 547.448 644.396 543.979 644.396 543.979C644.396 543.979 648.772 546.026 653.02 544.935C657.27 543.845 660.68 544.78 660.68 544.78" stroke="#263238" stroke-miterlimit="10" stroke-linecap="round" stroke-linejoin="round"/>
<path d="M620.547 541.95C620.547 541.95 637.68 550.461 636.568 551.426" stroke="#263238" stroke-miterlimit="10" stroke-linecap="round" stroke-linejoin="round"/>
<path d="M645.59 556.583C645.59 556.583 653.698 559.936 658.2 565.121" stroke="#263238" stroke-miterlimit="10" stroke-linecap="round" stroke-linejoin="round"/>
<path d="M634.774 562.078C634.774 562.078 629.287 560.995 621.627 561.15C613.967 561.305 608.605 563.36 608.605 563.36" stroke="#263238" stroke-miterlimit="10" stroke-linecap="round" stroke-linejoin="round"/>
<path d="M636.828 567.438C636.828 567.438 645.803 573.286 645.636 580.577" stroke="#263238" stroke-miterlimit="10" stroke-linecap="round" stroke-linejoin="round"/>
<path d="M643.64 460.807C643.64 460.807 636.935 465.683 632.668 460.807C628.402 455.931 634.498 446.179 628.402 442.521C622.307 438.865 612.555 445.568 612.555 445.568C612.555 445.568 620.479 447.397 620.479 451.664C620.479 455.93 616.823 457.759 616.213 455.93C615.604 454.101 611.337 444.959 605.242 449.225C599.147 453.491 598.537 459.586 598.537 459.586C598.537 459.586 613.165 457.148 614.384 462.633C615.603 468.119 608.289 462.023 602.193 462.023C596.098 462.023 590.613 463.243 591.222 466.899C591.832 470.556 591.222 476.651 591.222 476.651C591.222 476.651 596.098 471.775 602.803 471.775C609.508 471.775 609.508 476.042 603.413 476.042C597.318 476.042 592.442 482.137 592.442 482.137C592.442 482.137 598.537 491.279 605.852 495.547C613.166 499.813 615.604 497.986 616.213 494.328C616.823 490.671 614.384 481.527 618.652 481.527C622.918 481.527 612.557 497.984 618.042 498.594C623.528 499.203 627.794 497.374 629.014 493.718C630.233 490.061 630.233 490.061 630.233 490.061C630.233 490.061 627.794 480.919 628.404 477.261C629.014 473.604 630.233 477.261 631.451 481.527C632.67 485.793 633.889 496.155 635.717 495.545C637.546 494.936 643.032 487.013 644.249 483.964C645.469 480.918 635.717 472.383 635.717 470.554C635.717 468.725 643.032 471.774 644.249 473.601C645.467 475.429 646.688 477.867 646.688 477.867C646.688 477.867 650.954 474.821 650.345 466.286C649.735 457.76 643.64 460.807 643.64 460.807Z" fill="#92E3A9"/>
<path d="M609.496 482.915C613.709 477.029 619.958 469.032 625.356 465.074" stroke="#263238" stroke-miterlimit="10" stroke-linecap="round" stroke-linejoin="round"/>
<path d="M604.629 490.065C604.629 490.065 605.7 488.373 607.448 485.831" stroke="#263238" stroke-miterlimit="10" stroke-linecap="round" stroke-linejoin="round"/>
<path d="M628.402 466.293C628.402 466.293 635.717 475.435 637.545 485.188" stroke="#263238" stroke-miterlimit="10" stroke-linecap="round" stroke-linejoin="round"/>
<path d="M621.086 472.388C621.086 472.388 622.915 471.169 622.915 483.36" stroke="#263238" stroke-miterlimit="10" stroke-linecap="round" stroke-linejoin="round"/>
<path d="M625.352 460.807C625.352 460.807 629.008 457.151 626.571 450.446" stroke="#263238" stroke-miterlimit="10" stroke-linecap="round" stroke-linejoin="round"/>
<path d="M620.478 466.902L617.43 462.026" stroke="#263238" stroke-miterlimit="10" stroke-linecap="round" stroke-linejoin="round"/>
<path d="M614.991 472.388C614.991 472.388 605.849 466.293 600.363 466.293" stroke="#263238" stroke-miterlimit="10" stroke-linecap="round" stroke-linejoin="round"/>
<path d="M703.038 590.345C703.038 590.345 696.333 595.221 692.067 590.345C687.801 585.469 693.896 575.717 687.801 572.059C681.705 568.4 671.953 575.105 671.953 575.105C671.953 575.105 679.878 576.933 679.878 581.201C679.878 585.467 676.221 587.296 675.612 585.467C675.002 583.638 670.736 574.496 664.64 578.762C658.545 583.028 657.935 589.124 657.935 589.124C657.935 589.124 672.563 586.685 673.783 592.17C675.002 597.656 667.687 591.561 661.592 591.561C655.497 591.561 650.011 592.78 650.621 596.437C651.23 600.093 650.621 606.189 650.621 606.189C650.621 606.189 655.497 601.313 662.202 601.313C668.907 601.313 668.907 605.579 662.811 605.579C656.716 605.579 651.84 611.674 651.84 611.674C651.84 611.674 657.935 620.816 665.25 625.084C672.565 629.35 675.002 627.523 675.612 623.865C676.221 620.208 673.783 611.064 678.05 611.064C682.317 611.064 671.955 627.521 677.441 628.131C682.926 628.741 687.193 626.912 688.412 623.255C689.631 619.599 689.631 619.599 689.631 619.599C689.631 619.599 687.193 610.456 687.802 606.798C688.412 603.142 689.631 606.798 690.849 611.064C692.067 615.331 693.288 625.692 695.115 625.083C696.944 624.473 702.43 616.55 703.648 613.502C704.867 610.455 695.115 601.921 695.115 600.092C695.115 598.263 702.43 601.311 703.648 603.138C704.867 604.968 706.087 607.405 706.087 607.405C706.087 607.405 710.353 604.358 709.743 595.824C709.134 587.298 703.038 590.345 703.038 590.345Z" fill="#92E3A9"/>
<path d="M668.895 612.453C673.108 606.568 679.356 598.571 684.755 594.613" stroke="#263238" stroke-miterlimit="10" stroke-linecap="round" stroke-linejoin="round"/>
<path d="M664.027 619.601C664.027 619.601 665.098 617.909 666.847 615.367" stroke="#263238" stroke-miterlimit="10" stroke-linecap="round" stroke-linejoin="round"/>
<path d="M687.801 595.83C687.801 595.83 695.115 604.972 696.943 614.726" stroke="#263238" stroke-miterlimit="10" stroke-linecap="round" stroke-linejoin="round"/>
<path d="M680.484 601.925C680.484 601.925 682.313 600.706 682.313 612.896" stroke="#263238" stroke-miterlimit="10" stroke-linecap="round" stroke-linejoin="round"/>
<path d="M684.75 590.344C684.75 590.344 688.407 586.687 685.969 579.982" stroke="#263238" stroke-miterlimit="10" stroke-linecap="round" stroke-linejoin="round"/>
<path d="M679.875 596.44L676.828 591.564" stroke="#263238" stroke-miterlimit="10" stroke-linecap="round" stroke-linejoin="round"/>
<path d="M674.39 601.925C674.39 601.925 665.247 595.83 659.762 595.83" stroke="#263238" stroke-miterlimit="10" stroke-linecap="round" stroke-linejoin="round"/>
<path d="M705.199 641.057H658.078V708.883H705.199V641.057Z" fill="#263238"/>
<path d="M119.677 708.883H24.6758" stroke="#263238" stroke-miterlimit="10" stroke-linejoin="round"/>
<path d="M739.047 708.883H137.418" stroke="#263238" stroke-miterlimit="10" stroke-linejoin="round"/>
<path d="M444.22 443.699C444.22 443.699 438.239 479.293 442.541 499.718C446.842 520.143 456.059 546.979 457.002 551.216C457.946 555.453 453.636 574.275 455.351 588.195C457.065 602.116 461.119 645.864 461.119 645.864C461.119 645.864 460.383 656.772 462.041 659.427C463.699 662.082 464.194 664.782 464.317 667.885C464.44 670.989 462.233 674.184 464.265 676.436C466.296 678.687 467.925 680.566 468.017 682.894C468.109 685.221 468.201 687.549 468.261 689.102C468.32 690.655 456.207 708.617 456.42 714.048C456.635 719.479 461.306 719.683 467.824 717.483C474.343 715.283 480.167 705.34 480.167 705.34L480.738 709.98C480.738 709.98 482.709 710.68 483.408 708.709C484.108 706.738 483.908 701.694 483.848 700.143C483.787 698.591 485.218 695.426 485.018 690.383C484.819 685.339 483.411 679.178 483.411 679.178C483.411 679.178 484.78 674.461 485.092 672.506C485.403 670.552 483.403 669.076 484.756 663.971C486.11 658.866 488.05 658.79 487.927 655.687C487.805 652.583 487.668 649.091 486.785 646.406C485.903 643.72 489.687 621.423 489.564 618.319C489.442 615.216 489.882 606.65 489.882 606.65C489.882 606.65 494.003 592.888 493.789 587.456C493.574 582.025 493.332 546.285 493.332 546.285L492.813 533.095C492.813 533.095 493.965 552.477 496.318 562.876C498.671 573.275 502.95 603.026 505.537 609.529C508.125 616.032 511.839 631.43 513.249 637.591C514.657 643.752 516.683 655.719 516.683 655.719C516.683 655.719 515.626 658.48 516.212 663.508C516.799 668.535 517.233 669.685 517.233 669.685C517.233 669.685 514.731 675.224 515.18 676.76C515.628 678.297 515.828 683.341 515.873 684.503C515.918 685.668 513.372 690.042 511.304 696.73C509.236 703.417 502.17 711.467 508.249 717.832C514.328 724.198 524.717 711.743 526.398 705.072C528.078 698.401 531.872 686.205 532.214 685.026C532.556 683.847 534.419 681.831 534.996 676.757C535.574 671.682 535.033 667.818 535.033 667.818C535.033 667.818 536.432 663.877 536.714 661.146C536.995 658.416 536.766 652.596 536.766 652.596C536.766 652.596 542.74 626.715 543.18 618.15C543.621 609.584 540.59 591.83 540.079 588.741C539.569 585.652 540.055 578.251 538.798 575.97C537.543 573.688 534.909 566.02 534.909 566.02C534.909 566.02 554.194 522.907 557.157 499.476C560.12 476.045 558.968 456.662 557.65 452.828C556.334 448.994 555.032 445.549 555.032 445.549C555.032 445.549 538.777 457.068 503.616 452.236C468.456 447.404 454.785 445.61 451.247 444.584C447.712 443.562 444.22 443.699 444.22 443.699Z" fill="#263238" stroke="#263238" stroke-miterlimit="10" stroke-linejoin="round"/>
<path d="M477.217 206.702C477.217 206.702 467.913 207.475 459.01 218.375C450.106 229.277 445.801 243.648 448.393 247.605C450.984 251.562 454.092 258.338 454.155 259.957C454.219 261.578 442.105 273.417 445.555 278.557C449.003 283.696 449.942 286.906 447.121 287.424C444.3 287.94 439.598 292.184 440.521 294.989C441.443 297.793 446.4 300.032 444.503 303.353C442.605 306.674 440.967 306.332 441.127 310.384C441.287 314.436 445.274 317.558 443.166 318.234C441.058 318.909 437.038 319.88 438.364 322.667C439.692 325.455 442.671 328.989 442.671 328.989C442.671 328.989 458.3 344.606 489.236 347.04C520.173 349.474 548.698 321.568 552.995 317.341C557.292 313.113 558.054 311.866 557.959 309.436C557.864 307.005 556.132 304.232 555.209 301.427C554.287 298.623 555.28 292.903 555.232 291.687C555.183 290.471 552.22 287.342 550.13 285.801C548.04 284.261 547.459 279.819 548.111 275.736C548.761 271.652 544.598 268.977 542.93 267.825C541.262 266.673 539.902 263.075 540.975 259.38C542.048 255.686 537.041 252.229 534.952 250.689C532.862 249.149 532.313 245.518 532.965 241.434C533.617 237.35 528.013 229.05 525.034 225.514C522.055 221.979 517.945 210.373 502.358 206.117C486.765 201.862 477.217 206.702 477.217 206.702Z" fill="#263238" stroke="#263238" stroke-miterlimit="10" stroke-linejoin="round"/>
<path d="M496.981 293.577C496.981 293.577 479.501 303.59 467.612 307.556C455.723 311.521 455.21 337.965 455.47 344.559C455.729 351.154 449.187 392.211 453.279 397.489C457.373 402.768 494.632 401.689 507.42 400.797C520.207 399.905 529.252 402.657 537.666 399.218C546.079 395.778 547.135 393.016 546.967 388.749C546.8 384.481 547.682 337.818 547.33 328.895C546.979 319.972 544.535 307.246 541.324 304.653C538.112 302.059 531.427 299.991 521.605 297.27C511.784 294.548 496.981 293.577 496.981 293.577Z" fill="white" stroke="#263238" stroke-miterlimit="10" stroke-linejoin="round"/>
<path d="M449.593 412.401C449.593 412.401 443.147 446.071 443.27 449.174C443.393 452.277 442.754 455.8 442.754 455.8C442.754 455.8 456.904 459.905 462.754 460.452C468.605 460.999 481.437 461.27 486.931 462.608C492.423 463.946 515.298 462.657 523.383 460.784C531.469 458.912 537.227 457.131 541.837 455.782C546.447 454.436 552.936 451.46 552.936 451.46L557.47 448.173L547.947 413.576C547.947 413.576 531.342 416.173 515.077 417.591C498.813 419.009 467.966 415.172 463.667 414.565C459.369 413.959 449.593 412.401 449.593 412.401Z" fill="white" stroke="#263238" stroke-miterlimit="10" stroke-linejoin="round"/>
<path d="M464.15 439.582L463.688 443.971" stroke="#263238" stroke-miterlimit="10" stroke-linejoin="round"/>
<path d="M466.176 420.351L464.547 435.797" stroke="#263238" stroke-miterlimit="10" stroke-linejoin="round"/>
<path d="M463.649 421.306L459.883 434.284" stroke="#263238" stroke-miterlimit="10" stroke-linejoin="round"/>
<path d="M516.699 421.783L516.141 440.195" stroke="#263238" stroke-miterlimit="10" stroke-linejoin="round"/>
<path d="M529.668 440.588L530.466 445.617" stroke="#263238" stroke-miterlimit="10" stroke-linejoin="round"/>
<path d="M526.488 420.542L528.856 435.46" stroke="#263238" stroke-miterlimit="10" stroke-linejoin="round"/>
<path d="M546.967 388.75C546.8 384.483 547.682 337.82 547.33 328.897C547.153 324.387 546.725 326.183 545.651 321.529C540.009 326.833 527.506 335.568 502.908 338.415C480.469 341.01 462.065 332.534 456.326 328.984C455.391 335.583 455.362 341.806 455.47 344.562C455.729 351.158 449.187 392.215 453.279 397.493C457.373 402.772 494.632 401.693 507.42 400.801C520.207 399.909 529.252 402.66 537.666 399.222C546.079 395.78 547.137 393.017 546.967 388.75Z" fill="white" stroke="#263238" stroke-miterlimit="10" stroke-linejoin="round"/>
<path d="M505.094 387.415C509.113 387.058 513.225 386.49 517.315 385.642" stroke="#263238" stroke-miterlimit="10" stroke-linejoin="round"/>
<path d="M465.625 385.347C465.625 385.347 481.429 388.701 500.395 387.741" stroke="#263238" stroke-miterlimit="10" stroke-linejoin="round"/>
<path d="M470.469 380.105C470.469 380.105 475.833 388.054 485.905 387.269" stroke="#263238" stroke-miterlimit="10" stroke-linejoin="round"/>
<path d="M488.469 383.282C488.469 383.282 492.083 386.248 495.232 387.29" stroke="#263238" stroke-miterlimit="10" stroke-linejoin="round"/>
<path d="M510.348 386.307C510.348 386.307 514.106 383.05 517.367 377.094" stroke="#263238" stroke-miterlimit="10" stroke-linejoin="round"/>
<path d="M450.086 395.286C450.086 395.286 485.293 401.283 502.752 400.594C520.21 399.907 546.674 391.092 546.674 391.092L547.948 413.578C547.948 413.578 532.348 421.964 499.728 422.472C467.107 422.98 448.613 417.102 448.613 417.102L450.086 395.286Z" fill="#263238" stroke="#263238" stroke-miterlimit="10" stroke-linejoin="round"/>
<path d="M483.949 317.794C483.949 317.794 483.566 308.095 483.215 299.171C482.863 290.248 481.547 286.414 481.547 286.414C481.547 286.414 487.845 288.498 494.068 288.642C500.291 288.785 509.623 279.091 510.338 277.509C511.053 275.927 512.109 273.165 512.109 273.165C512.109 273.165 513.093 288.28 514.486 294.055C515.88 299.827 516.793 303.289 516.793 303.289" fill="white"/>
<path d="M483.949 317.794C483.949 317.794 483.566 308.095 483.215 299.171C482.863 290.248 481.547 286.414 481.547 286.414C481.547 286.414 487.845 288.498 494.068 288.642C500.291 288.785 509.623 279.091 510.338 277.509C511.053 275.927 512.109 273.165 512.109 273.165C512.109 273.165 513.093 288.28 514.486 294.055C515.88 299.827 516.793 303.289 516.793 303.289" stroke="#263238" stroke-miterlimit="10"/>
<path d="M489.644 301.85C499.101 296.646 507.252 284.595 507.252 284.595L507.798 280.52C504.438 283.911 498.48 288.745 494.068 288.643C487.845 288.5 481.547 286.416 481.547 286.416C481.547 286.416 482.863 290.25 483.215 299.172C483.294 301.18 483.374 303.222 483.452 305.19C484.979 304.387 486.982 303.314 489.644 301.85Z" fill="#263238" stroke="#263238" stroke-miterlimit="10" stroke-linejoin="round"/>
<path d="M518.037 246.121L511.845 246.753C511.845 246.753 511.709 245.869 511.353 244.43C511.082 244.18 510.811 243.93 510.558 243.697C509.348 242.579 508.975 242.982 507.02 242.671C505.065 242.359 504.167 239.287 504.044 236.182C503.922 233.078 500.012 232.454 495.622 229.519C492.026 227.114 490.412 222.031 489.946 220.268C488.428 220.075 486.96 220.038 485.589 220.104C485.134 222.217 484.07 226.201 482.013 229.278C479.078 233.669 476.347 233.387 475.663 235.745C474.979 238.103 473.145 240.895 471.61 241.345C470.073 241.793 466.193 241.946 466.269 243.887C466.345 245.827 465.303 248.976 464.171 249.798C463.926 249.976 463.622 250.197 463.305 250.426C464.01 254.797 464.895 258.332 464.926 259.094C464.987 260.645 465.384 270.733 469.881 276.384C474.378 282.036 483.029 294.517 493.117 294.12C503.204 293.724 511.204 279.809 512.619 276.255C514.033 272.702 514.412 262.586 514.412 262.586C514.412 262.586 517.409 259.747 519.18 255.403C520.951 251.056 518.037 246.121 518.037 246.121Z" fill="white" stroke="#263238" stroke-miterlimit="10" stroke-linejoin="round"/>
<path d="M463.586 244.767C463.48 242.051 466.012 237.29 467.175 237.243C468.34 237.198 472.127 234.717 472.827 232.746C473.527 230.775 473.063 228.851 474.971 227.999C476.88 227.148 476.772 224.431 476.772 224.431C476.772 224.431 471.554 230.077 468.512 231.751C465.47 233.425 464.353 234.635 462.861 236.248C462.251 239.348 462.386 243.135 462.793 246.737C463.264 246.388 463.627 245.792 463.586 244.767Z" fill="white" stroke="#263238" stroke-miterlimit="10" stroke-linejoin="round"/>
<path d="M485.324 273.831C485.324 273.831 487.789 277.231 492.339 274.333" stroke="#263238" stroke-miterlimit="10" stroke-linejoin="round"/>
<path d="M485.555 279.651C485.555 279.651 493.436 282.449 496.31 276.507" stroke="#263238" stroke-miterlimit="10" stroke-linejoin="round"/>
<path d="M477.369 259.423C477.587 261.016 477.075 262.402 476.227 262.518C475.377 262.634 474.511 261.437 474.293 259.844C474.074 258.25 474.586 256.864 475.435 256.748C476.283 256.632 477.149 257.829 477.369 259.423Z" fill="#263238"/>
<path d="M496.697 256.913C496.915 258.506 496.403 259.892 495.555 260.008C494.707 260.124 493.839 258.927 493.621 257.334C493.402 255.74 493.915 254.355 494.763 254.238C495.611 254.122 496.478 255.319 496.697 256.913Z" fill="#263238"/>
<path d="M468.98 253.492C468.98 253.492 470.782 249.924 477.021 250.454" stroke="#263238" stroke-miterlimit="10" stroke-linejoin="round"/>
<path d="M490.566 249.145C490.566 249.145 496.667 246.186 501.475 249.881" stroke="#263238" stroke-miterlimit="10" stroke-linejoin="round"/>
<path d="M478.215 251.185C478.215 251.185 483.471 256.418 483.686 261.85" stroke="#263238" stroke-miterlimit="10" stroke-linejoin="round"/>
<path d="M501.003 464.777C501.003 464.777 494.636 470.856 493.276 485.676C491.917 500.495 491.93 530.414 491.93 530.414C491.93 530.414 492.893 540.267 493.333 546.29" stroke="#808080" stroke-miterlimit="10" stroke-linejoin="round"/>
<path d="M494.444 473.382C494.444 473.382 490.183 470.329 488.715 468.087" stroke="#808080" stroke-miterlimit="10" stroke-linejoin="round"/>
<path d="M508.181 617.646C510.217 624.728 512.282 633.351 513.251 637.595C514.659 643.756 516.685 655.722 516.685 655.722C516.685 655.722 515.628 658.484 516.214 663.513C516.801 668.54 517.235 669.689 517.235 669.689C517.235 669.689 514.733 675.228 515.182 676.763C515.63 678.3 515.83 683.344 515.875 684.507C515.92 685.672 513.373 690.046 511.306 696.733C509.238 703.42 502.172 711.469 508.251 717.835C514.33 724.202 524.719 711.746 526.4 705.075C528.08 698.404 531.874 686.209 532.216 685.03C532.558 683.851 534.421 681.834 534.998 676.76C535.576 671.686 535.035 667.821 535.035 667.821C535.035 667.821 536.434 663.881 536.716 661.15C536.997 658.419 536.768 652.6 536.768 652.6C536.768 652.6 542.742 626.718 543.182 618.154C543.266 616.515 543.223 614.537 543.095 612.394C528.695 619.579 515.075 618.783 508.181 617.646Z" fill="#595959" stroke="#263238" stroke-miterlimit="10" stroke-linejoin="round"/>
<path d="M480.17 705.342L480.741 709.982C480.741 709.982 482.712 710.682 483.411 708.711C484.111 706.74 483.912 701.696 483.851 700.145C483.79 698.593 485.221 695.428 485.021 690.385C484.822 685.341 483.414 679.18 483.414 679.18C483.414 679.18 484.783 674.463 485.095 672.508C485.406 670.554 483.406 669.078 484.759 663.973C486.113 658.868 488.053 658.792 487.93 655.689C487.808 652.585 487.671 649.093 486.788 646.408C485.906 643.722 489.69 621.425 489.567 618.322C489.529 617.351 489.546 615.846 489.587 614.234C479.282 618.162 466.341 616.475 458.139 614.668C459.672 630.222 461.122 645.864 461.122 645.864C461.122 645.864 460.386 656.773 462.044 659.427C463.702 662.082 464.197 664.782 464.32 667.886C464.443 670.989 462.236 674.184 464.268 676.436C466.301 678.688 467.928 680.567 468.02 682.894C468.112 685.222 468.204 687.549 468.265 689.102C468.327 690.656 456.212 708.618 456.425 714.048C456.639 719.479 461.31 719.684 467.828 717.485C474.346 715.285 480.17 705.342 480.17 705.342Z" fill="#595959" stroke="#263238" stroke-miterlimit="10" stroke-linejoin="round"/>
<path d="M482.902 301.126C482.902 301.126 474.4 322.054 471.939 338.472C469.477 354.889 465.548 383.409 463.822 388.917C462.097 394.425 457.685 400.816 452.282 431.336C446.878 461.856 450.612 497.457 450.612 497.457C450.612 497.457 449.122 499.07 442.48 498.165C435.838 497.26 429.122 494.417 429.122 494.417C429.122 494.417 431.657 460.124 434.659 447.57C437.662 435.018 444.648 405.211 444.648 405.211L444.47 390.841C444.47 390.841 440.973 400.693 436.607 408.248C432.243 415.803 427.694 418.702 420.321 418.992C412.95 419.282 407.745 405.5 412.718 393.646C417.691 381.794 422.526 366.449 425.31 358.179C428.093 349.91 436.769 323.535 443.165 318.231C449.561 312.931 479.768 300.473 482.902 301.126Z" fill="#92E3A9" stroke="#263238" stroke-miterlimit="10" stroke-linejoin="round"/>
<path d="M518.052 295.856C518.052 295.856 516.408 342.936 519.005 359.543C521.602 376.15 530.589 397.167 533.269 405.998C535.948 414.829 539.141 446.565 541.554 458.517C543.967 470.467 543.159 499.254 543.159 499.254C543.159 499.254 549.366 499.01 553.261 499.244C557.156 499.479 572.757 491.094 572.757 491.094C572.757 491.094 570.737 469.414 566.65 454.42C562.563 439.428 554.714 407.874 553.663 400.92C552.611 393.967 550.754 386.27 550.663 383.942C550.571 381.615 553.916 367.884 553.916 367.884C553.916 367.884 565.792 333.999 564.589 323.167C563.385 312.334 549.546 306.274 542.814 303.042C536.083 299.81 518.052 295.856 518.052 295.856Z" fill="#92E3A9" stroke="#263238" stroke-miterlimit="10" stroke-linejoin="round"/>
<path d="M551.812 363.692L561.039 400.631C561.039 400.631 558.924 406.154 560.537 407.646C562.15 409.136 562.226 411.077 562.226 411.077C562.226 411.077 560.889 416.569 562.547 419.224C564.205 421.879 571.792 476.367 571.792 476.367C571.792 476.367 565.442 482.835 565.548 485.55C565.655 488.266 565.002 491.4 564.302 493.371C563.602 495.342 561.039 499.327 562.218 499.669C563.397 500.011 567.976 497.889 568.303 496.321C568.631 494.753 569.718 492.768 569.718 492.768L570.774 490.006C570.774 490.006 571.513 498.915 571.202 500.869C570.89 502.824 570.579 504.779 569.49 506.765C568.403 508.75 565.81 511.962 567.781 512.66C569.752 513.36 575.653 505.355 575.653 505.355C575.653 505.355 577.966 504.876 580.621 503.216C583.276 501.558 585.389 496.034 585.702 494.079C586.013 492.124 585.709 484.364 585.662 483.201C585.617 482.037 584.1 473.161 584.1 473.161C584.1 473.161 588.688 431.792 588.23 420.153C587.772 408.514 586.21 398.473 586.21 398.473L584.694 389.596C584.694 389.596 581.186 339.997 575.715 329.333C570.244 318.668 561.372 310.469 554.313 308.805" fill="white"/>
<path d="M551.812 363.692L561.039 400.631C561.039 400.631 558.924 406.154 560.537 407.646C562.15 409.136 562.226 411.077 562.226 411.077C562.226 411.077 560.889 416.569 562.547 419.224C564.205 421.879 571.792 476.367 571.792 476.367C571.792 476.367 565.442 482.835 565.548 485.55C565.655 488.266 565.002 491.4 564.302 493.371C563.602 495.342 561.039 499.327 562.218 499.669C563.397 500.011 567.976 497.889 568.303 496.321C568.631 494.753 569.718 492.768 569.718 492.768L570.774 490.006C570.774 490.006 571.513 498.915 571.202 500.869C570.89 502.824 570.579 504.779 569.49 506.765C568.403 508.75 565.81 511.962 567.781 512.66C569.752 513.36 575.653 505.355 575.653 505.355C575.653 505.355 577.966 504.876 580.621 503.216C583.276 501.558 585.389 496.034 585.702 494.079C586.013 492.124 585.709 484.364 585.662 483.201C585.617 482.037 584.1 473.161 584.1 473.161C584.1 473.161 588.688 431.792 588.23 420.153C587.772 408.514 586.21 398.473 586.21 398.473L584.694 389.596C584.694 389.596 581.186 339.997 575.715 329.333C570.244 318.668 561.372 310.469 554.313 308.805" stroke="#263238" stroke-miterlimit="10" stroke-linejoin="round"/>
<path d="M551.16 362.503L561.038 400.63C561.038 400.63 558.923 406.152 560.536 407.644C562.149 409.135 562.225 411.075 562.225 411.075C562.225 411.075 560.888 416.567 562.546 419.222C562.777 419.59 563.12 420.958 563.541 423.035C568.174 420.024 578.782 414.773 586.798 423.319C587.272 423.824 587.748 424.159 588.226 424.348C588.268 422.714 588.272 421.29 588.227 420.154C587.769 408.515 586.208 398.475 586.208 398.475L584.692 389.597C584.692 389.597 581.184 339.999 575.712 329.334C570.241 318.669 559.454 310.545 552.394 308.88" fill="#92E3A9"/>
<path d="M551.16 362.503L561.038 400.63C561.038 400.63 558.923 406.152 560.536 407.644C562.149 409.135 562.225 411.075 562.225 411.075C562.225 411.075 560.888 416.567 562.546 419.222C562.777 419.59 563.12 420.958 563.541 423.035C568.174 420.024 578.782 414.773 586.798 423.319C587.272 423.824 587.748 424.159 588.226 424.348C588.268 422.714 588.272 421.29 588.227 420.154C587.769 408.515 586.208 398.475 586.208 398.475L584.692 389.597C584.692 389.597 581.184 339.999 575.712 329.334C570.241 318.669 559.454 310.545 552.394 308.88" stroke="#263238" stroke-miterlimit="10" stroke-linejoin="round"/>
<path d="M428.531 349.091L441.949 389.767L463.824 388.917L452.648 346.02L428.531 349.091Z" fill="#263238" stroke="#263238" stroke-miterlimit="10" stroke-linejoin="round"/>
<path d="M442.379 397.373C442.978 396.928 443.458 396.391 443.702 395.757C444.526 393.603 445.931 390.821 445.931 390.821C445.931 390.821 452.781 387.824 453.665 387.184C454.549 386.544 460.539 384.792 461.388 383.243C462.236 381.695 462.201 380.787 459.21 381.814C456.22 382.842 446.939 385.631 446.939 385.631C446.939 385.631 448.428 384.966 449.613 384.313C450.799 383.66 458.788 378.801 459.685 378.463C460.58 378.124 460.81 376.298 460.159 375.111C459.507 373.924 458.973 375.764 456.286 376.779C453.599 377.793 443.724 380.91 443.724 380.91C443.724 380.91 448.142 377.706 449.026 377.066C449.91 376.426 457.946 372.775 457.946 372.775C457.946 372.775 460.318 371.471 460.259 369.958C460.199 368.445 459.28 368.179 458.385 368.517C457.489 368.856 451.45 369.396 449.37 370.387C447.287 371.377 440.462 374.979 440.462 374.979L443.528 368.193C443.528 368.193 451.783 362.414 452.981 362.064C454.18 361.714 456.539 360.106 456.189 358.907C455.839 357.709 453.407 357.502 453.407 357.502C453.407 357.502 442.939 360.944 440.905 363.146C438.871 365.348 434.815 370.051 434.815 370.051C434.815 370.051 433.136 365.875 433.065 364.061C432.994 362.246 432.861 358.919 431.581 357.151C430.3 355.383 430.021 356.001 430.021 356.001C430.021 356.001 430.1 365.693 429.531 366.624C428.961 367.554 433.803 382.816 433.803 382.816L435.868 389.097C435.868 389.097 426.829 390.361 423.792 390.179C420.754 389.995 416.733 395.607 416.101 402.6C415.467 409.594 421.43 414.812 426.874 414.598C432.319 414.383 436.387 409.981 438.397 407.175C440.407 404.368 441.439 399.784 441.439 399.784L442.379 397.373Z" fill="white" stroke="#263238" stroke-miterlimit="10" stroke-linejoin="round"/>
</svg>
