<svg width="60" height="60" viewBox="0 0 60 60" fill="none" xmlns="http://www.w3.org/2000/svg">
<rect width="60" height="60" rx="10" fill="#6970FF" fill-opacity="0.1"/>
<path d="M37.1545 41.73C35.7661 43.0758 34.2503 42.8633 32.7911 42.2258C31.247 41.5742 29.8303 41.5458 28.2011 42.2258C26.1611 43.1042 25.0845 42.8492 23.8661 41.73C16.9528 34.6042 17.9728 23.7525 25.8211 23.3558C27.7336 23.455 29.0653 24.4042 30.1845 24.4892C31.8561 24.1492 33.457 23.1717 35.242 23.2992C37.3811 23.4692 38.9961 24.3192 40.0586 25.8492C35.6386 28.4983 36.687 34.3208 40.7386 35.95C39.9311 38.075 38.8828 40.1858 37.1403 41.7442L37.1545 41.73ZM30.0428 23.2708C29.8303 20.1117 32.3945 17.505 35.3411 17.25C35.752 20.905 32.0261 23.625 30.0428 23.2708Z" fill="black"/>
</svg>
