<svg width="360" height="360" viewBox="0 0 360 360" fill="none" xmlns="http://www.w3.org/2000/svg">
<path d="M0 15C0 6.71574 6.71573 0 15 0H345C353.284 0 360 6.71573 360 15V345C360 353.284 353.284 360 345 360H15C6.71574 360 0 353.284 0 345V15Z" fill="#144FC3"/>
<mask id="mask0_170_359" style="mask-type:alpha" maskUnits="userSpaceOnUse" x="0" y="0" width="360" height="360">
<path d="M0 15C0 6.71574 6.71573 0 15 0H345C353.284 0 360 6.71573 360 15V345C360 353.284 353.284 360 345 360H15C6.71574 360 0 353.284 0 345V15Z" fill="#144FC3"/>
</mask>
<g mask="url(#mask0_170_359)">
<g clip-path="url(#clip0_170_359)">
<path d="M145.081 145.374C145.081 122.542 145.081 99.4174 145.081 76.2927C122.249 76.2927 99.1246 76.2927 76 76.2927C76 99.4174 76 122.249 76 145.374C99.1246 145.374 121.957 145.374 145.081 145.374ZM86.2451 135.129C86.2451 118.444 86.2451 102.052 86.2451 85.9524C102.93 85.9524 119.029 85.9524 135.422 85.9524C135.422 102.345 135.422 118.737 135.422 135.129C118.737 135.129 102.345 135.129 86.2451 135.129Z" fill="white"/>
<path d="M215.627 76.2927C215.627 99.1247 215.627 121.957 215.627 145.374C238.752 145.374 261.584 145.374 284.708 145.374C284.708 122.249 284.708 99.4174 284.708 76.2927C261.876 76.2927 239.044 76.2927 215.627 76.2927ZM274.756 86.2451C274.756 102.93 274.756 119.322 274.756 135.422C258.071 135.422 241.971 135.422 225.579 135.422C225.579 119.029 225.579 102.637 225.579 86.2451C242.264 86.2451 258.656 86.2451 274.756 86.2451Z" fill="white"/>
<path d="M145.081 284.707C145.081 261.875 145.081 238.751 145.081 215.626C122.249 215.626 99.4174 215.626 76 215.626C76 238.751 76 261.583 76 284.707C99.1246 284.707 121.957 284.707 145.081 284.707ZM86.2451 275.048C86.2451 258.363 86.2451 241.971 86.2451 225.871C102.93 225.871 119.322 225.871 135.422 225.871C135.422 242.556 135.422 258.655 135.422 275.048C118.737 275.048 102.637 275.048 86.2451 275.048Z" fill="white"/>
<path d="M175.524 145.667C175.524 148.886 175.524 151.814 175.524 155.619C179.037 155.619 182.256 155.619 185.476 155.619C185.476 158.839 185.476 161.766 185.476 165.571C188.989 165.571 192.209 165.571 195.429 165.571C195.429 168.791 195.429 171.718 195.429 175.231C192.209 175.231 189.282 175.231 185.476 175.231C185.476 182.256 185.476 188.696 185.476 195.136C179.037 195.136 172.597 195.136 165.572 195.136C165.572 198.648 165.572 201.868 165.572 205.088C162.352 205.088 159.132 205.088 155.912 205.088C155.912 194.843 155.912 185.183 155.912 175.231C162.644 175.231 168.791 175.231 175.231 175.231C175.231 171.718 175.231 168.791 175.231 165.279C172.011 165.279 168.791 165.279 165.279 165.279C165.279 161.766 165.279 158.546 165.279 155.619C161.766 155.326 158.546 155.326 155.619 155.034C155.619 148.594 155.619 142.154 155.619 135.422C159.424 135.422 162.644 135.422 165.572 135.422C165.572 138.641 165.572 141.569 165.572 145.374C169.084 145.667 172.304 145.667 175.524 145.667Z" fill="white"/>
<path d="M136.007 165.572C136.007 169.084 136.007 172.304 136.007 175.524C139.227 175.524 142.154 175.524 145.374 175.524C145.374 179.036 145.374 181.964 145.374 185.476C138.642 185.476 132.202 185.476 125.469 185.476C125.469 192.209 125.469 198.649 125.469 204.796C118.737 204.796 112.297 204.796 105.857 204.796C105.857 201.283 105.857 198.356 105.857 195.136C109.077 195.136 112.297 195.136 115.81 195.136C115.81 181.378 115.81 168.499 115.81 155.034C129.275 155.034 142.154 155.034 155.327 155.034C155.327 158.254 155.327 161.473 155.327 165.279C148.594 165.572 142.154 165.572 136.007 165.572Z" fill="white"/>
<path d="M195.136 285C185.184 285 175.524 285 165.572 285C165.572 281.78 165.572 278.56 165.572 275.048C162.059 275.048 158.84 275.048 156.205 275.048C156.205 268.022 156.205 261.875 156.205 255.436C159.425 255.436 162.352 255.436 165.865 255.436C165.865 258.655 165.865 261.875 165.865 265.095C169.377 265.095 172.597 265.095 175.524 265.095C175.524 268.022 175.524 271.242 175.524 274.755C178.744 274.755 181.964 274.755 185.77 274.755C185.77 271.535 185.77 268.315 185.77 265.095C188.989 265.095 192.209 265.095 195.429 265.095C195.136 272.12 195.136 278.56 195.136 285Z" fill="white"/>
<path d="M265.388 195.136C261.583 195.136 258.655 195.136 255.436 195.136C255.436 191.623 255.436 188.403 255.436 185.476C258.655 185.476 261.583 185.476 265.388 185.476C265.388 181.964 265.388 178.744 265.388 175.524C271.828 175.524 278.267 175.524 285 175.524C285 179.036 285 181.964 285 185.769C281.78 185.769 278.56 185.769 275.34 185.769C275.34 192.794 275.34 198.941 275.34 205.381C272.12 205.381 268.901 205.381 265.388 205.381C265.388 202.161 265.388 198.941 265.388 195.136Z" fill="white"/>
<path d="M195.722 85.9524C195.722 89.465 195.722 92.6849 195.722 95.9048C198.942 95.9048 201.869 95.9048 205.089 95.9048C205.089 99.4174 205.089 102.345 205.089 105.564C205.089 109.077 205.089 112.004 205.089 115.224C201.869 115.224 198.649 115.224 195.136 115.224C195.136 112.004 195.136 108.784 195.136 105.564C191.917 105.564 188.989 105.564 185.77 105.564C185.77 95.3193 185.77 85.6597 185.77 76.2927C192.502 76.2927 198.942 76.2927 205.089 76.2927C205.089 79.5126 205.089 82.4398 205.089 85.9524C201.869 85.9524 198.649 85.9524 195.722 85.9524Z" fill="white"/>
<path d="M95.905 185.183C88.8798 185.183 82.44 185.183 76.293 185.183C76.293 181.671 76.293 178.744 76.293 175.817C86.2453 175.817 95.905 175.817 105.857 175.817C105.857 182.549 105.857 188.989 105.857 195.429C102.638 195.429 99.4176 195.429 95.905 195.429C95.905 192.209 95.905 188.989 95.905 185.183Z" fill="white"/>
<path d="M76.293 205.088C76.293 201.868 76.293 198.648 76.293 195.429C83.0255 195.429 89.4652 195.429 95.905 195.429C95.905 198.648 95.905 201.868 95.905 205.088C88.8798 205.088 82.44 205.088 76.293 205.088Z" fill="white"/>
<path d="M85.9531 165.279C85.9531 162.059 85.9531 159.132 85.9531 155.912C92.3929 155.912 98.8327 155.912 105.565 155.912C105.565 159.132 105.565 162.059 105.565 165.279C98.8327 165.279 92.3929 165.279 85.9531 165.279Z" fill="white"/>
<path d="M165.572 115.81C168.792 115.81 172.012 115.81 175.525 115.81C175.525 122.835 175.525 129.275 175.525 135.714C172.305 135.714 169.085 135.714 165.572 135.714C165.572 128.982 165.572 122.249 165.572 115.81Z" fill="white"/>
<path d="M285 155.912C285 159.132 285 162.059 285 165.279C278.268 165.279 271.828 165.279 265.096 165.279C265.096 162.059 265.096 158.839 265.096 155.912C272.414 155.912 278.561 155.912 285 155.912Z" fill="white"/>
<path d="M145.375 205.088C142.155 205.088 138.935 205.088 136.008 205.088C136.008 201.868 136.008 198.941 136.008 195.721C139.52 195.721 142.448 195.721 145.375 195.721C145.375 198.941 145.375 201.868 145.375 205.088Z" fill="white"/>
<path d="M205.089 136.007C205.089 139.227 205.089 142.154 205.089 145.374C201.576 145.374 198.357 145.374 195.137 145.374C195.137 142.154 195.137 138.934 195.137 136.007C199.235 136.007 202.162 136.007 205.089 136.007Z" fill="white"/>
<path d="M185.477 145.667C188.696 145.667 191.916 145.667 195.136 145.374C195.136 148.594 195.136 152.107 195.429 155.326C192.209 155.326 188.989 155.326 185.477 155.326C185.477 152.107 185.477 148.887 185.477 145.667Z" fill="white"/>
<path d="M175.523 135.714C178.743 135.714 181.963 135.714 185.476 135.714C185.476 139.227 185.476 142.447 185.476 145.667C182.256 145.667 179.036 145.667 175.523 145.667C175.523 142.154 175.523 138.934 175.523 135.714Z" fill="white"/>
<path d="M245.482 155.912C248.702 155.912 251.922 155.912 255.142 155.912C255.142 159.424 255.142 162.352 255.142 165.571C251.922 165.571 248.702 165.571 245.482 165.571C245.482 161.766 245.482 158.839 245.482 155.912Z" fill="white"/>
<path d="M245.482 185.476C245.482 181.964 245.482 178.744 245.482 175.524C248.995 175.524 251.922 175.524 255.142 175.524C255.142 178.744 255.142 181.964 255.142 185.476C251.922 185.476 248.702 185.476 245.482 185.476Z" fill="white"/>
<path d="M255.436 165.571C258.655 165.571 261.875 165.571 265.095 165.279C265.095 168.499 265.095 172.011 265.388 175.231C262.168 175.231 258.948 175.231 255.436 175.231C255.436 172.011 255.436 168.791 255.436 165.571Z" fill="white"/>
<path d="M155.912 106.15C159.425 106.15 162.352 106.15 165.572 106.15C165.572 109.663 165.572 112.59 165.572 115.81C162.352 115.81 159.132 115.81 155.912 115.81C155.912 112.004 155.912 109.077 155.912 106.15Z" fill="white"/>
<path d="M175.231 95.3193C175.231 98.8319 175.231 101.759 175.231 104.979C172.012 104.979 168.792 104.979 165.572 104.979C165.572 101.466 165.572 98.5392 165.572 95.612C162.352 95.612 159.132 95.612 155.912 95.612C155.912 88.8796 155.912 82.7325 155.912 76C162.352 76 168.792 76 175.231 76C175.231 82.7325 175.231 89.1723 175.231 95.3193Z" fill="white"/>
<path d="M285 245.483C285 248.703 285 251.63 285 254.85C281.78 254.85 278.853 254.85 275.633 254.85C275.633 251.337 275.633 248.41 275.633 245.483C278.853 245.483 282.073 245.483 285 245.483Z" fill="white"/>
<path d="M284.707 265.388C284.707 268.608 284.707 271.828 284.707 274.755C281.487 274.755 278.56 274.755 275.34 274.755C275.34 271.242 275.34 268.315 275.34 265.388C278.852 265.388 281.78 265.388 284.707 265.388Z" fill="white"/>
<path d="M175.524 265.095C178.744 265.095 181.964 265.095 185.477 265.095C185.477 261.875 185.477 258.948 185.477 255.436C188.989 255.436 191.917 255.436 195.429 255.436C195.429 245.483 195.429 235.823 195.429 225.871C205.382 225.871 215.041 225.871 225.286 225.871C225.286 229.091 225.286 232.018 225.286 235.238C222.066 235.238 219.139 235.238 215.627 235.238C215.627 241.971 215.627 248.41 215.627 255.143C212.114 255.143 209.187 255.143 205.967 255.143C205.967 258.655 205.967 261.583 205.967 265.095C208.894 265.095 212.114 265.095 215.334 265.095C215.334 268.608 215.334 271.535 215.334 275.048C225.286 275.048 234.946 275.048 245.191 275.048C245.191 278.56 245.191 281.78 245.191 285C251.924 285 258.363 285 264.803 285C264.803 282.073 264.803 278.853 264.803 275.34C261.876 275.34 258.656 275.34 255.436 275.34C255.436 271.828 255.436 268.901 255.436 265.388C258.363 265.388 261.583 265.388 264.803 265.388C264.803 261.875 264.803 258.655 264.803 255.436C261.583 255.436 258.656 255.436 255.436 255.436C255.436 251.923 255.436 248.996 255.436 245.483C258.363 245.483 261.291 245.483 264.803 245.483C264.803 241.971 264.803 239.043 264.803 235.531C261.876 235.531 258.949 235.531 255.436 235.531C255.436 232.018 255.436 229.091 255.436 225.578C258.363 225.578 261.29 225.578 265.096 225.578C268.316 225.578 271.828 225.578 275.341 225.578C275.341 228.798 275.341 231.725 275.341 234.945C278.561 234.945 281.488 234.945 285.001 234.945C285.001 232.018 285.001 229.091 285.001 225.578C285.001 222.066 285.001 218.846 285.001 215.041C285.001 212.113 285.001 209.186 285.001 205.381C281.781 205.381 278.561 205.381 275.341 205.381C275.341 208.308 275.341 211.528 275.341 215.041C275.341 215.333 275.341 215.919 275.341 216.211C272.121 216.211 268.901 216.211 265.096 216.211C265.096 212.699 265.096 208.894 265.096 205.381C258.656 205.381 252.216 205.381 245.484 205.381C245.484 201.868 245.484 198.941 245.484 195.721C241.971 195.721 238.751 195.721 235.531 195.721C235.531 202.161 235.531 208.308 235.531 215.041C228.799 215.041 222.359 215.041 215.334 215.041C215.334 211.821 215.334 208.601 215.334 205.381C212.114 205.381 208.894 205.381 205.382 205.381C205.382 208.894 205.382 212.113 205.382 215.041C201.869 215.041 198.942 215.041 195.722 215.041C195.722 208.308 195.722 201.868 195.722 195.429C198.942 195.429 201.869 195.429 205.674 195.429C205.674 191.916 205.674 188.696 205.674 185.476C208.894 185.476 212.114 185.476 215.627 185.476C215.627 192.501 215.627 198.941 215.627 205.381C218.847 205.381 221.774 205.381 225.286 205.381C225.286 198.941 225.286 192.501 225.286 185.769C228.799 185.769 231.726 185.769 234.946 185.769C234.946 179.036 234.946 172.597 234.946 165.571C231.726 165.571 228.799 165.571 225.579 165.571C225.579 162.352 225.579 159.424 225.579 155.619C215.334 155.619 205.382 155.619 195.722 155.619C195.722 158.839 195.722 162.059 195.722 165.571C198.942 165.571 202.162 165.571 205.674 165.571C205.674 172.597 205.674 179.036 205.674 185.476C202.454 185.476 199.527 185.476 195.722 185.476C195.722 188.989 195.722 192.209 195.722 195.429C192.502 195.429 189.282 195.429 185.77 195.429C185.77 201.868 185.77 208.308 185.77 215.041C181.964 215.041 179.037 215.041 175.524 215.041C175.524 211.821 175.524 208.601 175.524 205.381C172.012 205.381 168.792 205.381 165.865 205.381C165.865 208.601 165.865 211.528 165.865 215.041C162.645 215.041 159.425 215.041 156.205 215.041C156.205 218.553 156.205 222.066 156.205 225.578C160.01 225.578 163.23 225.578 166.45 225.578C166.45 228.798 166.45 232.018 166.45 235.823C162.645 235.823 159.425 235.823 156.205 235.823C156.205 239.043 156.205 241.971 156.205 245.19C162.645 245.19 169.377 245.19 175.817 245.19C175.524 251.923 175.524 258.655 175.524 265.095ZM215.627 175.231C215.627 172.011 215.627 168.791 215.627 165.571C219.139 165.571 222.066 165.571 225.286 165.571C225.286 168.791 225.286 172.011 225.286 175.231C221.774 175.231 218.554 175.231 215.627 175.231ZM235.531 225.578C239.044 225.578 241.971 225.578 244.898 225.578C244.898 238.751 244.898 251.923 244.898 264.802C238.166 264.802 232.019 264.802 225.286 264.802C225.286 254.85 225.286 244.898 225.286 235.238C228.506 235.238 231.726 235.238 235.531 235.238C235.531 231.725 235.531 228.506 235.531 225.578ZM175.524 245.19C175.524 238.751 175.524 232.311 175.524 225.578C179.037 225.578 182.257 225.578 185.184 225.578C185.184 232.311 185.184 238.458 185.184 245.19C181.671 245.19 178.744 245.19 175.524 245.19Z" fill="white"/>
<path d="M95.9043 125.469C95.9043 115.224 95.9043 105.857 95.9043 96.1975C105.857 96.1975 115.516 96.1975 125.176 96.1975C125.176 106.15 125.176 115.81 125.176 125.469C115.516 125.469 105.857 125.469 95.9043 125.469Z" fill="white"/>
<path d="M265.096 95.9048C265.096 105.857 265.096 115.224 265.096 125.176C254.851 125.176 245.191 125.176 235.531 125.176C235.531 115.224 235.531 105.564 235.531 95.9048C245.484 95.9048 255.143 95.9048 265.096 95.9048Z" fill="white"/>
<path d="M95.9043 264.802C95.9043 254.85 95.9043 245.19 95.9043 235.531C105.857 235.531 115.224 235.531 125.176 235.531C125.176 245.483 125.176 255.436 125.176 264.802C115.224 264.802 105.564 264.802 95.9043 264.802Z" fill="white"/>
</g>
</g>
<defs>
<clipPath id="clip0_170_359">
<rect width="209" height="209" fill="white" transform="translate(76 76)"/>
</clipPath>
</defs>
</svg>
