<svg width="343" height="70" viewBox="0 0 343 70" fill="none" xmlns="http://www.w3.org/2000/svg">
<g clip-path="url(#clip0_78_10)">
<path d="M93.4271 55.3407C91.6942 55.3103 89.9655 55.1589 88.2541 54.8878C86.9047 54.7169 85.624 54.199 84.5392 53.3857C84.0749 53.0007 83.7076 52.5136 83.4665 51.9632C83.2254 51.4129 83.1172 50.8144 83.1505 50.2154V41.5012L88.7112 40.8591V47.9738C88.6879 48.3839 88.7604 48.7938 88.9229 49.1716C89.0855 49.5494 89.3338 49.885 89.6486 50.1523C90.2735 50.6607 91.4308 50.9167 93.1204 50.9206C93.9976 50.9575 94.8737 50.8271 95.7012 50.5364C95.977 50.4316 96.2285 50.2724 96.4403 50.0684C96.6522 49.8644 96.82 49.6199 96.9337 49.3497C97.1676 48.7029 97.2775 48.0185 97.2577 47.3317V42.4242C97.2987 41.2448 96.9713 40.0816 96.3203 39.0934C95.5536 38.1052 94.4698 37.4056 93.2477 37.1097L88.5318 35.7338C86.6339 35.1376 85.2664 34.3732 84.4293 33.4406C83.5844 32.5233 83.1678 31.0557 83.1678 29.0491V21.258C83.1678 19.4234 83.6192 18.0532 84.5218 17.1589C85.53 16.2087 86.8049 15.5831 88.1788 15.3645C89.8961 15.0494 91.6402 14.8996 93.3866 14.9173C95.0142 14.8999 96.6392 15.0498 98.2356 15.3645C99.4788 15.5779 100.64 16.1207 101.597 16.9353C102.015 17.3399 102.339 17.829 102.548 18.3693C102.757 18.9096 102.845 19.4882 102.807 20.0655V28.751L97.2461 29.588V22.6683C97.2461 21.3038 96.9626 20.3751 96.4013 19.9107C95.84 19.4464 94.7464 19.2056 93.1088 19.2056C91.4713 19.2056 90.3777 19.4922 89.6891 20.0655C89.0005 20.6388 88.688 21.7453 88.688 23.3677V27.7248C88.6644 28.748 88.9705 29.7521 89.5618 30.5913C90.1888 31.4369 91.0895 32.044 92.1136 32.3112L97.1535 33.8477C99.1846 34.421 100.625 35.2465 101.488 36.2498C102.35 37.2531 102.784 38.7379 102.784 40.7043V48.8051C102.784 50.6396 102.384 52.0175 101.586 52.9386C100.719 53.8955 99.5612 54.5474 98.2877 54.7961C96.6893 55.1345 95.0614 55.317 93.4271 55.3407Z" fill="black"/>
<path d="M108.107 14.6593H113.535V27.9197C114.154 26.8794 115.048 26.0268 116.121 25.4545C117.439 24.8214 118.894 24.5239 120.357 24.5889C122.469 24.5889 124.049 24.9328 125.108 25.6151C126.081 26.2019 126.831 27.0906 127.243 28.1433C127.605 29.0753 127.801 30.0628 127.821 31.0614V54.9566H122.388V32.9189C122.388 31.4685 122.023 30.4079 121.289 29.7486C120.554 29.0893 119.454 28.751 117.99 28.751C116.967 28.6823 115.949 28.9526 115.097 29.5192C114.412 30.0549 113.886 30.7641 113.575 31.5717V54.9566H108.148L108.107 14.6593Z" fill="black"/>
<path d="M138.492 54.9566C136.852 54.9566 135.677 54.7101 134.968 54.217C134.585 53.9082 134.272 53.524 134.048 53.0887C133.824 52.6534 133.694 52.1767 133.666 51.6888C133.468 50.0299 133.383 48.3598 133.411 46.6896V31.5717C133.361 30.2236 133.557 28.8776 133.99 27.5987C134.18 27.1147 134.472 26.6764 134.846 26.3126C135.22 25.9489 135.668 25.6681 136.16 25.4889C137.59 25.0042 139.099 24.7865 140.609 24.8468H153.027V54.9566H147.611V29.2039H141.662C140.974 29.152 140.284 29.2723 139.655 29.5536C139.453 29.685 139.285 29.8602 139.163 30.0659C139.04 30.2716 138.967 30.5023 138.949 30.7404C138.848 31.5006 138.804 32.267 138.816 33.0336V46.6781C138.789 47.5368 138.855 48.3959 139.012 49.2408C139.042 49.4669 139.124 49.683 139.253 49.8721C139.381 50.0612 139.553 50.218 139.753 50.3301C140.278 50.5299 140.84 50.6178 141.402 50.588H145.996L145.476 54.9451L138.492 54.9566Z" fill="black"/>
<path d="M159.247 54.9566V24.8468H163.645L164.16 27.9828C164.806 26.877 165.747 25.9686 166.88 25.3571C167.943 24.776 169.137 24.4685 170.351 24.4627C171.184 24.4444 172.016 24.4981 172.84 24.6233C173.367 24.7099 173.879 24.8701 174.361 25.0991L174.101 29.7772C173.52 29.5889 172.926 29.4395 172.325 29.3301C171.524 29.191 170.713 29.1257 169.9 29.1351C168.718 29.1148 167.56 29.4749 166.602 30.1613C165.615 30.9041 164.927 31.9713 164.663 33.1712V54.9566H159.247Z" fill="black"/>
<path d="M187.115 55.2088C184.441 55.2088 182.416 54.8668 181.039 54.1826C179.811 53.653 178.821 52.6967 178.256 51.4939C177.78 50.3805 177.538 49.1828 177.544 47.9738V31.7666C177.532 30.5405 177.786 29.3262 178.29 28.2064C178.885 27.0186 179.886 26.0782 181.114 25.552C182.514 24.8717 184.596 24.5296 187.358 24.5258C189.896 24.5258 191.879 24.8564 193.306 25.5176C194.568 26.0287 195.628 26.9321 196.327 28.0917C196.918 29.1939 197.219 30.4266 197.2 31.6749V38.2105L191.773 38.5315V32.6781C191.794 32.1446 191.708 31.6123 191.519 31.1122C191.33 30.6121 191.043 30.1543 190.673 29.7658C189.94 29.0014 188.841 28.6192 187.375 28.6192C186.78 28.5821 186.184 28.6645 185.622 28.8616C185.06 29.0586 184.544 29.3662 184.106 29.7658C183.728 30.1497 183.433 30.606 183.239 31.1067C183.045 31.6075 182.956 32.1422 182.977 32.6781V46.9476C182.949 47.4749 183.031 48.0024 183.221 48.4961C183.41 48.9898 183.702 49.4388 184.077 49.8141C184.477 50.177 184.946 50.4572 185.457 50.6383C185.967 50.8195 186.509 50.8979 187.051 50.869C188.69 50.869 189.886 50.5059 190.638 49.7797C191.039 49.3639 191.348 48.8708 191.547 48.3312C191.746 47.7916 191.831 47.2172 191.796 46.6437V44.1441L197.223 43.697V47.5381C197.241 48.8798 196.942 50.207 196.35 51.4136C195.686 52.6674 194.601 53.6527 193.283 54.1998C191.798 54.8763 189.742 55.2127 187.115 55.2088ZM178.256 40.733V37.8378H197.2V40.7043L178.256 40.733Z" fill="black"/>
<path d="M218.083 54.9566C216.444 54.9566 215.269 54.7101 214.559 54.217C214.173 53.9104 213.855 53.527 213.627 53.0917C213.399 52.6563 213.265 52.1784 213.234 51.6888C213.035 50.0301 212.948 48.3599 212.974 46.6896V31.5717C212.923 30.2236 213.119 28.8776 213.553 27.5987C213.742 27.1155 214.033 26.6776 214.406 26.314C214.779 25.9503 215.226 25.6691 215.717 25.4889C217.162 24.9997 218.687 24.782 220.213 24.8468H232.613V54.9566H227.185V29.2039H221.254C220.566 29.1515 219.875 29.2718 219.246 29.5536C219.045 29.6853 218.876 29.8605 218.753 30.0661C218.63 30.2716 218.555 30.5021 218.535 30.7404C218.437 31.5008 218.394 32.2671 218.407 33.0336V46.6781C218.381 47.5368 218.447 48.3959 218.604 49.2408C218.634 49.4669 218.716 49.683 218.845 49.8721C218.973 50.0612 219.144 50.218 219.345 50.3301C219.87 50.5299 220.432 50.6178 220.994 50.588H225.583L225.068 54.9451L218.083 54.9566Z" fill="black"/>
<path d="M258.496 55.3407C256.763 55.3105 255.034 55.1592 253.322 54.8878C251.971 54.7171 250.689 54.1993 249.602 53.3857C249.137 53.0007 248.77 52.5136 248.529 51.9632C248.288 51.4129 248.18 50.8144 248.213 50.2154V41.5012L253.774 40.8591V47.9738C253.751 48.3839 253.823 48.7938 253.986 49.1716C254.148 49.5494 254.396 49.885 254.711 50.1523C255.336 50.6607 256.493 50.9167 258.183 50.9206C259.062 50.9574 259.94 50.827 260.77 50.5364C261.045 50.4316 261.295 50.2722 261.506 50.0682C261.717 49.8642 261.884 49.6197 261.996 49.3497C262.23 48.7029 262.34 48.0185 262.32 47.3317V42.4242C262.361 41.2448 262.034 40.0816 261.383 39.0934C260.616 38.1052 259.532 37.4056 258.31 37.1097L253.594 35.7625C251.697 35.1663 250.327 34.4019 249.486 33.4693C248.647 32.552 248.225 31.0844 248.225 29.0778V21.258C248.225 19.4234 248.676 18.0532 249.584 17.1589C250.59 16.2088 251.864 15.5832 253.236 15.3645C254.953 15.0495 256.697 14.8998 258.443 14.9173C260.071 14.9002 261.696 15.0501 263.292 15.3645C264.535 15.5803 265.696 16.1228 266.654 16.9353C267.073 17.3393 267.398 17.8283 267.608 18.3686C267.818 18.9089 267.907 19.4878 267.869 20.0655V28.751L262.309 29.588V22.6683C262.309 21.3038 262.025 20.3751 261.47 19.9107C260.914 19.4464 259.809 19.2056 258.171 19.2056C256.534 19.2056 255.446 19.4922 254.775 20.0655C254.104 20.6388 253.774 21.7453 253.774 23.3677V27.7248C253.75 28.748 254.056 29.7521 254.648 30.5913C255.275 31.4369 256.175 32.044 257.199 32.3112L262.245 33.8477C264.27 34.421 265.717 35.2465 266.579 36.2498C267.441 37.2531 267.869 38.7379 267.869 40.7043V48.8051C267.869 50.6396 267.47 52.0175 266.672 52.9386C265.804 53.8955 264.647 54.5474 263.373 54.7961C261.769 55.1357 260.136 55.3182 258.496 55.3407Z" fill="black"/>
<path d="M282.22 55.2088C279.552 55.2088 277.521 54.8706 276.144 54.1826C274.918 53.6528 273.93 52.6963 273.367 51.4939C272.891 50.3805 272.649 49.1828 272.655 47.9738V31.7666C272.641 30.5409 272.893 29.3266 273.395 28.2064C273.999 27.0164 275.007 26.0762 276.242 25.552C277.643 24.8717 279.722 24.5296 282.48 24.5258C285.026 24.5258 287.009 24.8564 288.429 25.5176C289.688 26.0392 290.743 26.9502 291.437 28.1147C292.027 29.2177 292.327 30.4498 292.311 31.6978V36.3129L286.878 36.8231V32.6781C286.899 32.1446 286.813 31.6123 286.624 31.1122C286.436 30.6121 286.148 30.1543 285.778 29.7658C285.045 29.0014 283.946 28.6192 282.48 28.6192C281.886 28.5815 281.291 28.6637 280.73 28.8608C280.169 29.0579 279.654 29.3658 279.217 29.7658C278.832 30.1467 278.532 30.6018 278.332 31.1028C278.133 31.6038 278.04 32.14 278.059 32.6781V46.9476C278.032 47.4748 278.116 48.0019 278.305 48.4954C278.494 48.9888 278.785 49.4379 279.159 49.8141C279.559 50.1765 280.028 50.4563 280.539 50.6374C281.05 50.8185 281.591 50.8972 282.133 50.869C283.772 50.869 284.968 50.5059 285.72 49.7797C286.122 49.3647 286.432 48.8717 286.631 48.3319C286.83 47.7921 286.914 47.2173 286.878 46.6437V43.0377L292.311 42.5905V47.5209C292.325 48.8622 292.026 50.1885 291.437 51.3964C290.77 52.6494 289.684 53.6341 288.365 54.1826C286.899 54.8706 284.851 55.2127 282.22 55.2088Z" fill="black"/>
<path d="M302.588 54.9566C300.952 54.9566 299.778 54.7101 299.064 54.217C298.677 53.9104 298.36 53.527 298.132 53.0917C297.903 52.6563 297.77 52.1784 297.739 51.6888C297.539 50.0301 297.452 48.3599 297.478 46.6896V31.5717C297.428 30.2236 297.624 28.8776 298.057 27.5987C298.247 27.1155 298.538 26.6776 298.911 26.314C299.284 25.9503 299.731 25.6691 300.221 25.4889C301.667 24.9997 303.191 24.782 304.717 24.8468H317.129V54.9566H311.701V29.2039H305.759C305.07 29.1515 304.38 29.2718 303.751 29.5536C303.549 29.6853 303.381 29.8605 303.258 30.0661C303.134 30.2716 303.06 30.5021 303.039 30.7404C302.941 31.5008 302.899 32.2671 302.912 33.0336V46.6781C302.886 47.5368 302.952 48.3959 303.109 49.2408C303.138 49.4669 303.221 49.683 303.349 49.8721C303.478 50.0612 303.649 50.218 303.849 50.3301C304.375 50.5299 304.936 50.6178 305.498 50.588H310.087L309.572 54.9451L302.588 54.9566Z" fill="black"/>
<path d="M323.344 24.7838H327.741L328.256 27.9197C328.92 26.7951 329.896 25.8835 331.068 25.294C332.465 24.6145 334.009 24.2839 335.564 24.3309C337.979 24.3309 339.821 24.8755 341.09 25.9648C342.36 27.0541 342.996 28.709 343 30.9296V54.9566H337.567V32.724C337.567 31.3137 337.181 30.2989 336.409 29.6798C335.471 29.0102 334.329 28.6821 333.175 28.751C332.168 28.6938 331.171 28.9636 330.334 29.5192C329.634 30.0467 329.096 30.7576 328.783 31.5717V54.9566H323.344V24.7838Z" fill="black"/>
<path d="M18.0535 63.9115H13.355C11.4408 63.91 9.60545 63.1555 8.25242 61.8139C6.89939 60.4723 6.13936 58.6533 6.13936 56.7568V53.0647H0V56.7568C0.00152993 60.2666 1.40869 63.6325 3.91258 66.1154C6.41646 68.5983 9.81244 69.9954 13.355 70H18.0535V63.9115Z" fill="#6970FF"/>
<path d="M25.4601 32.8731H13.3087C11.4045 32.8595 9.5828 32.1012 8.2401 30.7634C6.89739 29.4255 6.14237 27.6164 6.13936 25.7297V25.1564H1.25862e-06V25.7297C-0.00153551 29.2416 1.40427 32.6104 3.90849 35.0958C6.4127 37.5812 9.81043 38.9799 13.355 38.9844H25.4601C27.3708 38.9814 29.2048 39.7293 30.5596 41.0642C31.9145 42.399 32.6797 44.2118 32.6873 46.1048V56.7568C32.6834 58.621 31.9452 60.41 30.63 61.7431C29.3147 63.0762 27.5263 63.848 25.6453 63.8943V69.9771C29.1551 69.9319 32.5058 68.5195 34.9726 66.0454C37.4394 63.5713 38.8239 60.2345 38.8267 56.7568V46.1048C38.8221 42.595 37.412 39.2303 34.9059 36.7495C32.3999 34.2688 29.0027 32.8746 25.4601 32.8731Z" fill="#6970FF"/>
<path d="M25.4601 0H13.3087C9.77571 0.0151521 6.39246 1.41553 3.89858 3.895C1.40469 6.37448 0.0030258 9.73135 0 13.2318L0 17.6634H6.13936V13.2318C6.14242 11.3367 6.90362 9.52003 8.25615 8.17998C9.60868 6.83993 11.4422 6.08575 13.355 6.08272H25.4601C26.4085 6.08197 27.3477 6.26628 28.2241 6.62515C29.1005 6.98402 29.897 7.5104 30.5681 8.17425C31.2392 8.83811 31.7718 9.62642 32.1354 10.4942C32.499 11.362 32.6866 12.2922 32.6873 13.2318V21.4988H38.8267V13.2318C38.8236 9.72144 37.414 6.35591 34.9076 3.8748C32.4012 1.39369 29.0032 -1.31569e-06 25.4601 0Z" fill="#6970FF"/>
<path d="M46.0423 38.9844H58.1938C60.0826 38.9902 61.8938 39.7295 63.2386 41.0436C64.5834 42.3578 65.3544 44.142 65.3862 46.0131H71.5314C71.5039 42.5217 70.0859 39.1822 67.5859 36.7214C65.0859 34.2606 61.7062 32.8775 58.1822 32.8731H46.0308C44.1205 32.8685 42.2899 32.1143 40.9397 30.7755C39.5895 29.4366 38.8297 27.6223 38.8267 25.7297V13.2318C38.8298 11.3367 39.591 9.52003 40.9435 8.17998C42.296 6.83993 44.1296 6.08575 46.0423 6.08272H50.3416V0H46.0423C42.5013 0.00303622 39.1062 1.39807 36.6023 3.87885C34.0984 6.35963 32.6904 9.72342 32.6873 13.2318V25.7297C32.6858 29.2416 34.0916 32.6104 36.5958 35.0958C39.1 37.5812 42.4978 38.9799 46.0423 38.9844Z" fill="#6970FF"/>
<path d="M65.3862 53.5291V56.7568C65.3847 58.6508 64.6246 60.4669 63.2728 61.8062C61.921 63.1455 60.0881 63.8986 58.1764 63.9001H46.025C44.1157 63.894 42.2866 63.1391 40.9377 61.8005C39.5887 60.4618 38.8297 58.6484 38.8267 56.7568V53.0647H32.6873V56.7568C32.6889 60.2666 34.096 63.6325 36.5999 66.1154C39.1038 68.5983 42.4998 69.9954 46.0423 70H58.1937C61.7303 69.9864 65.1174 68.5852 67.6137 66.1033C70.1101 63.6213 71.5125 60.2607 71.514 56.7568V53.5291H65.3862Z" fill="#6970FF"/>
<path d="M58.1648 0H57.9391V6.08272H58.1648C60.0791 6.08272 61.915 6.83574 63.2691 8.17628C64.6232 9.51683 65.3847 11.3352 65.3862 13.2318V21.4988H71.5256V13.2318C71.5225 9.72243 70.1137 6.35777 67.6086 3.87683C65.1034 1.39588 61.7068 0.00151788 58.1648 0Z" fill="#6970FF"/>
<path d="M25.2113 42.3841H13.6385C12.7821 42.3856 11.9612 42.723 11.3551 43.3224C10.7489 43.9218 10.407 44.7346 10.4039 45.5831V57.0491C10.407 57.8976 10.7489 58.7104 11.3551 59.3099C11.9612 59.9093 12.7821 60.2466 13.6385 60.2482H25.2113C26.0677 60.2466 26.8887 59.9093 27.4948 59.3099C28.1009 58.7104 28.4428 57.8976 28.4459 57.0491V45.5831C28.4428 44.7346 28.1009 43.9218 27.4948 43.3224C26.8887 42.723 26.0677 42.3856 25.2113 42.3841ZM21.9883 54.9451H16.8442C16.5607 54.9451 16.2887 54.8344 16.0872 54.6369C15.8857 54.4394 15.771 54.1711 15.7679 53.8903V48.7879C15.7679 48.5045 15.8811 48.2327 16.0828 48.0318C16.2845 47.8309 16.5582 47.7173 16.8442 47.7158H21.9883C22.2743 47.7173 22.548 47.8309 22.7497 48.0318C22.9514 48.2327 23.0646 48.5045 23.0646 48.7879V53.8903C23.0615 54.1711 22.9468 54.4394 22.7453 54.6369C22.5438 54.8344 22.2717 54.9451 21.9883 54.9451Z" fill="#FF8A90"/>
<path d="M57.9044 42.3841H46.2911C45.4347 42.3856 44.6138 42.723 44.0077 43.3224C43.4016 43.9218 43.0596 44.7346 43.0565 45.5831V57.0491C43.0543 57.4717 43.1362 57.8906 43.2977 58.2817C43.4591 58.6728 43.6969 59.0285 43.9974 59.3284C44.2979 59.6283 44.6553 59.8664 45.0489 60.0292C45.4425 60.1919 45.8646 60.2761 46.2911 60.2768H57.8639C58.7193 60.2738 59.5388 59.9358 60.1437 59.3365C60.7485 58.7372 61.0897 57.9253 61.0927 57.0778V45.6118C61.0974 44.7662 60.7652 43.9529 60.1682 43.3486C59.5713 42.7443 58.7578 42.3977 57.9044 42.3841ZM54.6698 54.9451H49.5315C49.2481 54.9451 48.9761 54.8344 48.7745 54.6369C48.573 54.4394 48.4583 54.1711 48.4553 53.8903V48.7879C48.4552 48.5045 48.5685 48.2327 48.7701 48.0318C48.9718 47.8309 49.2455 47.7173 49.5315 47.7158H54.6698C54.9558 47.7173 55.2296 47.8309 55.4312 48.0318C55.6329 48.2327 55.7461 48.5045 55.7461 48.7879V53.8903C55.7431 54.1711 55.6283 54.4394 55.4268 54.6369C55.2253 54.8344 54.9533 54.9451 54.6698 54.9451Z" fill="#FF8A90"/>
<path d="M25.2113 10.7895H13.6385C12.7821 10.791 11.9612 11.1284 11.3551 11.7278C10.7489 12.3273 10.407 13.14 10.4039 13.9885V25.4832C10.4115 26.3248 10.7523 27.1297 11.3529 27.7248C11.9535 28.3199 12.766 28.6575 13.6154 28.665H25.1882C26.0446 28.6635 26.8655 28.3262 27.4716 27.7267C28.0778 27.1273 28.4197 26.3145 28.4228 25.466V13.9885C28.4197 13.144 28.081 12.3346 27.4799 11.7358C26.8787 11.1371 26.0637 10.7971 25.2113 10.7895ZM21.9883 23.3505H16.8442C16.5587 23.3505 16.285 23.2382 16.0832 23.0382C15.8813 22.8382 15.7679 22.567 15.7679 22.2842V17.199C15.7679 16.9157 15.8811 16.6439 16.0828 16.443C16.2845 16.2421 16.5582 16.1285 16.8442 16.1269H21.9883C22.2733 16.13 22.5455 16.2442 22.7459 16.445C22.9464 16.6457 23.0588 16.9167 23.0588 17.199V22.2899C23.0573 22.5708 22.944 22.8396 22.7436 23.0382C22.5431 23.2368 22.2717 23.349 21.9883 23.3505Z" fill="#FF8A90"/>
<path d="M57.9044 10.7895H46.2911C45.4347 10.791 44.6138 11.1284 44.0077 11.7278C43.4016 12.3273 43.0596 13.14 43.0565 13.9885V25.4832C43.0642 26.3287 43.4081 27.1371 44.0137 27.7328C44.6194 28.3286 45.4377 28.6636 46.2911 28.665H57.8639C58.7193 28.662 59.5388 28.324 60.1437 27.7247C60.7485 27.1254 61.0897 26.3135 61.0927 25.466V13.9885C61.0898 13.1479 60.7542 12.342 60.1581 11.7438C59.5619 11.1457 58.7528 10.803 57.9044 10.7895ZM54.6698 23.3505H49.5315C49.2461 23.3505 48.9723 23.2382 48.7705 23.0382C48.5686 22.8382 48.4553 22.567 48.4553 22.2842V17.199C48.4552 16.9157 48.5685 16.6439 48.7701 16.443C48.9718 16.2421 49.2455 16.1285 49.5315 16.1269H54.6698C54.9558 16.1285 55.2296 16.2421 55.4312 16.443C55.6329 16.6439 55.7461 16.9157 55.7461 17.199V22.2899C55.7446 22.5717 55.6305 22.8415 55.4288 23.0402C55.2272 23.239 54.9543 23.3505 54.6698 23.3505Z" fill="#FF8A90"/>
</g>
<defs>
<clipPath id="clip0_78_10">
<rect width="343" height="70" fill="white"/>
</clipPath>
</defs>
</svg>
