<svg width="100" height="100" viewBox="0 0 100 100" fill="none" xmlns="http://www.w3.org/2000/svg">
<circle cx="50" cy="50" r="50" fill="#FF8469"/>
<path fill-rule="evenodd" clip-rule="evenodd" d="M48 51L58.5 28V46C65.9558 46 72 52.0442 72 59.5C72 66.9558 65.9558 73 58.5 73C51.0442 73 45 66.9558 45 59.5C45 56.2777 46.1289 53.3191 48.0128 50.9982L48 51Z" fill="white"/>
<mask id="path-3-outside-1_342_4" maskUnits="userSpaceOnUse" x="25" y="26" width="33" height="50" fill="black">
<rect fill="white" x="25" y="26" width="33" height="50"/>
<path fill-rule="evenodd" clip-rule="evenodd" d="M31 51L41.5 28V46C48.9558 46 55 52.0442 55 59.5C55 66.9558 48.9558 73 41.5 73C34.0442 73 28 66.9558 28 59.5C28 56.2777 29.1289 53.3191 31.0128 50.9982L31 51Z"/>
</mask>
<path fill-rule="evenodd" clip-rule="evenodd" d="M31 51L41.5 28V46C48.9558 46 55 52.0442 55 59.5C55 66.9558 48.9558 73 41.5 73C34.0442 73 28 66.9558 28 59.5C28 56.2777 29.1289 53.3191 31.0128 50.9982L31 51Z" fill="white"/>
<path d="M41.5 28H44.5L38.7709 26.7541L41.5 28ZM31 51L28.2709 49.7541L25.9921 54.7459L31.4243 53.9698L31 51ZM41.5 46H38.5V49H41.5V46ZM31.0128 50.9982L33.3421 52.8888L38.166 46.9458L30.5886 48.0283L31.0128 50.9982ZM38.7709 26.7541L28.2709 49.7541L33.7291 52.2459L44.2291 29.2459L38.7709 26.7541ZM44.5 46V28H38.5V46H44.5ZM41.5 49C47.299 49 52 53.701 52 59.5H58C58 50.3873 50.6127 43 41.5 43V49ZM52 59.5C52 65.299 47.299 70 41.5 70V76C50.6127 76 58 68.6127 58 59.5H52ZM41.5 70C35.701 70 31 65.299 31 59.5H25C25 68.6127 32.3873 76 41.5 76V70ZM31 59.5C31 56.991 31.8762 54.6947 33.3421 52.8888L28.6836 49.1075C26.3816 51.9435 25 55.5645 25 59.5H31ZM31.4243 53.9698L31.4371 53.968L30.5886 48.0283L30.5757 48.0302L31.4243 53.9698Z" fill="#FF8469" mask="url(#path-3-outside-1_342_4)"/>
</svg>
